<?xml version="1.0" encoding="UTF-8"?>
<svg width="50" height="50" version="1.1" viewBox="0 0 50 50" xmlns="http://www.w3.org/2000/svg">
<title>ArcoMage HD Favicon (maskable)</title>
<path d="m26.23 38.836 0.21637-2.5544c2.8128-0.25844 3.3297-0.47481 3.3297-1.5567a7.6991 7.6991 0 0 0-0.21637-1.5146l-0.90752-3.3297c-1.1239-0.04808-2.945-0.09016-3.9848-0.09016-1.3824 0-3.1133 0.21637-4.1531 0.30652l-1.0819 3.3297a6.0764 6.0764 0 0 0-0.25844 1.3403c0 1.0398 0.51688 1.3884 2.0315 1.3884h1.8632l0.21637 0.30051-0.30051 2.6385s-3.5521-0.25844-6.3228-0.25844c-2.332 0-5.1929 0.13223-5.1929 0.13223l0.30652-2.8128c1.3403-0.21637 2.1216-0.99771 2.8549-2.945l6.1605-17.712 4.5918-8.018 5.0667 7.7292s2.879 10.5 5.259 17.947c0.60103 2.0735 1.4244 2.8128 3.4199 3.0051l0.16829 0.30051-0.30051 2.5123s-3.4199-0.13223-5.283-0.13223c-3.6783 0-7.2662 0.3486-7.2662 0.3486zm-4.676-12.375h3.1133c0.91356 0 2.2959-0.09016 3.2035-0.13223l-2.7827-10.512"/>
<path d="m25.436 38.054 0.21637-2.5544c2.8128-0.25844 3.3297-0.47481 3.3297-1.5567a7.6991 7.6991 0 0 0-0.21637-1.5146l-0.90752-3.3297c-1.1239-0.04808-2.945-0.09016-3.9848-0.09016-1.3824 0-3.1133 0.21637-4.1531 0.30652l-1.0819 3.3297a6.0764 6.0764 0 0 0-0.25844 1.3403c0 1.0398 0.51688 1.3884 2.0315 1.3884h1.8632l0.21637 0.30051-0.30051 2.6385s-3.5521-0.25844-6.3228-0.25844c-2.332 0-5.1929 0.13223-5.1929 0.13223l0.30652-2.8128c1.3403-0.21637 2.1216-0.99771 2.8549-2.945l6.1605-17.712 4.5918-8.018 5.0667 7.7292s2.879 10.5 5.259 17.947c0.60103 2.0735 1.4244 2.8128 3.4199 3.0051l0.16829 0.30051-0.30051 2.5123s-3.4199-0.13223-5.283-0.13223c-3.6783 0-7.2662 0.3486-7.2662 0.3486zm-4.676-12.375h3.1133c0.91355 0 2.2959-0.09016 3.2035-0.13222l-2.7827-10.512" fill="#ee3625"/>
</svg>
