<?xml version="1.0" encoding="UTF-8"?>
<svg width="50" height="50" version="1.1" viewBox="0 0 50 50" xmlns="http://www.w3.org/2000/svg">
<title>ArcoMage HD Favicon</title>
<path d="m26.857 48.718 0.32294-3.8125c4.1982-0.38573 4.9696-0.70867 4.9696-2.3234a11.491 11.491 0 0 0-0.32294-2.2606l-1.3545-4.9696c-1.6775-0.07176-4.3955-0.13456-5.9474-0.13456-2.0632 0-4.6467 0.32294-6.1986 0.45749l-1.6147 4.9696a9.0692 9.0692 0 0 0-0.38573 2.0004c0 1.5519 0.77146 2.0722 3.032 2.0722h2.7808l0.32294 0.44852-0.44852 3.938s-5.3016-0.38573-9.4369-0.38573c-3.4805 0-7.7505 0.19735-7.7505 0.19735l0.45749-4.1982c2.0004-0.32294 3.1666-1.4891 4.261-4.3955l9.1947-26.436 6.8534-11.967 7.5621 11.536s4.2969 15.671 7.8492 26.786c0.89705 3.0948 2.126 4.1982 5.1042 4.4852l0.25117 0.44852-0.44852 3.7497s-5.1042-0.19735-7.885-0.19735c-5.4899 0-10.845 0.52029-10.845 0.52029zm-6.979-18.47h4.6467c1.3635 0 3.4267-0.13456 4.7813-0.19735l-4.1533-15.689"/>
<path d="m25.673 47.552 0.32294-3.8125c4.1982-0.38573 4.9696-0.70867 4.9696-2.3234a11.491 11.491 0 0 0-0.32294-2.2606l-1.3545-4.9696c-1.6775-0.07176-4.3955-0.13456-5.9474-0.13456-2.0632 0-4.6467 0.32294-6.1986 0.45749l-1.6147 4.9696a9.0692 9.0692 0 0 0-0.38573 2.0004c0 1.5519 0.77146 2.0722 3.032 2.0722h2.7808l0.32294 0.44852-0.44852 3.938s-5.3016-0.38573-9.4369-0.38573c-3.4805 0-7.7505 0.19735-7.7505 0.19735l0.45749-4.1982c2.0004-0.32294 3.1666-1.4891 4.261-4.3955l9.1947-26.436 6.8534-11.967 7.5621 11.536s4.2969 15.671 7.8492 26.786c0.89705 3.0948 2.126 4.1982 5.1042 4.4852l0.25117 0.44852-0.44852 3.7497s-5.1042-0.19735-7.885-0.19735c-5.4899 0-10.845 0.52029-10.845 0.52029zm-6.979-18.47h4.6467c1.3635 0 3.4267-0.13456 4.7813-0.19735l-4.1533-15.689" fill="#ee3625"/>
</svg>
