<?xml version="1.0" encoding="UTF-8"?>
<svg width="268.93" height="268.93" viewBox="0 0 268.93 268.93" xmlns="http://www.w3.org/2000/svg" xmlns:xlink="http://www.w3.org/1999/xlink" version="1.1">
 <defs>
  <linearGradient id="linearGradient1" x1="133.24" x2="133.24" y1="40.252" y2="8.8625" gradientUnits="userSpaceOnUse">
   <stop stop-color="#ee3625" offset="0"/>
   <stop stop-color="#ee7d25" offset="1"/>
  </linearGradient>
  <linearGradient id="linearGradient914" x1="133.24" x2="133.24" y1="40.252" y2="8.8625" gradientTransform="matrix(.79256 0 0 .79256 27.893 97.585)" gradientUnits="userSpaceOnUse" xlink:href="#linearGradient1"/>
 </defs>
 <title>ArcoMage HD Logo (maskable)</title>
 <g>
  <path d="m146.99 170.55v-26.04h5.8708v10.024h8.9861v-10.024h5.9108v26.04h-5.9108v-10.863h-8.9861v10.863z"/>
  <path d="m172.32 170.55v-26.04h7.3485q2.9953 0 5.3916 0.75881 2.3962 0.75882 4.1136 2.3563 1.7173 1.5576 2.6359 3.9937 0.91858 2.4362 0.91858 5.7909t-0.91858 5.8309q-0.91858 2.4761-2.596 4.1136-1.6774 1.5975-4.0337 2.3962-2.3164 0.79874-5.1919 0.79874zm5.8708-4.7526h1.1182q1.6774 0 3.0353-0.43931 1.3579-0.43931 2.3164-1.3978 0.95852-0.99847 1.4776-2.596 0.55912-1.5975 0.55912-3.9538 0-2.3163-0.55912-3.874-0.51919-1.5975-1.4776-2.5161-0.95853-0.95853-2.3164-1.3579-1.3578-0.39937-3.0353-0.39937h-1.1182z"/>
  <path d="m49.197 140.76 0.28532-3.3684c3.7092-0.3408 4.3908-0.62612 4.3908-2.0527a10.153 10.153 0 0 0-0.28532-1.9972l-1.1968-4.3908c-1.4821-0.0634-3.8836-0.11889-5.2547-0.11889-1.8229 0-4.1055 0.28533-5.4766 0.40421l-1.4266 4.3908a8.0128 8.0128 0 0 0-0.3408 1.7674c0 1.3711 0.6816 1.8308 2.6789 1.8308h2.4569l0.28532 0.39628-0.39628 3.4794s-4.684-0.3408-8.3378-0.3408c-3.0751 0-6.8477 0.17437-6.8477 0.17437l0.40421-3.7092c1.7674-0.28532 2.7977-1.3156 3.7647-3.8836l8.1238-23.357 6.0552-10.573 6.6813 10.192s3.7964 13.846 6.9349 23.666c0.79256 2.7343 1.8784 3.7092 4.5097 3.9628l0.22192 0.39628-0.39628 3.3129s-4.5097-0.17436-6.9666-0.17436c-4.8505 0-9.5821 0.45968-9.5821 0.45968zm-6.1661-16.319h4.1055c1.2047 0 3.0276-0.11889 4.2244-0.17437l-3.6696-13.862"/>
  <path d="m67.624 133.57v-11.357c0-2.5679-0.57064-3.3684-2.449-3.3684-0.45969 0-1.0858 0.0555-1.0858 0.0555l-0.28532-0.39629 0.3408-2.8532c4.8505-0.79256 10.303-1.9418 10.303-1.9418l0.51517 0.51517a42.006 42.006 0 0 0-0.57064 5.3656l0.3408 0.22192c2.3777-3.5903 5.4211-5.643 7.989-5.643a11.595 11.595 0 0 1 1.9973 0.16643l0.22984 0.45969s-0.91145 5.7064-1.1413 10.303l-3.6537 0.22985c0-3.5982-0.28532-4.5097-1.5851-4.5097-1.2998 0-2.6868 0.96692-3.8836 2.5679 0 0-0.51517 9.9863-0.51517 11.017 0 1.9973 0.51517 2.6234 2.2271 2.6234 1.0303 0 2.8532-0.17436 2.8532-0.17436l0.17436 0.34873-0.63405 3.7647s-4.6761-0.22985-7.355-0.22985c-3.4873 0-7.1331 0.22985-7.1331 0.22985l0.45969-3.4794c2.235-0.15059 2.8612-0.95108 2.8612-3.9153z"/>
  <path d="m83.166 128.31c0-8.5042 5.7619-14.551 13.862-14.551a22.144 22.144 0 0 1 7.2519 1.1413l0.22985 0.51517a56.692 56.692 0 0 0-1.2602 8.7895l-3.6537 0.22985v-1.8863c0-2.6234-1.3077-4.05-3.5903-4.05-3.5428 0-5.4766 2.6789-5.4766 7.5928 0 6.2771 2.2826 9.701 6.3405 9.701a14.005 14.005 0 0 0 6.1027-1.6565l0.4042 0.16644 0.91145 2.9166s-5.1358 4.2164-8.5597 4.2164c-7.8067-0.0238-12.562-5.0169-12.562-13.125z"/>
  <path d="m102.55 128.37c0-8.6706 5.5479-14.607 13.751-14.607 7.4184 0 11.984 5.0248 11.984 13.014 0 8.6706-5.5479 14.662-13.695 14.662-7.3074-0.0238-12.039-5.1913-12.039-13.069zm18.229 1.0303c0-7.244-2.1162-10.842-5.7699-10.842-3.2495 0-5.0169 2.6234-5.0169 7.7592 0 7.252 2.1082 10.842 5.7619 10.842 3.2257 0 5.0011-2.6234 5.0011-7.7592z"/>
  <path d="m137.85 114.96h-0.45177c-0.0555 2.0607-1.3156 19.022-1.3156 20.377 0 1.2522 0.57065 1.8229 1.8308 1.8229l1.9338-0.0555 0.34873 0.28532-0.63405 3.5982c-1.1968-0.0555-5.0169-0.22984-6.6734-0.22984a45.446 45.446 0 0 0-5.651 0.45969l0.3408-3.7092c2.2271-0.22985 3.0276-1.2047 3.4873-4.1134 0.28532-2.5124 2.2826-21.685 2.2826-22.984 0-2.0527-0.91937-2.6234-4.3432-2.9087l-0.28533-0.34081 0.51517-3.3129c1.8863 0.11889 5.5955 0.28532 7.1331 0.28532 1.8308 0 4.8505-0.16643 6.0552-0.22984 3.2495 11.476 6.5624 21.463 7.2995 23.92h0.45969c0.6816-2.3777 4.1055-12.388 7.6482-23.777 1.1413 0 3.1702 0.11096 4.9614 0.11096 0.62612 0 1.2602-0.0555 1.7674-0.0555 1.8308 0 5.3102-0.28532 5.8253-0.3408l0.22984 0.22984-0.34872 3.4239c-3.2495 0.28533-4.2164 0.96693-4.2164 3.0276 0 2.449 0.79257 14.662 1.3632 21.455 0.45969 4.1689 0.97485 5.2468 2.7978 5.2468 0.62612 0 1.4266-0.11096 1.5851-0.11096l0.22984 0.28532-0.51516 3.5982c-0.68953 0-3.7647-0.17436-5.7619-0.17436-2.5124 0-7.8781 0.39628-8.1079 0.45969l0.39628-3.7092c2.2271-0.28532 3.1702-1.0858 3.1702-2.8532 0-1.7674-1.1413-15.812-1.1968-19.695h-0.51517c-2.0607 5.7064-5.5479 15.637-8.9084 26.194l-3.8756 0.51517c-3.4159-11.056-6.7843-20.844-8.8608-26.694z"/>
  <path d="m184.55 137.05-0.45968-0.17436c-2.2826 2.3777-4.8505 4.3432-6.2771 4.3432-4.4463 0-7.8147-3.5428-7.8147-8.2744a4.7078 4.7078 0 0 1 3.3129-4.7554l11.009-2.5679 0.0634-1.3711c0-3.2495-1.8308-5.1913-4.9139-5.1913-2.1082 0-4.7554 1.1968-6.6734 2.6789l-0.51517-0.22984-0.96692-3.4239c3.305-1.8784 8.4963-4.3353 10.438-4.3353 6.6258 0 9.5108 3.3684 9.5108 7.7592 0 1.9418-1.1413 9.1937-1.1413 11.762 0 1.4266 0.79256 2.338 2.0527 2.338a5.4132 5.4132 0 0 0 2.7343-0.96692l0.80048 1.2285c-1.1413 2.0527-3.4239 5.0169-5.4766 5.5479-3.3446 0-5.3419-1.5138-5.6827-4.367zm-0.51516-2.9087 0.17436-5.4211-6.1107 1.7119a1.6723 1.6723 0 0 0-1.3632 1.8784 3.2337 3.2337 0 0 0 3.1702 3.4873 7.7513 7.7513 0 0 0 4.1292-1.6565z"/>
  <path d="m215.83 117.36-0.22984 0.34081a7.8622 7.8622 0 0 1 2.2826 5.651c0 5.8174-5.1913 10.161-12.269 10.161a15.336 15.336 0 0 1-3.7092-0.45969c-0.97485 0.74501-1.3711 1.3157-1.3711 1.9418 0 4.1055 19.228 0.0555 19.228 8.956 0 5.4211-7.355 10.62-15.122 10.62-6.0472 0-10.042-3.1702-10.042-8.0524a30.744 30.744 0 0 1 5.7064-4.161v-0.40421c-3.5982-0.62612-5.7064-2.7343-5.8808-5.8174a25.941 25.941 0 0 1 4.684-3.8281v-0.3408a8.5359 8.5359 0 0 1-4.3353-7.7037c0-6.0472 5.0169-10.557 11.809-10.557 2.3777 0 4.1134 0.57065 5.8808 0.57065a50.375 50.375 0 0 0 7.989-1.8863l0.34081 0.22984-0.73709 4.3987c-1.4345 0.16644-3.0831 0.28532-4.2244 0.3408zm-14.155 29.444c0 2.2271 1.8784 3.5428 5.1358 3.5428 3.7647 0 6.6179-1.8308 6.6179-4.2244 0-1.8308-1.4821-2.3381-9.59-3.4239a5.6827 5.6827 0 0 0-2.1637 4.1055zm9.2413-22.596c0-3.9628-1.8784-6.2771-4.906-6.2771-2.7343 0-4.2244 1.9973-4.2244 5.5479 0 3.8836 1.8308 6.2216 4.8505 6.2216 2.7423 0.0396 4.2798-1.8942 4.2798-5.4925z"/>
  <path d="m217.19 128.31c0-8.2744 5.7699-14.551 13.474-14.551 6.3405 0 9.5821 3.2574 9.5821 9.701a14.456 14.456 0 0 1-0.39628 3.1702l-0.68161 0.68953h-14.781c0.11096 5.5955 2.7898 8.5597 7.2995 8.5597a17.175 17.175 0 0 0 6.7923-1.7119l0.39628 0.22984 0.91938 2.7978c-2.3777 1.8229-6.6813 4.2164-9.701 4.2164-7.997 0-12.903-4.9932-12.903-13.101zm14.979-4.5652c0.91145-0.0555 1.0858-0.28532 1.0858-1.3077 0-2.7978-1.2602-4.2244-3.5982-4.2244-2.9642 0-4.906 2.0527-5.3022 5.9918z"/>
 </g>
 <g fill="url(#linearGradient914)">
  <path d="m48.151 139.73 0.28532-3.3684c3.7092-0.3408 4.3908-0.62613 4.3908-2.0527a10.153 10.153 0 0 0-0.28532-1.9973l-1.1968-4.3908c-1.4821-0.0634-3.8836-0.11889-5.2547-0.11889-1.8229 0-4.1055 0.28533-5.4766 0.40421l-1.4266 4.3908a8.0128 8.0128 0 0 0-0.3408 1.7674c0 1.3711 0.6816 1.8308 2.6789 1.8308h2.4569l0.28532 0.39628-0.39628 3.4794s-4.684-0.3408-8.3378-0.3408c-3.0751 0-6.8477 0.17436-6.8477 0.17436l0.40421-3.7092c1.7674-0.28532 2.7977-1.3156 3.7647-3.8836l8.1238-23.357 6.0552-10.573 6.6813 10.192s3.7964 13.846 6.9349 23.666c0.79256 2.7343 1.8784 3.7092 4.5097 3.9628l0.22192 0.39628-0.39628 3.3129s-4.5097-0.17436-6.9666-0.17436c-4.8505 0-9.5821 0.45968-9.5821 0.45968zm-6.1661-16.319h4.1055c1.2047 0 3.0276-0.11889 4.2244-0.17437l-3.6696-13.862"/>
  <path d="m66.578 132.54v-11.357c0-2.5679-0.57065-3.3684-2.449-3.3684-0.45969 0-1.0858 0.0555-1.0858 0.0555l-0.28532-0.39628 0.3408-2.8532c4.8505-0.79257 10.303-1.9418 10.303-1.9418l0.51517 0.51516a42.006 42.006 0 0 0-0.57064 5.3656l0.3408 0.22192c2.3777-3.5903 5.4211-5.643 7.989-5.643a11.595 11.595 0 0 1 1.9973 0.16643l0.22984 0.45969s-0.91145 5.7064-1.1413 10.303l-3.6537 0.22985c0-3.5982-0.28532-4.5097-1.5851-4.5097s-2.6868 0.96692-3.8836 2.5679c0 0-0.51516 9.9863-0.51516 11.017 0 1.9973 0.51516 2.6234 2.2271 2.6234 1.0303 0 2.8532-0.17436 2.8532-0.17436l0.17436 0.34872-0.63405 3.7647s-4.6761-0.22985-7.355-0.22985c-3.4873 0-7.1331 0.22985-7.1331 0.22985l0.45969-3.4794c2.235-0.15059 2.8612-0.95108 2.8612-3.9153z"/>
  <path d="m82.12 127.28c0-8.5042 5.7619-14.551 13.862-14.551a22.144 22.144 0 0 1 7.2519 1.1413l0.22984 0.51516a56.692 56.692 0 0 0-1.2602 8.7895l-3.6537 0.22985v-1.8863c0-2.6234-1.3077-4.05-3.5903-4.05-3.5428 0-5.4766 2.6789-5.4766 7.5928 0 6.2771 2.2826 9.701 6.3405 9.701a14.005 14.005 0 0 0 6.1027-1.6565l0.40421 0.16644 0.91145 2.9166s-5.1358 4.2164-8.5597 4.2164c-7.8067-0.0238-12.562-5.0169-12.562-13.125z"/>
  <path d="m101.51 127.34c0-8.6706 5.5479-14.607 13.751-14.607 7.4184 0 11.984 5.0248 11.984 13.014 0 8.6706-5.5479 14.662-13.695 14.662-7.3074-0.0238-12.039-5.1913-12.039-13.069zm18.229 1.0303c0-7.244-2.1161-10.842-5.7698-10.842-3.2495 0-5.0169 2.6234-5.0169 7.7592 0 7.252 2.1082 10.842 5.7619 10.842 3.2257 0 5.0011-2.6234 5.0011-7.7592z"/>
  <path d="m136.81 113.93h-0.45176c-0.0555 2.0607-1.3156 19.022-1.3156 20.377 0 1.2522 0.57064 1.8229 1.8308 1.8229l1.9338-0.0555 0.34873 0.28532-0.63405 3.5982c-1.1968-0.0555-5.0169-0.22984-6.6734-0.22984a45.446 45.446 0 0 0-5.651 0.45969l0.3408-3.7092c2.2271-0.22984 3.0276-1.2047 3.4873-4.1134 0.28532-2.5124 2.2826-21.685 2.2826-22.984 0-2.0527-0.91938-2.6234-4.3432-2.9087l-0.28532-0.3408 0.51517-3.3129c1.8863 0.11888 5.5955 0.28532 7.1331 0.28532 1.8308 0 4.8505-0.16644 6.0552-0.22984 3.2495 11.476 6.5624 21.463 7.2995 23.92h0.45969c0.6816-2.3777 4.1055-12.388 7.6482-23.777 1.1413 0 3.1702 0.11096 4.9614 0.11096 0.62612 0 1.2602-0.0555 1.7674-0.0555 1.8308 0 5.3102-0.28532 5.8253-0.3408l0.22984 0.22984-0.34873 3.4239c-3.2495 0.28532-4.2164 0.96693-4.2164 3.0276 0 2.449 0.79256 14.662 1.3632 21.455 0.45968 4.1689 0.97485 5.2468 2.7977 5.2468 0.62613 0 1.4266-0.11095 1.5851-0.11095l0.22984 0.28532-0.51516 3.5982c-0.68953 0-3.7647-0.17436-5.7619-0.17436-2.5124 0-7.8781 0.39628-8.1079 0.45969l0.39628-3.7092c2.2271-0.28532 3.1702-1.0858 3.1702-2.8532 0-1.7674-1.1413-15.812-1.1968-19.695h-0.51516c-2.0607 5.7064-5.5479 15.637-8.9084 26.194l-3.8756 0.51517c-3.4159-11.056-6.7843-20.844-8.8608-26.694z"/>
  <path d="m183.5 136.02-0.45969-0.17437c-2.2826 2.3777-4.8505 4.3432-6.2771 4.3432-4.4463 0-7.8147-3.5428-7.8147-8.2744a4.7078 4.7078 0 0 1 3.3129-4.7554l11.009-2.5679 0.0634-1.3711c0-3.2495-1.8308-5.1913-4.9139-5.1913-2.1082 0-4.7554 1.1968-6.6734 2.6789l-0.51517-0.22985-0.96692-3.4239c3.305-1.8784 8.4963-4.3353 10.438-4.3353 6.6258 0 9.5108 3.3684 9.5108 7.7592 0 1.9418-1.1413 9.1937-1.1413 11.762 0 1.4266 0.79256 2.3381 2.0527 2.3381a5.4132 5.4132 0 0 0 2.7343-0.96692l0.80049 1.2285c-1.1413 2.0527-3.4239 5.0169-5.4766 5.5479-3.3446 0-5.3419-1.5138-5.6827-4.367zm-0.51516-2.9087 0.17436-5.4211-6.1107 1.7119a1.6723 1.6723 0 0 0-1.3632 1.8784 3.2337 3.2337 0 0 0 3.1702 3.4873 7.7513 7.7513 0 0 0 4.1293-1.6565z"/>
  <path d="m214.78 116.33-0.22984 0.3408a7.8622 7.8622 0 0 1 2.2826 5.651c0 5.8174-5.1913 10.161-12.269 10.161a15.336 15.336 0 0 1-3.7092-0.45969c-0.97486 0.74501-1.3711 1.3157-1.3711 1.9418 0 4.1055 19.228 0.0555 19.228 8.956 0 5.4211-7.355 10.62-15.122 10.62-6.0473 0-10.042-3.1702-10.042-8.0524a30.744 30.744 0 0 1 5.7064-4.161v-0.40421c-3.5982-0.62612-5.7064-2.7343-5.8808-5.8174a25.941 25.941 0 0 1 4.684-3.8281v-0.3408a8.5359 8.5359 0 0 1-4.3353-7.7037c0-6.0472 5.0169-10.557 11.809-10.557 2.3777 0 4.1134 0.57064 5.8808 0.57064a50.375 50.375 0 0 0 7.989-1.8863l0.3408 0.22985-0.73708 4.3987c-1.4345 0.16644-3.0831 0.28532-4.2244 0.3408zm-14.155 29.444c0 2.2271 1.8784 3.5428 5.1358 3.5428 3.7647 0 6.6179-1.8308 6.6179-4.2244 0-1.8308-1.4821-2.3381-9.59-3.4239a5.6827 5.6827 0 0 0-2.1637 4.1055zm9.2413-22.596c0-3.9628-1.8784-6.2771-4.906-6.2771-2.7343 0-4.2244 1.9973-4.2244 5.5479 0 3.8836 1.8308 6.2216 4.8505 6.2216 2.7423 0.0396 4.2798-1.8942 4.2798-5.4925z"/>
  <path d="m216.14 127.28c0-8.2744 5.7698-14.551 13.474-14.551 6.3405 0 9.5821 3.2574 9.5821 9.701a14.456 14.456 0 0 1-0.39628 3.1702l-0.6816 0.68953h-14.781c0.11096 5.5955 2.7898 8.5597 7.2995 8.5597a17.175 17.175 0 0 0 6.7923-1.7119l0.39628 0.22984 0.91937 2.7977c-2.3777 1.8229-6.6813 4.2164-9.701 4.2164-7.997 0-12.903-4.9932-12.903-13.101zm14.979-4.5652c0.91145-0.0555 1.0858-0.28533 1.0858-1.3077 0-2.7978-1.2602-4.2244-3.5982-4.2244-2.9642 0-4.906 2.0527-5.3022 5.9918z"/>
 </g>
 <path d="m145.94 169.52v-26.04h5.8708v10.024h8.9861v-10.024h5.9108v26.04h-5.9108v-10.863h-8.9861v10.863z" fill="#1273eb"/>
 <path d="m171.28 169.52v-26.04h7.3485q2.9953 0 5.3916 0.75881 2.3962 0.75882 4.1136 2.3563 1.7173 1.5576 2.6359 3.9937 0.91858 2.4362 0.91858 5.7909t-0.91858 5.8309q-0.91858 2.4761-2.596 4.1136-1.6774 1.5975-4.0337 2.3962-2.3163 0.79874-5.1919 0.79874zm5.8708-4.7526h1.1182q1.6774 0 3.0353-0.43931t2.3164-1.3978q0.95852-0.99847 1.4776-2.596 0.55912-1.5975 0.55912-3.9538 0-2.3163-0.55912-3.874-0.51919-1.5975-1.4776-2.5161-0.95853-0.95852-2.3164-1.3579-1.3578-0.39938-3.0353-0.39938h-1.1182z" fill="#1273eb" />
</svg>
