<?xml version="1.0" encoding="UTF-8"?>
<svg width="268.93" height="93.064" version="1.1" viewBox="0 0 268.93 93.064" xmlns="http://www.w3.org/2000/svg">
<title>ArcoMage HD Logo</title>
<path d="m150.27 92.065v-32.855h7.4074v12.648h11.338v-12.648h7.4578v32.855h-7.4578v-13.706h-11.338v13.706z"/>
<path d="m182.23 92.065v-32.855h9.2718q3.7793 0 6.8027 0.95742 3.0234 0.95742 5.1902 2.973 2.1668 1.9652 3.3258 5.039 1.159 3.0738 1.159 7.3066 0 4.2328-1.159 7.357-1.159 3.1242-3.2754 5.1902-2.1164 2.0156-5.0894 3.0234-2.9226 1.0078-6.5508 1.0078zm7.4074-5.9965h1.4109q2.1164 0 3.8297-0.55429t2.9226-1.7637q1.2094-1.2598 1.8644-3.2754 0.70546-2.0156 0.70546-4.9886 0-2.9226-0.70546-4.8879-0.65508-2.0156-1.8644-3.1746-1.2094-1.2094-2.9226-1.7133t-3.8297-0.5039h-1.4109z"/>
<path d="m26.88 54.47 0.36-4.25c4.68-0.43 5.54-0.79 5.54-2.59a12.81 12.81 0 0 0-0.36-2.52l-1.51-5.54c-1.87-0.08-4.9-0.15-6.63-0.15-2.3 0-5.18 0.36-6.91 0.51l-1.8 5.54a10.11 10.11 0 0 0-0.43 2.23c0 1.73 0.86 2.31 3.38 2.31h3.1l0.36 0.5-0.5 4.39s-5.91-0.43-10.52-0.43c-3.88 0-8.64 0.22-8.64 0.22l0.51-4.68c2.23-0.36 3.53-1.66 4.75-4.9l10.25-29.47 7.64-13.34 8.43 12.86s4.79 17.47 8.75 29.86c1 3.45 2.37 4.68 5.69 5l0.28 0.5-0.5 4.18s-5.69-0.22-8.79-0.22c-6.12 0-12.09 0.58-12.09 0.58zm-7.78-20.59h5.18c1.52 0 3.82-0.15 5.33-0.22l-4.63-17.49"/>
<path d="m50.13 45.4v-14.33c0-3.24-0.72-4.25-3.09-4.25-0.58 0-1.37 0.07-1.37 0.07l-0.36-0.5 0.43-3.6c6.12-1 13-2.45 13-2.45l0.65 0.65a53 53 0 0 0-0.72 6.77l0.43 0.28c3-4.53 6.84-7.12 10.08-7.12a14.63 14.63 0 0 1 2.52 0.21l0.29 0.58s-1.15 7.2-1.44 13l-4.61 0.29c0-4.54-0.36-5.69-2-5.69s-3.39 1.22-4.9 3.24c0 0-0.65 12.6-0.65 13.9 0 2.52 0.65 3.31 2.81 3.31 1.3 0 3.6-0.22 3.6-0.22l0.22 0.44-0.8 4.75s-5.9-0.29-9.28-0.29c-4.4 0-9 0.29-9 0.29l0.58-4.39c2.82-0.19 3.61-1.2 3.61-4.94z"/>
<path d="m69.74 38.77c0-10.73 7.27-18.36 17.49-18.36a27.94 27.94 0 0 1 9.15 1.44l0.29 0.65a71.53 71.53 0 0 0-1.59 11.09l-4.61 0.29v-2.38c0-3.31-1.65-5.11-4.53-5.11-4.47 0-6.91 3.38-6.91 9.58 0 7.92 2.88 12.24 8 12.24a17.67 17.67 0 0 0 7.7-2.09l0.51 0.21 1.15 3.68s-6.48 5.32-10.8 5.32c-9.85-0.03-15.85-6.33-15.85-16.56z"/>
<path d="m94.2 38.84c0-10.94 7-18.43 17.35-18.43 9.36 0 15.12 6.34 15.12 16.42 0 10.94-7 18.5-17.28 18.5-9.22-0.03-15.19-6.55-15.19-16.49zm23 1.3c0-9.14-2.67-13.68-7.28-13.68-4.1 0-6.33 3.31-6.33 9.79 0 9.15 2.66 13.68 7.27 13.68 4.07 0 6.31-3.31 6.31-9.79z"/>
<path d="m138.74 21.92h-0.57c-0.07 2.6-1.66 24-1.66 25.71 0 1.58 0.72 2.3 2.31 2.3l2.44-0.07 0.44 0.36-0.8 4.54c-1.51-0.07-6.33-0.29-8.42-0.29a57.34 57.34 0 0 0-7.13 0.58l0.43-4.68c2.81-0.29 3.82-1.52 4.4-5.19 0.36-3.17 2.88-27.36 2.88-29 0-2.59-1.16-3.31-5.48-3.67l-0.36-0.43 0.65-4.18c2.38 0.15 7.06 0.36 9 0.36 2.31 0 6.12-0.21 7.64-0.29 4.1 14.48 8.28 27.08 9.21 30.18h0.58c0.86-3 5.18-15.63 9.65-30 1.44 0 4 0.14 6.26 0.14 0.79 0 1.59-0.07 2.23-0.07 2.31 0 6.7-0.36 7.35-0.43l0.29 0.29-0.44 4.32c-4.1 0.36-5.32 1.22-5.32 3.82 0 3.09 1 18.5 1.72 27.07 0.58 5.26 1.23 6.62 3.53 6.62 0.79 0 1.8-0.14 2-0.14l0.29 0.36-0.65 4.54c-0.87 0-4.75-0.22-7.27-0.22-3.17 0-9.94 0.5-10.23 0.58l0.5-4.68c2.81-0.36 4-1.37 4-3.6s-1.44-19.95-1.51-24.85h-0.65c-2.6 7.2-7 19.73-11.24 33.05l-4.89 0.65c-4.31-13.95-8.56-26.3-11.18-33.68z"/>
<path d="m197.66 49.79-0.58-0.22c-2.88 3-6.12 5.48-7.92 5.48-5.61 0-9.86-4.47-9.86-10.44a5.94 5.94 0 0 1 4.18-6l13.89-3.24 0.08-1.73c0-4.1-2.31-6.55-6.2-6.55-2.66 0-6 1.51-8.42 3.38l-0.65-0.29-1.22-4.32c4.17-2.37 10.72-5.47 13.17-5.47 8.36 0 12 4.25 12 9.79 0 2.45-1.44 11.6-1.44 14.84 0 1.8 1 2.95 2.59 2.95a6.83 6.83 0 0 0 3.45-1.22l1.01 1.55c-1.44 2.59-4.32 6.33-6.91 7-4.22 0-6.74-1.91-7.17-5.51zm-0.65-3.67 0.22-6.84-7.71 2.16a2.11 2.11 0 0 0-1.72 2.37 4.08 4.08 0 0 0 4 4.4 9.78 9.78 0 0 0 5.21-2.09z"/>
<path d="m237.12 24.95-0.29 0.43a9.92 9.92 0 0 1 2.88 7.13c0 7.34-6.55 12.82-15.48 12.82a19.35 19.35 0 0 1-4.68-0.58c-1.23 0.94-1.73 1.66-1.73 2.45 0 5.18 24.26 0.07 24.26 11.3 0 6.84-9.28 13.4-19.08 13.4-7.63 0-12.67-4-12.67-10.16a38.79 38.79 0 0 1 7.2-5.25v-0.51c-4.54-0.79-7.2-3.45-7.42-7.34a32.73 32.73 0 0 1 5.91-4.83v-0.43a10.77 10.77 0 0 1-5.47-9.72c0-7.63 6.33-13.32 14.9-13.32 3 0 5.19 0.72 7.42 0.72a63.56 63.56 0 0 0 10.08-2.38l0.43 0.29-0.93 5.55c-1.81 0.21-3.89 0.36-5.33 0.43zm-17.86 37.15c0 2.81 2.37 4.47 6.48 4.47 4.75 0 8.35-2.31 8.35-5.33 0-2.31-1.87-2.95-12.1-4.32a7.17 7.17 0 0 0-2.73 5.18zm11.66-28.51c0-5-2.37-7.92-6.19-7.92-3.45 0-5.33 2.52-5.33 7 0 4.9 2.31 7.85 6.12 7.85 3.46 0.05 5.4-2.39 5.4-6.93z"/>
<path d="m238.84 38.77c0-10.44 7.28-18.36 17-18.36 8 0 12.09 4.11 12.09 12.24a18.24 18.24 0 0 1-0.5 4l-0.86 0.87h-18.65c0.14 7.06 3.52 10.8 9.21 10.8a21.67 21.67 0 0 0 8.57-2.16l0.5 0.29 1.16 3.53c-3 2.3-8.43 5.32-12.24 5.32-10.09 0-16.28-6.3-16.28-16.53zm18.9-5.76c1.15-0.07 1.37-0.36 1.37-1.65 0-3.53-1.59-5.33-4.54-5.33-3.74 0-6.19 2.59-6.69 7.56z"/>
<g fill="#ee3625">
<path d="m25.56 53.17 0.36-4.25c4.68-0.43 5.54-0.79 5.54-2.59a12.81 12.81 0 0 0-0.36-2.52l-1.51-5.54c-1.87-0.08-4.9-0.15-6.63-0.15-2.3 0-5.18 0.36-6.91 0.51l-1.8 5.54a10.11 10.11 0 0 0-0.43 2.23c0 1.73 0.86 2.31 3.38 2.31h3.1l0.36 0.5-0.5 4.39s-5.91-0.43-10.52-0.43c-3.88 0-8.64 0.22-8.64 0.22l0.51-4.68c2.23-0.36 3.53-1.66 4.75-4.9l10.25-29.47 7.64-13.34 8.43 12.86s4.79 17.47 8.75 29.86c1 3.45 2.37 4.68 5.69 5l0.28 0.5-0.5 4.18s-5.69-0.22-8.79-0.22c-6.12 0-12.09 0.58-12.09 0.58zm-7.78-20.59h5.18c1.52 0 3.82-0.15 5.33-0.22l-4.63-17.49"/>
<path d="m48.81 44.1v-14.33c0-3.24-0.72-4.25-3.09-4.25-0.58 0-1.37 0.07-1.37 0.07l-0.36-0.5 0.43-3.6c6.12-1 13-2.45 13-2.45l0.65 0.65a53 53 0 0 0-0.72 6.77l0.43 0.28c3-4.53 6.84-7.12 10.08-7.12a14.63 14.63 0 0 1 2.52 0.21l0.29 0.58s-1.15 7.2-1.44 13l-4.61 0.29c0-4.54-0.36-5.69-2-5.69s-3.39 1.22-4.9 3.24c0 0-0.65 12.6-0.65 13.9 0 2.52 0.65 3.31 2.81 3.31 1.3 0 3.6-0.22 3.6-0.22l0.22 0.44-0.8 4.75s-5.9-0.29-9.28-0.29c-4.4 0-9 0.29-9 0.29l0.58-4.39c2.82-0.19 3.61-1.2 3.61-4.94z"/>
<path d="m68.42 37.47c0-10.73 7.27-18.36 17.49-18.36a27.94 27.94 0 0 1 9.15 1.44l0.29 0.65a71.53 71.53 0 0 0-1.59 11.09l-4.61 0.29v-2.38c0-3.31-1.65-5.11-4.53-5.11-4.47 0-6.91 3.38-6.91 9.58 0 7.92 2.88 12.24 8 12.24a17.67 17.67 0 0 0 7.7-2.09l0.51 0.21 1.15 3.68s-6.48 5.32-10.8 5.32c-9.85-0.03-15.85-6.33-15.85-16.56z"/>
<path d="m92.88 37.54c0-10.94 7-18.43 17.35-18.43 9.36 0 15.12 6.34 15.12 16.42 0 10.94-7 18.5-17.28 18.5-9.22-0.03-15.19-6.55-15.19-16.49zm23 1.3c0-9.14-2.67-13.68-7.28-13.68-4.1 0-6.33 3.31-6.33 9.79 0 9.15 2.66 13.68 7.27 13.68 4.07 0 6.31-3.31 6.31-9.79z"/>
<path d="m137.42 20.62h-0.57c-0.07 2.6-1.66 24-1.66 25.71 0 1.58 0.72 2.3 2.31 2.3l2.44-0.07 0.44 0.36-0.8 4.54c-1.51-0.07-6.33-0.29-8.42-0.29a57.34 57.34 0 0 0-7.13 0.58l0.43-4.68c2.81-0.29 3.82-1.52 4.4-5.19 0.36-3.17 2.88-27.36 2.88-29 0-2.59-1.16-3.31-5.48-3.67l-0.36-0.43 0.65-4.18c2.38 0.15 7.06 0.36 9 0.36 2.31 0 6.12-0.21 7.64-0.29 4.1 14.48 8.28 27.08 9.21 30.18h0.58c0.86-3 5.18-15.63 9.65-30 1.44 0 4 0.14 6.26 0.14 0.79 0 1.59-0.07 2.23-0.07 2.31 0 6.7-0.36 7.35-0.43l0.29 0.29-0.44 4.32c-4.1 0.36-5.32 1.22-5.32 3.82 0 3.09 1 18.5 1.72 27.07 0.58 5.26 1.23 6.62 3.53 6.62 0.79 0 1.8-0.14 2-0.14l0.29 0.36-0.65 4.54c-0.87 0-4.75-0.22-7.27-0.22-3.17 0-9.94 0.5-10.23 0.58l0.5-4.68c2.81-0.36 4-1.37 4-3.6s-1.44-19.95-1.51-24.85h-0.65c-2.6 7.2-7 19.73-11.24 33.05l-4.89 0.65c-4.31-13.95-8.56-26.3-11.18-33.68z"/>
<path d="m196.34 48.49-0.58-0.22c-2.88 3-6.12 5.48-7.92 5.48-5.61 0-9.86-4.47-9.86-10.44a5.94 5.94 0 0 1 4.18-6l13.89-3.24 0.08-1.73c0-4.1-2.31-6.55-6.2-6.55-2.66 0-6 1.51-8.42 3.38l-0.65-0.29-1.22-4.32c4.17-2.37 10.72-5.47 13.17-5.47 8.36 0 12 4.25 12 9.79 0 2.45-1.44 11.6-1.44 14.84 0 1.8 1 2.95 2.59 2.95a6.83 6.83 0 0 0 3.45-1.22l1.01 1.55c-1.44 2.59-4.32 6.33-6.91 7-4.22 0-6.74-1.91-7.17-5.51zm-0.65-3.67 0.22-6.84-7.71 2.16a2.11 2.11 0 0 0-1.72 2.37 4.08 4.08 0 0 0 4 4.4 9.78 9.78 0 0 0 5.21-2.09z"/>
<path d="m235.8 23.65-0.29 0.43a9.92 9.92 0 0 1 2.88 7.13c0 7.34-6.55 12.82-15.48 12.82a19.35 19.35 0 0 1-4.68-0.58c-1.23 0.94-1.73 1.66-1.73 2.45 0 5.18 24.26 0.07 24.26 11.3 0 6.84-9.28 13.4-19.08 13.4-7.63 0-12.67-4-12.67-10.16a38.79 38.79 0 0 1 7.2-5.25v-0.51c-4.54-0.79-7.2-3.45-7.42-7.34a32.73 32.73 0 0 1 5.91-4.83v-0.43a10.77 10.77 0 0 1-5.47-9.72c0-7.63 6.33-13.32 14.9-13.32 3 0 5.19 0.72 7.42 0.72a63.56 63.56 0 0 0 10.08-2.38l0.43 0.29-0.93 5.55c-1.81 0.21-3.89 0.36-5.33 0.43zm-17.86 37.15c0 2.81 2.37 4.47 6.48 4.47 4.75 0 8.35-2.31 8.35-5.33 0-2.31-1.87-2.95-12.1-4.32a7.17 7.17 0 0 0-2.73 5.18zm11.66-28.51c0-5-2.37-7.92-6.19-7.92-3.45 0-5.33 2.52-5.33 7 0 4.9 2.31 7.85 6.12 7.85 3.46 0.05 5.4-2.39 5.4-6.93z"/>
<path d="m237.52 37.47c0-10.44 7.28-18.36 17-18.36 8 0 12.09 4.11 12.09 12.24a18.24 18.24 0 0 1-0.5 4l-0.86 0.87h-18.65c0.14 7.06 3.52 10.8 9.21 10.8a21.67 21.67 0 0 0 8.57-2.16l0.5 0.29 1.16 3.53c-3 2.3-8.43 5.32-12.24 5.32-10.09 0-16.28-6.3-16.28-16.53zm18.9-5.76c1.15-0.07 1.37-0.36 1.37-1.65 0-3.53-1.59-5.33-4.54-5.33-3.74 0-6.19 2.59-6.69 7.56z"/>
</g>
<g fill="#1273eb">
<path d="m148.94 90.765v-32.855h7.4074v12.648h11.338v-12.648h7.4578v32.855h-7.4578v-13.706h-11.338v13.706z"/>
<path d="m180.91 90.765v-32.855h9.2718q3.7793 0 6.8027 0.95742 3.0234 0.95742 5.1902 2.973 2.1668 1.9652 3.3258 5.039 1.159 3.0738 1.159 7.3066 0 4.2328-1.159 7.357-1.159 3.1242-3.2754 5.1902-2.1164 2.0156-5.0894 3.0234-2.9226 1.0078-6.5508 1.0078zm7.4074-5.9965h1.4109q2.1164 0 3.8297-0.55429t2.9226-1.7637q1.2094-1.2598 1.8644-3.2754 0.70546-2.0156 0.70546-4.9886 0-2.9226-0.70546-4.8879-0.65508-2.0156-1.8644-3.1746-1.2094-1.2094-2.9226-1.7133t-3.8297-0.5039h-1.4109z"/>
</g>
</svg>
