<svg viewBox="0 0 128 128" xmlns="http://www.w3.org/2000/svg" >
 <defs>
  <style>.cls-1,.cls-2{fill:#fff;fill-rule:evenodd}.cls-2{fill:#786956}</style>
 </defs>
 <path class="cls-1" d="m70.482 0.038948c5.5733-0.081753 11.262-0.15859 15.621 1.1486 5.9792 1.7929 9.5267 5.639 14.013 8.8444 9.7762 6.9835 19.215 14.363 21.939 28.37 1.242 6.3849-1.6497 15.249-3.3308 19.181-0.72553 1.6978-1.9989 3.3514-2.1829 5.5131 1.9957 3.73 3.7176 7.8031 4.5947 12.864 0.87086 5.0225-0.79976 10.404-1.9529 14.127-4.1711 13.471-14.774 27.596-32.391 21.478-3.4268 3.9768 0.04663 11.335-2.1825 14.587-0.65528 0.95657-1.779 1.2828-3.1013 1.6079-7.0851 1.7438-6.6208-6.5831-12.405-7.1205-1.0663 1.4343-3.6889 2.8185-6.0878 1.8379-3.1033-1.2702-4.3767-3.8911-8.3852-4.5947-1.9597-0.34394-3.6918 0.47359-4.9392 1.034-4.5319 2.0334-13.747 3.7489-19.182 1.4929-2.7351-1.1353-4.7933-4.3417-2.7567-7.6955-3.697-5.0516-6.1347-8.3149-8.0406-15.506-6.2935-1.3817-10.399-3.9457-12.52-9.4184-4.8241-12.446 2.5673-29.218 9.1894-34.458 2.0037-1.5854 4.0991-3.3516 7.3513-3.6755 1.504-19.297 6.8013-30.066 18.493-39.166 3.2722-2.5469 6.1121-5.4773 10.223-7.236 3.3884-1.4489 7.724-2.0095 11.716-2.7562z" stroke-width=".10454" data-name="Color Fill 1"/>
 <path id="logo" class="cls-2" d="m72.778 4.6406c4.3585-0.030004 8.6569-0.014532 12.002 0.99087 1.7157 0.51561 3.3168 1.1429 4.716 1.9817 1.062 0.63667 1.9603 1.4427 2.9239 2.1704l4.2208 3.1614c2.7152 1.9426 5.22 4.0786 7.8051 6.1339l2.8531 2.6188c1.4492 1.1696 2.9017 2.7993 4.0563 4.2702 2.0877 2.6612 4.142 5.3676 5.2816 8.9886 0.35127 1.1141 0.51854 2.2816 0.73076 3.5624q0.0361 0.75491 0.0711 1.5099 0.0126 0.73129 0.0241 1.4627c0 1.2003-8e-3 2.3704-0.18923 3.4209-0.24149 1.4101-0.31049 2.7063-0.63667 3.9871-0.8144 3.2-1.8954 6.0463-3.0652 8.8943q-0.98951 2.2883-1.9811 4.5769c-0.17982 0.38315-0.71926 1.282-0.51854 1.5807 0.86563 0.4234 1.9853 2.2117 2.5237 3.067 1.2911 2.0551 1.9958 4.3386 2.5697 7.1956 0.21013 1.0454 0.0763 2.1139 0.25926 3.2557 0.15682 0.9801 0.0805 2.9802-0.07 3.8928l-0.26031 2.9018c-0.39936 2.1273-0.74854 4.1086-1.3434 5.9925-2.3292 7.3797-6.7598 13.021-13.205 16.302-1.5132 0.77049-3.1277 1.3172-4.9518 1.817-0.7062 0.19341-1.7416 0.46627-2.7117 0.30632-1.9714-0.32514-3.4305-0.72449-4.999-1.3685-0.84461-0.34605-2.2365-1.0737-3.2069-1.1552-2.5844 1.4093-4.4928 5.6621-5.0932 9.1539l0.18818 8.1158a1.5297 1.5297 0 0 1-0.91999 0.023c-0.50788-0.12754-0.64723-0.48613-1.1131-1.1824a19.125 19.125 0 0 0-1.7165-2.0501c-1.7006-1.5044-3.3287-3.0339-5.7063-3.8692-1.0322-0.36172-2.6166-0.53003-3.7256-0.0941-1.1456 0.45059-1.7326 1.2274-2.5467 1.9822h-0.04715c-0.58398-0.75063-1.5764-1.3559-2.358-1.9111-2.6675-1.8943-6.7388-3.7667-11.507-2.6429-1.8346 0.43281-3.4964 1.3758-4.8927 1.7333-1.5107 0.38786-2.4107 0.55304-3.5963 0.7684-1.3126 0.17563-1.8902 0.26763-3.9486 0.45163-1.3441 0.12336-3.5306 0.069-4.8703-0.0742-0.65664-0.0711-1.3479-0.15472-2.0751-0.48822a0.81283 0.81283 0 0 1-0.44797-0.59799h0.02363c0.08813 0.28645 2.2405 0.50077 3.089 0.4255a28.193 28.193 0 0 0 3.0621-0.42654c1.6552-0.33245 3.0918-0.8834 4.3655-1.8149 3.7752-2.761 5.9695-7.0787 7.8049-11.796 0.6326-1.6254 0.94811-3.423 1.4619-5.1436 0.49031-1.6413 0.77363-3.3054 1.1082-5.1668a16.054 16.054 0 0 0 0.2324-2.2637c0.01495-0.72595 0.17062-0.77478 0.58043 0.17417 0.60082 1.2408 1.2325 2.761 1.498 4.6376h0.02363c0.07203-0.32942 0.21526-0.65622 0.2829-1.0381 0.15964-0.90044 0.11123-1.7193 0.05227-2.8447-0.13152-2.1295-0.25885-3.105-0.33559-4.115-0.02363-0.51112-0.10517-1.0056-0.1288-1.5167-0.17678-1.0823-0.25091-2.0063-0.4372-3.084-0.23773-1.3784-0.6097-2.8427 0.42445-3.6568a5.0485 5.0485 0 0 1 1.6288-0.84848c2.4359-0.74728 5.7654 0.25728 7.9465 0.70776 0.65779 0.13591 1.629 0.32409 2.4523 0.1887 0.93107-0.15295 1.7902-0.16016 2.5937-0.40103 3.3212-0.99557 5.8996-2.9814 7.8286-5.379 0.87451-1.0873 2.1301-1.7471 2.6881-3.1614 1.1762-2.9811-0.29272-8.0763-1.0611-10.522-2.1881-6.9603-7.0906-12.04-13.559-14.698-1.3975-0.57426-2.8926-0.98136-4.5745-1.3212l-1.8156-0.16508-1.7214-0.02363-1.6034 0.16518c-1.8922 0.37939-3.6032 0.81628-4.8574 1.8166-1.3898 1.1082-2.7262 3.9851-4.6453 4.341q-0.2002-0.63678-0.40082-1.274c-0.35859-1.1857-0.54196-2.4533-1.4619-3.067-0.96494-0.64368-2.7809-0.4118-3.8907-0.07078-2.9601 0.90953-4.9146 2.357-6.6259 4.4825l-1.7686 1.8167c-1.7549 2.179-3.2126 3.2806-3.7963 6.7474-0.08677 0.51498-7e-3 1.2055 0.07078 1.6279 0.29408 1.5987 0.61085 2.9168 1.0141 4.3881 0.11876 0.43344 0.49596 1.656 0.3773 2.1705-0.09712 0.42089-0.47128 0.73881-0.70734 1.038-0.80593 1.0215-1.8518 1.8328-2.641 2.8547-1.6435 2.1282-2.8463 5.2826-3.6077 8.2573-0.4303 1.681-0.55565 3.6216-0.87022 5.5032-0.03136 0.87284-0.08458 1.6238-0.11604 2.4966 0.02227 2.1994-0.05081 2.0757 0 3.3093 0.03189 0.77457 0.24463 3.5313-0.19278 3.7427-0.39361 0.22582-1.3608-0.0072-1.7685-0.09409-1.7955-0.38399-3.0888-0.91392-4.3152-1.8167-2.0863-1.5358-3.3646-3.7864-4.1029-6.6766-1.0884-4.2609-0.64587-10.502 0.73097-14.037 0.54258-1.3932 1.0168-2.6841 1.7449-3.8454 0.22142-0.35325 0.51749-1.1068 1.0141-1.1562l0.02352 0.02363c0.41818 0.21432 0.35378 1.1862 0.35367 1.8167 0 1.4813-0.25456 3.1118 0.11792 4.4353 0.81942-0.0229 0.86176-1.1107 1.0611-1.7459 0.38587-1.2296 1.238-3.8602 2.6881-3.8927v0.04715c0.21191 0.5084-0.329 1.8769-0.44808 2.3121-0.41922 1.533-0.45058 3.3825-0.44797 5.1902 1e-3 0.688-0.07799 2.4481 0.25937 2.7368l0.04715-0.04715c0.99254-0.49439 1.3103-3.346 1.6978-4.5769 0.58837-1.8689 1.2003-3.7663 2.1222-5.3082 0.82015-1.3719 1.859-2.5214 2.688-3.8692 0.36967-0.60092 1.6703-2.6665 0.96682-3.6799-0.29272-0.42215-1.1266-0.18494-1.6035-0.04715a5.1227 5.1227 0 0 0-1.5327 0.70776c-0.24819 0.17678-0.48007 0.53223-0.80164 0.61336-0.3519 0.08876-0.60636-0.16497-0.77812-0.2831 0.02467-0.80739 0.9342-1.2431 0.80164-2.0761-0.32471-0.39727-1.0201-0.11678-1.344 0.09409-0.7385 0.48164-1.2984 1.1586-1.9807 1.6986-0.22738 0.17992-0.50181 0.52105-0.87242 0.47181v-0.02352q0.40061-0.68414 0.80164-1.3684c0.9618-1.3583 2.3374-2.792 3.9379-3.4918 2.0523-0.8973 4.3142-0.37291 5.4467-2.2885 0.88601-1.4982 0.68874-3.9405 1.0611-5.9688 0.57123-3.1123 0.78889-6.3432 1.4383-9.3189l0.51875-2.5718a33.377 33.377 0 0 1 3.089-7.2428c0.60332-1.0357 1.0904-2.109 1.7686-3.067 1.0141-1.4332 2.1954-2.7438 3.2776-4.105 1.3764-1.7315 3.093-3.5922 4.8103-4.978 2.1904-1.7675 4.131-3.8912 6.5549-5.4258 2.6858-1.7007 5.6994-2.8593 9.2435-3.7515 1.4236-0.35838 2.9393-0.49136 4.4566-0.75491l4.7161-0.40061 1.4619-0.070776zm-17.897 27.532a1.7733 1.7733 0 0 0-1.4619-1.7218c-0.38472-0.07057-0.64023 0.11186-0.89605 0.1887 0.3176-1.4858 2.6651-2.1672 4.716-1.793 3.4758 0.63427 5.4442 2.6868 9.3613 2.76-0.36684-2.7711-2.1927-6.1019-4.0793-7.3607-0.74289-0.49564-1.8658-1.0627-3.0654-0.84932 0.08541-0.48394 0.41201-0.7823 0.73097-1.0381 0.26795-0.21484 0.48676-0.48759 0.82527-0.63688 1.7145-0.75658 4.4303-0.34928 6.1073 0.16508 3.1315 0.96055 5.8307 2.4162 8.2294 4.1287 0.98198 0.70107 1.8242 1.5624 2.7588 2.3121 1.1342 0.90953 2.1222 1.8955 3.4899 2.5951 0.38681 0.1978 0.97142 0.63427 1.6034 0.51906 1.3121-0.2393 0.86176-2.3195 0.51875-3.2793-0.14636-0.40877-0.56213-0.88862-0.02363-1.0141 0.9042-0.21181 1.8702 0.15253 2.4523 0.44828 1.7759 0.90211 3.0195 2.3659 4.1266 3.9398 4.4467 6.3225 4.958 17.042 5.6355 27.06l1.3913 0.47181c0.87033 0.2762 1.7982 0.47045 2.5466 0.87294q0.2946-0.86102 0.58952-1.7223c0.3797-1.1971 0.68027-2.4341 0.96682-3.7275 0.54896-2.4789 0.64368-5.0678 1.0846-7.6911l0.16507-2.8311 0.0471-2.1705-0.0236-1.7694-0.0472-2.0525v-2.9495l-0.0471-2.312c-0.23114-1.4323-0.13768-2.8548-0.42444-4.1523-0.89092-4.0312-2.5274-6.9649-4.6924-9.6728a18.269 18.269 0 0 0-2.7117-2.7131c-2.2461-1.8086-4.2878-3.8885-7.1918-5.0487-3.1921-1.2754-8.2972-1.0992-11.955-0.33025-1.2318 0.25896-2.4809 0.37008-3.5842 0.70776-5.2837 1.6172-8.9372 4.4584-12.78 7.4551-3.8346 2.99-8.2381 7.1023-10.304 11.796-0.42288 0.96076-0.69752 1.9557-1.0611 3.0199 0.55555-0.01265 1.0827-0.19748 1.5562-0.33036l3.3012-0.8259c0.6627-0.18358 1.3509-0.44389 2.1458-0.44808zm-15.987 19.935h0.07078q-0.23585 0.41274-0.4716 0.8259l-0.82475 1.7693c-0.73108 1.7647-1.0977 3.6705-1.6034 5.7093l-0.4717 2.4777h-0.11782a1.8617 1.8617 0 0 0-1.0611 0l-0.04715-0.04725c-0.56266-0.78408-0.61995-2.9508-0.3773-4.1287 0.55293-2.6844 1.5801-4.801 3.5606-6.0396 0.40709-0.2553 0.89072-0.33046 1.3435-0.56663zm22.59 0.70776c0.5131-0.0036 0.90148 0.12629 1.297 0.21233q-0.22414 0.60155-0.44808 1.2032l-1.0846 2.6899c-0.73181 1.7303-1.48 3.4238-2.2163 5.096-0.41378 0.93954-0.83635 1.9528-1.4856 2.6659-1.0977-0.13173-1.5545-1.2719-2.4994-1.6042-0.13998-0.93734 0.59339-2.8043 0.8489-3.6096 0.80279-2.5305 1.5316-4.6932 3.5606-5.9695a4.8364 4.8364 0 0 1 1.344-0.58973zm-20.538 10.286c-1.2008 6.27e-4 -2.401-0.04297-3.5841-0.02352v-0.02363c0.57206-1.2252 1.4218-1.9884 3.0182-2.1941 0.43564 0.57332 0.56851 1.1788 0.5659 2.2412zm6.7439-0.77844c0.55335-0.01045 2.6437 0.14082 2.8296 0.33026q0.11772 0.61336 0.23575 1.2267c0.04955 0.2277 0.26962 1.0231 0.11792 1.2033-1.1966 1.2764-3.9446-0.40239-4.9282-0.8259l-1.2262-0.40103 0.04715-0.04715c0.2646-0.73181 1.1994-1.1692 2.0043-1.3684zm47.183 2.949c0.0138-1.3562-1.1838-1.6004-2.358-1.793h-0.80175l-0.9432 0.8259c-2.6724 2.6727-4.4617 5.9443-5.6355 10.145-0.32461 1.1615-1.0447 3.0223-0.21222 4.1287 0.12786 0.16988 0.27087 0.3795 0.51875 0.42466 0.41514-0.41128 0.76788-1.1918 1.6742-1.0141 0.93766 0.83342 0.72522 3.5261 1.0375 5.0487l0.35378 1.2976 0.02352-0.04715c0.34186-0.47202 0.47839-1.1835 0.68382-1.7694 0.64305-1.8338 1.0553-3.889 1.6506-5.7801 0.85601-2.7198 2.3606-4.6443 3.7728-6.771a13.151 13.151 0 0 0 1.5326-3.0434c0.10454-0.30213 0.36873-0.92814 0.283-1.274-0.18619-0.44379-0.94194-0.39173-1.5799-0.37803zm-59.586 2.0998c3.6262-0.06565 6.5262 2.0153 8.1116 3.987 0.42518 0.52899 0.93096 1.0078 1.344 1.5571a19.528 19.528 0 0 1 3.0653 6.0161c1.6806 5.384 0.65361 13.006-0.84879 17.765-0.40542 1.2841-0.98355 2.4757-1.4856 3.6568-0.96066 2.2602-1.5868 4.1064-4.2915 4.6478a5.9291 5.9291 0 0 1-1.9572 0.023q-0.71916-0.16466-1.4384-0.33036c-1.438-0.4531-2.4174-1.2326-3.5133-2.0048-0.30401-0.21432-1.0977-0.86542-1.6978-0.70777-0.58032 0.15243-0.87064 1.1984-1.0846 1.7459l-0.42445 1.3212c-0.65936 2.6418 3.4583 3.475 5.0933 4.2706l-0.02363 0.047c-0.5568 0.23418-0.91863 0.72868-1.5799 0.89595-0.93473 0.23627-1.9759-0.0512-2.6174-0.33036-1.9738-0.85622-3.0046-2.7662-4.0793-4.5299a30.869 30.869 0 0 1-2.4759-4.9774c-1.4009-3.6059-1.5696-8.3494-1.5799-13.306-4e-3 -1.9693-0.21567-4.2246 0.09409-6.0636 0.21494-1.2745 0.31144-2.4941 0.6602-3.6096 1.2329-3.9434 3.7123-7.0488 6.9797-8.9651a9.2008 9.2008 0 0 1 2.3815-0.91999zm64.798 0.47181-0.58952 0.14155a5.4645 5.4645 0 0 0-1.3205 0.75491c-0.78952 0.60542-1.2716 1.4806-1.7921 2.3592-1.452 2.4515-2.286 5.3637-3.0653 8.5168-0.30642 1.2395-0.34782 2.553-0.5659 3.8927-0.099 0.60813-0.1219 1.471 0.33005 1.6518 0.58419 0.23334 1.0713-0.36277 1.2497-0.66051 0.23951-0.39957 0.28624-0.98386 0.42445-1.4863l0.8489-3.2322c0.89281-2.8388 2.2873-4.8796 3.9142-6.9361 0.71602-0.90514 1.779-1.4788 2.3816-2.5008 0.76714-1.3017-0.4255-2.5191-1.8156-2.5011z" stroke-width=".10454"/>
</svg>
