<svg viewBox="0 0 128 128" xmlns="http://www.w3.org/2000/svg">
 <rect width="128" height="128" fill="#f8de0f"/>
 <path d="m118.11 30.697c0.192 0.91429 0.30629 1.8834 0.50286 2.8206 0.864 3.0949 0.94171 6.4 1.7966 9.4903 0.32 1.5726 0.51657 3.168 0.81371 4.7406 0.10058 0.56686 1.1749 0.53486 0.91429 1.2206l-0.45714 0.45714c-2.4-0.16457-4.8046-0.10971-7.2046-0.04114-0.33372-0.49829-0.39772-1.3714 0.45714-1.312 0.11428-0.66743 0.224-1.3394 0.37486-2.0023 0.85485-3.104 0.91428-6.4 1.7966-9.4903 0.352-1.9611 0.57143-3.9451 1.0057-5.8834z"/>
 <path d="m8.8914 31.15c0.19657 0.41143 0.34743 0.84114 0.51657 1.2663 0.45714 2.7429 0.91429 5.4857 1.3714 8.256 0.64914 2.4503 0.91428 4.9737 1.3714 7.4697l0.70857-0.032c0.07314 0.352 0.13714 0.704 0.20114 1.0606a61.6 61.6 0 0 1-7.7714 0.23314l-0.26514-0.736a5.2114 5.2114 0 0 0 1.0926-1.4949c0.416-2.7429 0.88229-5.4354 1.3349-8.1509 0.64457-2.5874 0.86857-5.2617 1.44-7.872z"/>
 <path d="m114.64 49.527c2.2217-0.10971 4.4526-0.09143 6.6788 0v14.629c0.576 0.08229 1.312-0.19657 1.7829 0.19657a4.5714 4.5714 0 0 1-1.2114 4c-0.0411 11.282 0 22.56 0 33.829 0.42515 0.14629 0.84572 0.31086 1.2617 0.48457q0 0.53943 0 1.0834c-0.32915 0.18743-0.65372 0.37943-0.97829 0.56686 0.48 4.192 0.87772 8.3886 1.312 12.585a4.7131 4.7131 0 0 0 0.288 1.5177c0.23314 1.888 0.37943 3.7806 0.60343 5.6686-4.2057 0.064-8.416 0-12.626 0.0274a2.3954 2.3954 0 0 0-0.45714-0.992l-0.10057 0.992q-54.4 0-108.8 0a5.0651 5.0651 0 0 1 0.29714-1.8286c0.53943-4.8091 0.97829-9.6274 1.5131-14.437a21.321 21.321 0 0 0 0.50743-3.5794l-0.91429-0.21942a2.0891 2.0891 0 0 1 0-1.6046l1.0514-0.21485q0-16.741 0-33.481c0.032-0.98286-1.0469-1.5406-1.2114-2.4777a18.35 18.35 0 0 1-0.050286-2.0709c0.60343-0.041143 1.2114-0.059428 1.8286-0.077714v-14.295c2.2857-0.02743 4.5714 0 6.8251 0v14.318c0.608 0 1.216 0 1.8286 0.08229v1.4674c0.04114 1.2343-1.2663 2.0709-1.12 3.3234v33.129a2.1989 2.1989 0 0 1 1.1977 1.0469l-0.36114 0.88228-0.71772 0.18286c0.34743 3.616 0.69486 7.2366 1.1429 10.839l1.0971-0.0274v-10.843h3.7531v-21.298c0-0.81828-0.65828-1.44-0.81371-2.2171-0.04114-0.49371-0.032-0.99657-0.032-1.4903 0.45714-0.032 0.93714-0.05943 1.4034-0.08229v-9.5771a5.9429 5.9429 0 0 0-0.50743-1.8971l0.74971-0.18286c0.48457-2.4137 0.70857-4.8823 1.3714-7.2594 0.27429-1.7143 0.58514-3.424 0.82286-5.1429l0.32457 0.37943a6.0526 6.0526 0 0 0 0.37486 1.7326c0.64457 3.04 0.87314 6.1806 1.664 9.1794 0.06857 0.32457 0.13257 0.64914 0.20114 0.97829l0.63543 0.56686a1.44 1.44 0 0 1-0.62171 0.736v10.487c0.42057 0 0.84571 0.05486 1.2709 0.08686a4.8869 4.8869 0 0 1-0.79086 3.1314c-0.128 4.8-0.04114 9.6-0.04114 14.418 2.1531 0.04114 4.3063 0 6.4594 0.02743a15.973 15.973 0 0 1 0.18286-1.9291h2.2446v-6.0983l-0.82743-0.05486a1.5634 1.5634 0 0 1 0.81372-0.61257 63.968 63.968 0 0 0 0.15086-6.8571h4.6857c0.08229-0.31543-0.04571-0.73143 0.25143-0.95543 0.51657-0.04571 1.0331-0.02286 1.5497-0.02743a25.143 25.143 0 0 1 12.448-11.886 19.159 19.159 0 0 1 4.2651-1.5726 26.222 26.222 0 0 1 5.8789-1.0103v-1.7371a9.2297 9.2297 0 0 0 1.12-1.9109c-0.68571-1.0103 0.55772-2.0891 0-3.1726 0.14172-0.576 0.31086-1.1474 0.50286-1.7097 0.032 0.42971 0.064 0.85486 0.096 1.2846 0.32457 0.32457 0.16 0.72229 0.04572 1.0834 0.10971 0.37028 0.18743 0.74971 0.26971 1.1291a1.0789 1.0789 0 0 1-0.059437 1.2846c0.39772 1.2526 1.6 2.2857 1.1017 3.7349a37.838 37.838 0 0 1 5.1291 0.78171 34.743 34.743 0 0 1 5.0286 1.7783 25.449 25.449 0 0 1 10.235 8.3474 32.539 32.539 0 0 1 2.2583 3.5886h1.4811c0.27886 0.23314 0.16 0.64 0.24229 0.95543h4.6309c0.11886 2.3131 0.02286 4.6354 0.05486 6.9531h0.69486v0.544h-0.69943c0 2.0389 0.03657 4.0731-0.02286 6.112h2.4137a17.088 17.088 0 0 1 0.18286 1.9246h3.7989q0.096-7.1954 0-14.4a5.1383 5.1383 0 0 1-0.81372-3.2c0.45714-0.032 0.93714-0.05486 1.408-0.07314v-9.6c0.0914-0.55771-0.32-0.95543-0.608-1.3714l0.87314-0.62628c0.28343-2.1669 0.65829-4.3291 1.056-6.4731 0.59429-2.0343 0.69486-4.1829 1.184-6.2491 0.12343 0.96914 0.27886 1.9383 0.48915 2.8937 0.67657 2.6834 0.94628 5.4583 1.4537 8.1829 0.16 0.736 0.13714 1.7509 0.99657 2.0526-0.0411 0.40229 0.0549 0.91429-0.42514 1.056-0.032 3.3829 0 6.7657 0 10.153h1.2571a4.6309 4.6309 0 0 1-0.23771 2.1577 4.1143 4.1143 0 0 0-0.59886 1.5771q0 10.651 0 21.307c1.2069 0 2.4137 0 3.6206 0.0549 0 3.6068 0.0274 7.2137-0.0274 10.821l1.3714-0.0731c0.29257-3.5749 0.62629-7.1589 1.1749-10.697-0.72686-0.0686-1.0789-0.71314-1.2434-1.3714a8.1189 8.1189 0 0 1 1.344-0.82742v-33.408c0.0594-0.72229-0.62171-1.1749-0.87771-1.7966a5.0286 5.0286 0 0 1-0.37943-2.7794c0.64914 0 1.2983 0 1.952-0.05943q0-7.2823 0-14.565m-41.435 33.833c-0.096 1.4491 0 2.9074-0.032 4.3611h2.9211c-0.02743-1.4674 0.05486-2.9349-0.032-4.3977a1.632 1.632 0 0 0-1.2389-1.3714 1.8926 1.8926 0 0 0-1.6183 1.3714m-36.645-1.088c-0.91429 0.51657-0.64 1.696-0.68114 2.5646a14.917 14.917 0 0 1 2.5143-0.15086 6.6423 6.6423 0 0 0-0.13714-1.9794c-0.42514-0.42514-1.1291-0.94171-1.696-0.42971m3.2594-0.07771c-1.1109 0.45714-0.84114 1.8286-0.89143 2.7931a3.968 3.968 0 0 1 1.888 2.7749h0.77714c-0.032-1.5314 0.05029-3.0629-0.02743-4.5714-0.27429-0.61714-1.024-1.4811-1.7463-0.96457m2.7657 0.05943a3.072 3.072 0 0 0-0.45714 1.3211v4.1829h2.6606v-4.6857a1.632 1.632 0 0 0-2.2217-0.81829m2.8069 1.0194c-0.10514 1.4903 0 2.9897-0.04114 4.4846h2.784c-0.02286-1.4857 0.04572-2.9714-0.02286-4.4571a2.8251 2.8251 0 0 0-1.344-1.3714c-0.57143 0.27429-1.3303 0.59429-1.3714 1.3349m3.296 0.288v4.1966h2.784v-4.6171c-0.42514-0.48457-0.87314-1.2023-1.6183-1.0926a1.4126 1.4126 0 0 0-1.1611 1.5177m3.3234-0.49829c0.02743 1.5634 0 3.1314 0 4.6949h2.9257v-3.8857a1.9611 1.9611 0 0 0-0.98286-1.7051c-0.79086-0.39314-1.5634 0.24686-1.952 0.91429m3.6114-0.288a22.162 22.162 0 0 0-0.23314 4.9737h3.0309c-0.032-1.4949 0.064-2.9943-0.04114-4.4846a1.5223 1.5223 0 0 0-2.7429-0.49828m3.68-0.32457a17.957 17.957 0 0 0-0.32457 5.3074h2.9257v-4.4206c0-0.384-0.26057-0.672-0.43429-0.98286l-1.1063-0.33828c-0.352 0.15086-0.69943 0.29714-1.0514 0.45714m3.2 1.024c-0.08686 1.4217 0 2.8526-0.032 4.2789h3.2a20.462 20.462 0 0 0-0.26514-4.9874 1.6091 1.6091 0 0 0-2.9029 0.70857m3.6571-0.23772a44.507 44.507 0 0 0-0.08686 4.5211h3.0537c0-1.4766 0.032-2.9486 0-4.4251-0.05029-0.8-0.87314-1.1931-1.5451-1.3714-0.56229 0.30628-1.3394 0.52571-1.4217 1.2754m3.5611-0.07314c-0.08686 1.5269 0.02743 3.0629-0.05943 4.5714h2.9531c-0.032-1.5406 0.05943-3.0811-0.032-4.6171-0.10972-0.75886-0.864-0.95086-1.4537-1.2114-0.50286 0.34743-1.1931 0.62172-1.408 1.2343m7.0674 0.39771v4.1966h2.6423v-4.1829a1.4491 1.4491 0 0 0-1.7326-1.5497 1.5543 1.5543 0 0 0-0.91429 1.4949m3.6343-1.1337a20.027 20.027 0 0 0-0.29714 5.3303h2.6469c-0.05029-1.504 0.08686-3.0126-0.05943-4.5074a1.3714 1.3714 0 0 0-2.2857-0.81828m3.0126 0.83657a16.914 16.914 0 0 0-0.05943 4.4983h2.5966c-0.02743-1.408 0.04571-2.816 0-4.2194a1.632 1.632 0 0 0-1.0149-1.4949 1.3714 1.3714 0 0 0-1.5086 1.2206m3.0766-0.21029c0.02743 1.568 0 3.1314 0 4.704h1.9109a7.424 7.424 0 0 0 0.74971-3.0583c0-0.91429 0-2.2354-1.0423-2.5646-0.73143-0.33829-1.2251 0.45714-1.632 0.91428m3.7806-0.69943c-0.992 0.69486-0.66743 2.0434-0.69943 3.0674a3.7349 3.7349 0 0 1 2.5966-0.76343 4.1143 4.1143 0 0 0-0.13714-1.8743c-0.30171-0.62171-1.2434-1.0651-1.76-0.42971m-48.768 6.5051h-0.77714v6.1166h0.96914c-0.02743-2.2857 0.05943-4.5486-0.05486-6.816l-0.14629 0.69029m46.112 0v6.1211h0.83657v-6.1074h-0.83657m-50.341 3.7531a14.03 14.03 0 0 0-0.11886 3.8857l0.33372 0.45714a11.799 11.799 0 0 0 0-4.384h-0.23314m54.258 0c-0.03657 1.3714-0.05486 2.7017 0 4.0503l0.512 0.17829c0-1.408 0.04571-2.816 0-4.2194h-0.512m-48.114 2.4046v26.971h0.83657q0-13.495 0-26.971h-0.83657m41.751 0.81829v25.632c-0.03657 0.37943 0.15543 0.59429 0.58057 0.64457 0.10971-6.6194 0-13.257 0.04571-19.863-0.19657-2.4503 0.20571-4.9189-0.11429-7.3646a0.864 0.864 0 0 0-0.51657 0.95543m-23.003 6.4183v6.4h4.3109c0-2.2446 0.04571-4.4892-0.02286-6.7337-0.21486-1.0057-1.0377-2.2263-2.2126-2.0434a2.2537 2.2537 0 0 0-2.0754 2.3863m-4.6949 2.016c-0.08686 1.4537 0 2.9211-0.032 4.3749h2.9943c0.05028-1.3029 0.07771-2.6057 0-3.9086-0.08229-0.58057-0.15086-1.2846-0.70857-1.6183a1.4811 1.4811 0 0 0-2.2857 1.1474m-20.347-1.1977c0 0.74515 0 1.4903 0.05943 2.2309l0.50743-0.33371v-1.8652l-0.55771-0.032m31.698 0.0869a8.3566 8.3566 0 0 0-0.52114 0.89143 27.726 27.726 0 0 0-0.14171 4.5714h3.0217c0.03657-1.3166 0.06857-2.6332 0-3.9497a2.8937 2.8937 0 0 0-0.84114-1.7828 3.104 3.104 0 0 0-1.5314 0.26514m22.706-0.0777v2.0846h0.55772v-2.0892h-0.55772m-54.4 7.9772v2.2857l0.55771-0.256c-0.13714-0.65835 0.36114-1.8286-0.56686-2.0069m54.4 0.0914v2.0251l0.52114 0.19658c0.032-0.74058 0.04114-1.4812 0.04114-2.2217h-0.56228m-44.768 2.3223c-0.09143 1.5406 0 3.0903-0.032 4.6354h2.784c0-1.4903 0.02743-2.976 0-4.4663 0.04572-0.55771-0.45714-0.91429-0.77257-1.2846-0.82743-0.0686-1.792 0.16914-1.9657 1.1109m5.3989 0.18285c-0.03657 1.4857 0 2.9669 0 4.4572h2.9211c-0.02743-1.5452 0.05486-3.0903-0.032-4.6309-0.224-0.97829-1.3029-1.1383-2.1486-1.1154-0.30171 0.38857-0.78171 0.74057-0.736 1.2937m5.1931 0.0457c0.16914 1.4629 0.05029 2.9394 0.08229 4.4114h2.9897a31.511 31.511 0 0 0-0.032-4.3794 1.4171 1.4171 0 0 0-1.7326-1.3257c-0.72229 0.0549-1.0651 0.71315-1.3074 1.2983m5.4857-0.28798v4.6994h3.0126v-4.1874a3.2 3.2 0 0 0-0.45714-1.3257 12.8 12.8 0 0 0-1.5909-0.22858q-0.45714 0.51658-0.91429 1.0423m5.9429-0.768a2.4731 2.4731 0 0 0-0.66286 1.5269v3.9269c1.0103 0 2.016 0.0229 3.0263 0 0-1.3714 0.06857-2.784 0-4.1737a2.6789 2.6789 0 0 0-0.84571-1.5451c-0.50286 0.0777-1.0926-0.0457-1.5223 0.27885m4.9143 0.98286c-0.04114 1.4949 0 2.9897 0 4.4846h2.784c-0.032-1.5451 0.05943-3.0903-0.032-4.6308-0.16914-0.93715-1.1291-1.1932-1.952-1.1154-0.31543 0.37485-0.82743 0.704-0.78629 1.2617m5.3211 0c-0.10514 1.4857-0.03657 2.976 0 4.4663q1.4994 0.0594 3.0034 0a36.955 36.955 0 0 0-0.07314-4.8732l-0.96914-0.82742a1.568 1.568 0 0 0-1.9291 1.184z"/>
</svg>
