<svg width="21" height="21" viewBox="0 0 256 256" xmlns="http://www.w3.org/2000/svg"><path d="M142.08 194.56c0 31.811-25.786 57.601-57.597 57.601-31.815 0-57.602-25.79-57.602-57.601s25.786-57.601 57.602-57.601c31.811 0 57.597 25.79 57.597 57.601" fill="#f60"/><path d="M256 113.92c0 31.807-25.786 57.601-57.597 57.601-31.815 0-57.601-25.794-57.601-57.601 0-31.812 25.785-57.606 57.601-57.606 31.811 0 57.597 25.794 57.597 57.606" fill="#fc0"/><path d="M115.2 112.64c0 31.808-25.785 57.602-57.601 57.602-31.807 0-57.597-25.794-57.597-57.601 0-31.811 25.79-57.606 57.597-57.606 31.815 0 57.601 25.794 57.601 57.606" fill="#0089cc"/><path d="M230.4 194.56c0 31.811-25.786 57.601-57.606 57.601-31.807 0-57.597-25.79-57.597-57.601s25.79-57.601 57.597-57.601c31.82 0 57.606 25.79 57.606 57.601" fill="#009939"/><path d="M185.6 61.438c0 31.811-25.79 57.602-57.601 57.602S70.398 93.249 70.398 61.438s25.79-57.601 57.601-57.601S185.6 29.627 185.6 61.438" fill="#bf0000"/><path d="M140.8 113.92c0 1.211.105 2.397.181 3.593 25.55-5.894 44.617-28.737 44.617-56.077 0-1.213-.105-2.403-.18-3.598-25.55 5.899-44.618 28.741-44.618 56.082" fill="#fc0007"/><path d="M148.4 142.44c9.927 17.353 28.58 29.079 50.005 29.079 8.731 0 16.979-2 24.397-5.48-9.922-17.354-28.576-29.08-50.005-29.08-8.731 0-16.979 2.001-24.397 5.481" fill="#1cd306"/><path d="M115.2 194.56c0 14.072 5.059 26.951 13.444 36.954 8.377-10.003 13.436-22.881 13.436-36.954s-5.059-26.951-13.436-36.954c-8.385 10.002-13.444 22.881-13.444 36.954" fill="#0f7504"/><path d="M34.792 165.53a57.333 57.333 0 0022.805 4.716c21.213 0 39.694-11.497 49.693-28.567a57.345 57.345 0 00-22.805-4.713c-21.213 0-39.698 11.498-49.693 28.564" fill="#0c5e87"/><path d="M70.646 56.579c-.136 1.604-.25 3.217-.25 4.86 0 27.318 19.039 50.14 44.559 56.06.13-1.604.245-3.218.245-4.856 0-27.318-19.035-50.148-44.554-56.064" fill="#6b0001"/><path d="M76.022 187.43h-9.01c-7.955 0-14.422-6.447-14.422-14.38V91.491c0-7.934 6.468-14.386 14.422-14.386h112.99c7.955 0 14.419 6.452 14.419 14.386v81.559c0 7.933-6.464 14.381-14.42 14.381h-38.49l-77.227 37.857 11.742-37.857z" fill="#fff"/></svg>
