<svg viewBox="0 0 158.75 238.12" xmlns="http://www.w3.org/2000/svg" xmlns:xlink="http://www.w3.org/1999/xlink">
 <defs>
  <filter id="b">
   <feGaussianBlur stdDeviation=".24338"/>
  </filter>
  <linearGradient id="linearGradient978" x1="25.153" x2="28.837" y1="16.954" y2="54.124" gradientUnits="userSpaceOnUse">
   <stop stop-color="#00b400" offset="0"/>
   <stop stop-color="#007800" offset="1"/>
  </linearGradient>
  <filter id="m">\
   <feGaussianBlur stdDeviation="2.73215"/>
  </filter>
  <filter id="o" x="-.13795" y="-.05116" width="1.2759" height="1.1023">
   <feGaussianBlur stdDeviation="3.25158"/>
  </filter>
  <filter id="n" x="-.12734" y="-.04723" width="1.2547" height="1.0944">
   <feGaussianBlur stdDeviation="3.00146"/>
  </filter>
  <filter id="l" x="-.28636" y="-.06738" width="1.5727" height="1.1348">
   <feGaussianBlur stdDeviation="2.14773"/>
  </filter>
  <filter id="k" x="-.13296" y="-4.0853" width="1.2659" height="9.1707">
   <feGaussianBlur stdDeviation="9.36225"/>
  </filter>
  <linearGradient id="a-6">
   <stop stop-color="#e7bc77" offset="0"/>
   <stop stop-color="#e7bc77" stop-opacity="0" offset="1"/>
  </linearGradient>
  <linearGradient id="i" x1="65.269" x2="64.283" y1="231.06" y2="284" gradientUnits="userSpaceOnUse">
   <stop stop-color="#692017" offset="0"/>
   <stop stop-color="#46150f" offset="1"/>
  </linearGradient>
  <linearGradient id="h" x1="88.013" x2="94.416" y1="41.805" y2="129.76" gradientUnits="userSpaceOnUse">
   <stop stop-color="#b88100" offset="0"/>
   <stop stop-color="#fecd7b" offset="1"/>
  </linearGradient>
  <linearGradient id="g" x1="107.5" x2="106.5" y1="28" y2="36.5" gradientUnits="userSpaceOnUse">
   <stop stop-color="#804d00" offset="0"/>
   <stop stop-color="#b98304" offset="1"/>
  </linearGradient>
  <linearGradient id="j" x1="98.5" x2="64.5" y1="993.86" y2="995.36" gradientTransform="matrix(1,0,0,1.2162,0,-965.81)" gradientUnits="userSpaceOnUse">
   <stop stop-color="#f0be63" offset="0"/>
   <stop stop-color="#b88100" offset="1"/>
  </linearGradient>
  <radialGradient id="b-8" cx="-197.15" cy="316.24" r="42.421" gradientTransform="matrix(-1.1182 .05513 -.09068 -2.5015 -764.72 1065.3)" gradientUnits="userSpaceOnUse">
   <stop stop-color="#dcac62" offset="0"/>
   <stop stop-color="#b88100" offset="1"/>
  </radialGradient>
  <radialGradient id="f" cx="-192.94" cy="403.74" r="62.047" gradientTransform="matrix(-6.2412e-8 .41682 -.75285 -9.9457e-8 403.49 210.47)" gradientUnits="userSpaceOnUse">
   <stop stop-color="#fcca77" offset="0"/>
   <stop stop-color="#fcca77" stop-opacity="0" offset="1"/>
  </radialGradient>
  <radialGradient id="e" cx="-188.9" cy="456.47" r="62.047" gradientTransform="matrix(-.0979 7.1629e-8 -4.4104e-7 -.69934 83.203 487.13)" gradientUnits="userSpaceOnUse">
   <stop stop-color="#f6c374" offset="0"/>
   <stop stop-color="#b88100" offset="1"/>
  </radialGradient>
  <radialGradient id="d" cx="-273.75" cy="320.53" r="49.711" gradientTransform="matrix(-.61828 -1.9302 1.0465 -.30931 -456.37 -327.18)" gradientUnits="userSpaceOnUse" xlink:href="#a-6"/>
  <radialGradient id="c" cx="-273.75" cy="320.53" r="49.711" gradientTransform="matrix(.61828 -1.9302 -1.0465 -.30931 657.37 -326.56)" gradientUnits="userSpaceOnUse" xlink:href="#a-6"/>
  <linearGradient id="linearGradient317" x1="25.153" x2="28.837" y1="16.954" y2="54.124" gradientUnits="userSpaceOnUse" xlink:href="#linearGradient978"/>
 </defs>
 <g transform="matrix(2.4788 0 0 2.4788 2.0749 95.669)">
  <g transform="translate(-.54468 -1.9064)" fill="#001000" filter="url(#b)">
   <g transform="translate(.27234 .27234)">
    <path d="m37.867 53.851c-12.969-13.287-10.453 4.822-22.15-4.0609 12.408 1.8981 8.9231-7.861 22.962 3.101l-0.81218 0.95985z"/>
    <path d="m25.758 48.019c-6.1761-2.3157-1.7878-1.0064-8.8601-5.9806 2.3045 3.4939 1.9518 5.1538 5.6114 5.9806-5.5657-1.3068-6.0419 1.001-11.149-2.7319 3.4232 3.3986 3.9313 5.927 14.398 2.7319z"/>
    <path d="m19.012 46.946c-4.1908-5.0935-1.1928-4.4974-5.6427-10.274 1.4301 4.3996 0.07335 6.1037 2.8292 8.6496-4.1667-3.9145-5.2161-1.2681-8.5109-6.6113 1.2652 4.6549 0.66257 5.7695 11.324 8.2357z"/>
    <path d="m13.947 42.834c-1.9686-4.956-0.77773-8.6259-2.2601-11.276-0.8874 4.599-0.92097 6.061 0.04507 8.5362-2.168-4.5874-3.0711-2.0819-5.9108-7.9875-0.19804 4.8854 2.4883 7.3952 8.1258 10.727z"/>
    <path d="m10.282 36.829c-0.61882-5.2967 1.186-3.9556 1.6213-11.403-2.7858 4.6557-3.049 5.8376-2.7565 8.4784-0.90682-4.9922-1.6893-3.1011-2.9038-9.5405-1.4557 4.6676-0.54422 7.7872 4.0389 12.465z"/>
    <path d="m8.6903 30.219c0.99465-5.2025 4.1629-4.3998 4.665-9.93-1.6808 3.8498-3.7914 1.6747-4.5616 6.7378 0.41616-5.0568-1.1244-6.7552 0.25513-9.524-3.4264 3.4673-1.8767 6.1997-0.35852 12.716z"/>
    <path d="m9.5025 23.943c1.6592-4.8333 5.6396-2.7016 6.1417-8.2318-1.6808 2.5946-3.2008 1.4532-5.3738 5.5564 1.1545-3.1371-0.16456-3.3588 2.6917-7.2351-3.6479 1.9906-3.944 3.5417-3.4596 9.9105z"/>
    <path d="m11.803 18.337c4.3408-3.1177 2.278-2.8282 6.4974-6.9404-6.3889 2.5786-4.8099 3.349-6.4974 6.9404z"/>
   </g>
   <path d="m25.319 53.851c12.969-13.287 10.453 4.822 22.15-4.0609-12.408 1.8981-8.9231-7.861-22.962 3.101l0.81218 0.95985z"/>
   <path d="m37.428 48.019c6.1761-2.3157 1.7878-1.0064 8.8601-5.9806-2.3045 3.4939-1.9518 5.1538-5.6114 5.9806 5.5657-1.3068 6.0419 1.001 11.149-2.7319-3.4232 3.3986-3.9313 5.927-14.398 2.7319z"/>
   <path d="m44.173 46.946c4.1908-5.0935 1.1928-4.4974 5.6427-10.274-1.4301 4.3996-0.07335 6.1037-2.8292 8.6496 4.1667-3.9145 5.2161-1.2681 8.5109-6.6113-1.2652 4.6549-0.66257 5.7695-11.324 8.2357z"/>
   <path d="m49.239 42.834c1.9686-4.956 0.77773-8.6259 2.2601-11.276 0.8874 4.599 0.92097 6.061-0.04507 8.5362 2.168-4.5874 3.0711-2.0819 5.9108-7.9875 0.19804 4.8854-2.4883 7.3952-8.1258 10.727z"/>
   <path d="m52.904 36.829c0.61882-5.2967-1.186-3.9556-1.6213-11.403 2.7858 4.6557 3.049 5.8376 2.7565 8.4784 0.90682-4.9922 1.6893-3.1011 2.9038-9.5405 1.4557 4.6676 0.54422 7.7872-4.0389 12.465z"/>
   <path d="m54.495 30.219c-0.99465-5.2025-4.1629-4.3998-4.665-9.93 1.6808 3.8498 3.7914 1.6747 4.5616 6.7378-0.41616-5.0568 1.1244-6.7552-0.25513-9.524 3.4264 3.4673 1.8767 6.1997 0.35852 12.716z"/>
   <path d="m53.683 23.943c-1.6592-4.8333-5.6396-2.7016-6.1417-8.2318 1.6808 2.5946 3.2008 1.4532 5.3738 5.5564-1.1545-3.1371 0.16456-3.3588-2.6917-7.2351 3.6479 1.9906 3.944 3.5417 3.4596 9.9105z"/>
   <path d="m51.382 18.337c-4.3408-3.1177-2.278-2.8282-6.4974-6.9404 6.3889 2.5786 4.8099 3.349 6.4974 6.9404z"/>
  </g>
  <g transform="translate(-.28149 -1.9064)" fill="url(#linearGradient317)">
   <g transform="translate(.27234 .27234)">
    <path d="m37.867 53.851c-12.969-13.287-10.453 4.822-22.15-4.0609 12.408 1.8981 8.9231-7.861 22.962 3.101l-0.81218 0.95985z"/>
    <path d="m25.758 48.019c-6.1761-2.3157-1.7878-1.0064-8.8601-5.9806 2.3045 3.4939 1.9518 5.1538 5.6114 5.9806-5.5657-1.3068-6.0419 1.001-11.149-2.7319 3.4232 3.3986 3.9313 5.927 14.398 2.7319z"/>
    <path d="m19.012 46.946c-4.1908-5.0935-1.1928-4.4974-5.6427-10.274 1.4301 4.3996 0.07335 6.1037 2.8292 8.6496-4.1667-3.9145-5.2161-1.2681-8.5109-6.6113 1.2652 4.6549 0.66257 5.7695 11.324 8.2357z"/>
    <path d="m13.947 42.834c-1.9686-4.956-0.77773-8.6259-2.2601-11.276-0.8874 4.599-0.92097 6.061 0.04507 8.5362-2.168-4.5874-3.0711-2.0819-5.9108-7.9875-0.19804 4.8854 2.4883 7.3952 8.1258 10.727z"/>
    <path d="m10.282 36.829c-0.61882-5.2967 1.186-3.9556 1.6213-11.403-2.7858 4.6557-3.049 5.8376-2.7565 8.4784-0.90682-4.9922-1.6893-3.1011-2.9038-9.5405-1.4557 4.6676-0.54422 7.7872 4.0389 12.465z"/>
    <path d="m8.6903 30.219c0.99465-5.2025 4.1629-4.3998 4.665-9.93-1.6808 3.8498-3.7914 1.6747-4.5616 6.7378 0.41616-5.0568-1.1244-6.7552 0.25513-9.524-3.4264 3.4673-1.8767 6.1997-0.35852 12.716z"/>
    <path d="m9.5025 23.943c1.6592-4.8333 5.6396-2.7016 6.1417-8.2318-1.6808 2.5946-3.2008 1.4532-5.3738 5.5564 1.1545-3.1371-0.16456-3.3588 2.6917-7.2351-3.6479 1.9906-3.944 3.5417-3.4596 9.9105z"/>
    <path d="m11.803 18.337c4.3408-3.1177 2.278-2.8282 6.4974-6.9404-6.3889 2.5786-4.8099 3.349-6.4974 6.9404z"/>
   </g>
   <path d="m25.319 53.851c12.969-13.287 10.453 4.822 22.15-4.0609-12.408 1.8981-8.9231-7.861-22.962 3.101l0.81218 0.95985z"/>
   <path d="m37.428 48.019c6.1761-2.3157 1.7878-1.0064 8.8601-5.9806-2.3045 3.4939-1.9518 5.1538-5.6114 5.9806 5.5657-1.3068 6.0419 1.001 11.149-2.7319-3.4232 3.3986-3.9313 5.927-14.398 2.7319z"/>
   <path d="m44.173 46.946c4.1908-5.0935 1.1928-4.4974 5.6427-10.274-1.4301 4.3996-0.07335 6.1037-2.8292 8.6496 4.1667-3.9145 5.2161-1.2681 8.5109-6.6113-1.2652 4.6549-0.66257 5.7695-11.324 8.2357z"/>
   <path d="m49.239 42.834c1.9686-4.956 0.77773-8.6259 2.2601-11.276 0.8874 4.599 0.92097 6.061-0.04507 8.5362 2.168-4.5874 3.0711-2.0819 5.9108-7.9875 0.19804 4.8854-2.4883 7.3952-8.1258 10.727z"/>
   <path d="m52.904 36.829c0.61882-5.2967-1.186-3.9556-1.6213-11.403 2.7858 4.6557 3.049 5.8376 2.7565 8.4784 0.90682-4.9922 1.6893-3.1011 2.9038-9.5405 1.4557 4.6676 0.54422 7.7872-4.0389 12.465z"/>
   <path d="m54.495 30.219c-0.99465-5.2025-4.1629-4.3998-4.665-9.93 1.6808 3.8498 3.7914 1.6747 4.5616 6.7378-0.41616-5.0568 1.1244-6.7552-0.25513-9.524 3.4264 3.4673 1.8767 6.1997 0.35852 12.716z"/>
   <path d="m53.683 23.943c-1.6592-4.8333-5.6396-2.7016-6.1417-8.2318 1.6808 2.5946 3.2008 1.4532 5.3738 5.5564-1.1545-3.1371 0.16456-3.3588-2.6917-7.2351 3.6479 1.9906 3.944 3.5417 3.4596 9.9105z"/>
   <path d="m51.382 18.337c-4.3408-3.1177-2.278-2.8282-6.4974-6.9404 6.3889 2.5786 4.8099 3.349 6.4974 6.9404z"/>
  </g>
 </g>
 <g transform="matrix(.52267 0 0 .52267 28.893 37.557)">
  <path d="m173.25 15.508c-1.4579 4e-3 -2.961 0.0757-4.457 0.19029-2.992 0.22916-5.922 0.64168-8.2801 1.1227-1.179 0.2405-2.2215 0.49034-3.0704 0.76114s-1.4508 0.44702-2.1196 1.0466c-1.6129 1.4461-2.3739 3.3402-2.7138 5.2328s-0.31746 3.8276-0.31694 5.6705-0.031 3.5902-0.35656 4.9854-0.85654 2.3994-1.9413 3.1587c-0.5849 0.40946-2.9554 0.64126-5.0512 0.41862s-3.8825-0.66599-3.8825-0.66599l-0.79235 2.9304s1.9794 0.49154 4.3381 0.74211 5.1311 0.49392 7.25-0.98948c1.8008-1.2607 2.7376-3.0779 3.1694-4.9284s0.41651-3.7894 0.41599-5.6514 7e-3 -3.652 0.27732-5.1567 0.76495-2.6622 1.7432-3.5393c-0.17038 0.15276 0.30964-0.16339 0.99044-0.38057s1.6154-0.46097 2.7138-0.68502c2.1968-0.44809 5.0313-0.8471 7.8839-1.0656s5.7344-0.23769 8.0028 0.019 3.8123 0.95158 4.0806 1.2939c3.5459 4.5246 4.1527 12.335 2.1988 21.749s-6.3847 20.327-12.262 30.921c-11.754 21.187-31.531 39.039-45.916 43.744l1.0102 2.8733c16.125-5.2748 35.699-23.596 47.679-45.19 5.9899-10.797 10.538-21.927 12.579-31.758s1.678-18.486-2.7732-24.166c-1.3508-1.7237-3.6222-2.1797-6.22-2.4737-1.2989-0.147-2.7218-0.21284-4.1797-0.20931z" fill="#b88100"/>
  <path d="m174.04 16.123c1.5196-4e-3 2.9822 0.0616 4.3361 0.20688 2.7078 0.29058 5.0754 0.74131 6.4835 2.4449 4.6398 5.6138 5.0176 14.168 2.8907 23.885s-6.8472 20.717-13.091 31.389c-12.487 21.344-32.827 39.428-49.635 44.642l-1.053-2.8399c14.994-4.6508 35.525-22.271 47.777-43.212 6.1259-10.471 10.744-21.256 12.781-30.562s1.4042-17.025-2.2919-21.497c-0.27967-0.33838-1.8891-1.0252-4.2535-1.2789s-5.3683-0.23476-8.3418-0.0187-5.928 0.61032-8.2179 1.0532c-1.1449 0.22144-2.1191 0.4624-2.8288 0.67705s-1.21 0.52713-1.0324 0.37615c-1.0197 0.86687-1.5353 2.0109-1.817 3.4981s-0.26897 3.2563-0.26842 5.0967-4e-3 3.7568-0.45426 5.5857-1.4266 3.625-3.3037 4.871c-2.2087 1.4661-5.0985 1.2256-7.5572 0.97797s-4.5219-0.73348-4.5219-0.73348l0.82592-2.8963s1.8624 0.4382 4.047 0.65825 4.6556-9e-3 5.2652-0.41376c1.1307-0.75054 1.7048-1.7429 2.0442-3.122s0.3722-3.1061 0.37166-4.9275-0.0446-3.7339 0.30972-5.6045 1.1475-3.7427 2.8288-5.172c0.69703-0.59258 1.3452-0.76675 2.23-1.0344s1.9508-0.51459 3.1798-0.75229c2.458-0.47539 5.5121-0.88312 8.6308-1.1096 1.5594-0.11325 3.1468-0.18458 4.6664-0.18807z" fill="url(#c)"/>
  <path d="m26.346 15.508c-1.4579-4e-3 -2.861 0.0623-4.1598 0.20931-2.5978 0.294-4.8692 0.75004-6.22 2.4737-4.4512 5.6798-4.8136 14.335-2.7732 24.166s6.5689 20.961 12.559 31.758c11.98 21.595 31.574 39.916 47.699 45.19l1.0102-2.8733c-14.385-4.7056-34.162-22.557-45.916-43.744-5.8769-10.594-10.308-21.506-12.262-30.921s-1.3472-17.225 2.1988-21.749c0.2683-0.34236 1.8123-1.0372 4.0806-1.2939s5.1501-0.23752 8.0028-0.019 5.6871 0.6175 7.8839 1.0656c1.0984 0.22405 2.033 0.46785 2.7138 0.68503s1.1608 0.53332 0.99044 0.38056c0.97822 0.87707 1.4729 2.0346 1.7432 3.5393s0.25804 3.2946 0.25752 5.1567 4e-3 3.801 0.43579 5.6514 1.3686 3.6677 3.1694 4.9284c2.119 1.4834 4.8913 1.24 7.25 0.98948s4.3381-0.74211 4.3381-0.74211l-0.79235-2.9304s-1.7867 0.44335-3.8825 0.66599-4.4664-9e-3 -5.0512-0.41862c-1.0847-0.75937-1.6355-1.7634-1.9611-3.1587s-0.35708-3.1426-0.35656-4.9854 0.0428-3.7778-0.29713-5.6705-1.1009-3.7867-2.7138-5.2328c-0.6687-0.59954-1.2905-0.77577-2.1394-1.0466s-1.8715-0.52064-3.0506-0.76114c-2.3581-0.48099-5.2881-0.89351-8.2801-1.1227-1.496-0.11458-3.0189-0.18676-4.4768-0.19029z" fill="#b88100"/>
  <path d="m26.954 15.508c-1.5196-4e-3 -2.9822 0.0616-4.3361 0.20688-2.7078 0.29058-5.0754 0.74132-6.4835 2.4449-4.6398 5.6138-5.0176 14.168-2.8907 23.885s6.8472 20.717 13.091 31.389c12.487 21.344 32.827 41.428 49.635 46.642l1.053-2.8399c-14.994-4.6508-35.525-24.271-47.777-45.212-6.1259-10.471-10.744-21.256-12.781-30.562s-1.4042-17.025 2.2919-21.497c0.27966-0.33837 1.8891-1.0252 4.2535-1.2789s5.3683-0.23476 8.3418-0.0188 5.928 0.61032 8.2179 1.0532c1.1449 0.22144 2.1191 0.4624 2.8288 0.67705s1.21 0.52713 1.0324 0.37615c1.0197 0.86687 1.5353 2.0109 1.817 3.4981s0.26897 3.2563 0.26842 5.0967 4e-3 3.7568 0.45426 5.5857 1.4266 3.625 3.3037 4.871c2.2087 1.4661 5.0986 1.2256 7.5572 0.97797s4.5219-0.73348 4.5219-0.73348l-0.82592-2.8963s-1.8624 0.4382-4.047 0.65825-4.6556-9e-3 -5.2652-0.41376c-1.1307-0.75054-1.7048-1.7429-2.0442-3.122s-0.37221-3.1061-0.37166-4.9275 0.0446-3.7339-0.30972-5.6045-1.1476-3.7427-2.8288-5.172c-0.69703-0.59257-1.3452-0.76675-2.23-1.0344s-1.9508-0.51459-3.1798-0.75229c-2.458-0.47539-5.5121-0.88312-8.6308-1.1096-1.5594-0.11325-3.1468-0.18458-4.6664-0.18808z" fill="url(#d)"/>
  <path d="m46.35 249.57 107.05-0.7859 4.4079 14.147h-113.98z" fill="#310e0a"/>
  <path d="m94.944 30.73 0.0792 0.19028c-5.0483 0.11159-10.94 0.2564-14.698 0.41863-8.8353 0.38138-26.247 3.6915-26.247 3.6915l-1.2876 3.6915s18.718-3.314 28.188-3.6915c6.3425-0.25282 14.721-0.75449 18.838-1.0085 4.1297 0.25472 12.486 0.75608 18.818 1.0085 9.4701 0.37749 28.168 3.6915 28.168 3.6915l-1.2678-3.6915s-17.411-3.3101-26.247-3.6915c-3.7584-0.16223-9.6499-0.30704-14.698-0.41863l0.0792-0.19028-4.8532 0.0951c-1.8277-0.0347-4.873-0.0951-4.873-0.0951z" fill="url(#g)"/>
  <path d="m97.499 33.813v0.19029c-13.348 0.34054-25.524-0.8199-43.421 5.347 0 0-1.4223 31.089 3.209 47.971 3.4542 12.591 9.3359 27.351 19.195 36.287 14.011 10.988 34.003 10.628 46.63 0 9.8588-8.9358 15.76-23.696 19.215-36.287 4.6314-16.881 3.209-47.971 3.209-47.971-17.906-6.17-30.085-5.0238-43.441-5.366v-0.17126l-2.2978 0.11417c-0.75725-0.0304-1.5295-0.0696-2.2978-0.11417z" fill="url(#h)"/>
  <path d="m91.761 128.65 1.6571 8.0025 1.6571 18.482-4.9714 4.3061 3.861 4.9349s4.8772 23.37-5.4561 32.212c-2.353 2.0136-2.1397-1.1752-2.1397-1.1752l-5.7546 3.5074-15.368 7.9453c10.325 10.323 22.174 8.7471 33.911 8.0406 11.738 0.70646 23.603 2.2823 33.928-8.0406l-15.368-7.9453-5.7546-3.5074s0.21327 3.1887-2.1397 1.1752c-10.333-8.8427-5.4561-32.212-5.4561-32.212l3.8609-4.9349-4.9714-4.3061 1.6572-18.482 1.6571-8.0025c-13.445 5.1843-4.5611 2.2078-14.812 0z" fill="url(#e)"/>
  <path d="m65.764 206.6-12.82 0.23685-3.8439 22.136c36.987 1.3293 64.854 0.2823 102.33 0l-5.7649-22.136c-5.2385-0.10412-17.166 0.12787-12.32-1.2368-19.431 10.211-52.627 13.288-67.586 1z" fill="#3a0704"/>
  <g fill="#804d00">
   <path d="m90.378 193.01c-2.6486 0.72535-4.2902 1.7443-4.2902 2.8733 0 2.2064 6.2956 3.996 14.054 3.996s14.036-1.7895 14.036-3.996c0-1.129-1.6416-2.1479-4.2902-2.8733-0.51543 0.44332-1.0948 0.85369-1.7383 1.2178 1.1997 0.46694 1.9232 1.0333 1.9232 1.6555 0 1.5592-4.4476 2.8162-9.9303 2.8162s-9.9303-1.257-9.9303-2.8162c0-0.62219 0.70504-1.1885 1.9047-1.6555-0.64341-0.36413-1.2228-0.7745-1.7383-1.2178z"/>
   <path transform="matrix(.63388 0 0 .60891 462.71 -104.92)" d="m-592.13 378.35c-24.342-21.175-40.342-23.958-46.467-141.42l6.0609-2.0203c0.99724 55.244-7.934 101.35 40.406 143.44z" filter="url(#o)"/>
   <path transform="matrix(.63388 0 0 .60891 462.71 -104.92)" d="m-561.83 388.45c24.342-21.175 50.443-33.049 56.569-150.51l-6.0609-2.0203c-0.99724 55.244-2.1675 110.44-50.508 152.53z" filter="url(#n)"/>
  </g>
  <path transform="matrix(.63388 0 0 .60891 462.71 -104.92)" d="m-614.36 236.18 13.132 83.573 60.609-1.1448 10.102-84.718c-29.798-11.819-56.632-3.4862-83.843 2.2897z" fill="url(#b-8)" filter="url(#m)"/>
  <path d="m90.579 127.65 1.9215 8.092 1.9214 18.689-5.7644 4.3542 4.4768 4.99s5.6348 21.095-6.9925 30.518c-2.8754 2.1458-2.6148-1.2523-2.6148-1.2523l-7.0321 3.7377-16.659 9.9608c11.972 10.438 25.71 8.8449 39.32 8.1305 13.611 0.71436 27.368 2.3078 39.34-8.1305l-16.659-9.9608-7.0321-3.7377s0.26058 3.3981-2.6148 1.2523c-12.627-9.4235-6.9925-30.518-6.9925-30.518l4.4768-4.99-5.7644-4.3542 1.9215-18.689 1.9214-8.092c-15.589 5.2422-5.2886 2.2325-17.174 0z" fill="url(#f)"/>
  <path d="m50.103 227.87h100.57a0.50903 0.50903 0 0 1 0.50903 0.50903v27.161a0.50903 0.50903 0 0 1-0.50903 0.5091h-100.57a0.50903 0.50903 0 0 1-0.50903-0.5091v-27.161a0.50903 0.50903 0 0 1 0.50903-0.50903" fill="url(#i)"/>
  <path d="m43.69 262.31h113.98v10.687h-113.98z" fill="#692017"/>
  <path d="m73.006 232c0.0042 0.043 0.03324 0.083 0.03324 0.12641 0 1.994 2.0594 3.6404-3.0397 3.8869v6.8574c0 0.14259 0.23184 0.25282 0.53175 0.25282-0.29991 0-0.53175 0.10702-0.53175 0.25281v7.0154c5.0991 0.2521 3.0397 1.9425 3.0397 3.9818 0 0.044-0.03007 0.083-0.03324 0.1264h50.682c-0.0633-0.169-0.13295-0.3463-0.13295-0.5214 0-1.7131-0.88561-3.1523 3.4444-3.6658v-6.9364c0-0.14582-0.23184-0.25281-0.53175-0.25281 0.29991 0 0.53175-0.11019 0.53175-0.25282v-6.7784c-4.3301-0.50201-3.4444-1.9117-3.4444-3.5867 0-0.1713 0.0696-0.34032 0.13295-0.50561z" fill="url(#j)"/>
  <path d="m95.5 194 2.5-11.5 1-16.5-3-4.5 2-3-2.5-26.5c-8.5345-2.6126-12.614-7.8982-14.5-14.5" fill="none" filter="url(#l)" opacity=".22439" stroke="#000"/>
  <path transform="matrix(1 0 0 -.3449 -1.4142 629.74)" d="m13.5 1025.9 31-2.86 114.5-0.66 23.5 3.08-20 2.42h-113.5z" fill="#2d2d2d" filter="url(#k)"/>
 </g>
 <g transform="matrix(.44895 0 0 .44895 19.007 1.9808)">
  <path d="m150.27 92.065v-32.855h7.4074v12.648h11.338v-12.648h7.4578v32.855h-7.4578v-13.706h-11.338v13.706z"/>
  <path d="m182.23 92.065v-32.855h9.2718q3.7793 0 6.8027 0.95742t5.1902 2.973q2.1668 1.9652 3.3258 5.039t1.159 7.3066-1.159 7.357-3.2754 5.1902q-2.1164 2.0156-5.0894 3.0234-2.9226 1.0078-6.5508 1.0078zm7.4074-5.9965h1.4109q2.1164 0 3.8297-0.55429t2.9226-1.7637q1.2094-1.2598 1.8644-3.2754 0.70546-2.0156 0.70546-4.9886 0-2.9226-0.70546-4.8879-0.65508-2.0156-1.8644-3.1746-1.2094-1.2094-2.9226-1.7133t-3.8297-0.5039h-1.4109z"/>
  <path d="m26.88 54.47 0.36-4.25c4.68-0.43 5.54-0.79 5.54-2.59a12.81 12.81 0 0 0-0.36-2.52l-1.51-5.54c-1.87-0.08-4.9-0.15-6.63-0.15-2.3 0-5.18 0.36-6.91 0.51l-1.8 5.54a10.11 10.11 0 0 0-0.43 2.23c0 1.73 0.86 2.31 3.38 2.31h3.1l0.36 0.5-0.5 4.39s-5.91-0.43-10.52-0.43c-3.88 0-8.64 0.22-8.64 0.22l0.51-4.68c2.23-0.36 3.53-1.66 4.75-4.9l10.25-29.47 7.64-13.34 8.43 12.86s4.79 17.47 8.75 29.86c1 3.45 2.37 4.68 5.69 5l0.28 0.5-0.5 4.18s-5.69-0.22-8.79-0.22c-6.12 0-12.09 0.58-12.09 0.58zm-7.78-20.59h5.18c1.52 0 3.82-0.15 5.33-0.22l-4.63-17.49"/>
  <path d="m50.13 45.4v-14.33c0-3.24-0.72-4.25-3.09-4.25-0.58 0-1.37 0.07-1.37 0.07l-0.36-0.5 0.43-3.6c6.12-1 13-2.45 13-2.45l0.65 0.65a53 53 0 0 0-0.72 6.77l0.43 0.28c3-4.53 6.84-7.12 10.08-7.12a14.63 14.63 0 0 1 2.52 0.21l0.29 0.58s-1.15 7.2-1.44 13l-4.61 0.29c0-4.54-0.36-5.69-2-5.69s-3.39 1.22-4.9 3.24c0 0-0.65 12.6-0.65 13.9 0 2.52 0.65 3.31 2.81 3.31 1.3 0 3.6-0.22 3.6-0.22l0.22 0.44-0.8 4.75s-5.9-0.29-9.28-0.29c-4.4 0-9 0.29-9 0.29l0.58-4.39c2.82-0.19 3.61-1.2 3.61-4.94z"/>
  <path d="m69.74 38.77c0-10.73 7.27-18.36 17.49-18.36a27.94 27.94 0 0 1 9.15 1.44l0.29 0.65a71.53 71.53 0 0 0-1.59 11.09l-4.61 0.29v-2.38c0-3.31-1.65-5.11-4.53-5.11-4.47 0-6.91 3.38-6.91 9.58 0 7.92 2.88 12.24 8 12.24a17.67 17.67 0 0 0 7.7-2.09l0.51 0.21 1.15 3.68s-6.48 5.32-10.8 5.32c-9.85-0.03-15.85-6.33-15.85-16.56z"/>
  <path d="m94.2 38.84c0-10.94 7-18.43 17.35-18.43 9.36 0 15.12 6.34 15.12 16.42 0 10.94-7 18.5-17.28 18.5-9.22-0.03-15.19-6.55-15.19-16.49zm23 1.3c0-9.14-2.67-13.68-7.28-13.68-4.1 0-6.33 3.31-6.33 9.79 0 9.15 2.66 13.68 7.27 13.68 4.07 0 6.31-3.31 6.31-9.79z"/>
  <path d="m138.74 21.92h-0.57c-0.07 2.6-1.66 24-1.66 25.71 0 1.58 0.72 2.3 2.31 2.3l2.44-0.07 0.44 0.36-0.8 4.54c-1.51-0.07-6.33-0.29-8.42-0.29a57.34 57.34 0 0 0-7.13 0.58l0.43-4.68c2.81-0.29 3.82-1.52 4.4-5.19 0.36-3.17 2.88-27.36 2.88-29 0-2.59-1.16-3.31-5.48-3.67l-0.36-0.43 0.65-4.18c2.38 0.15 7.06 0.36 9 0.36 2.31 0 6.12-0.21 7.64-0.29 4.1 14.48 8.28 27.08 9.21 30.18h0.58c0.86-3 5.18-15.63 9.65-30 1.44 0 4 0.14 6.26 0.14 0.79 0 1.59-0.07 2.23-0.07 2.31 0 6.7-0.36 7.35-0.43l0.29 0.29-0.44 4.32c-4.1 0.36-5.32 1.22-5.32 3.82 0 3.09 1 18.5 1.72 27.07 0.58 5.26 1.23 6.62 3.53 6.62 0.79 0 1.8-0.14 2-0.14l0.29 0.36-0.65 4.54c-0.87 0-4.75-0.22-7.27-0.22-3.17 0-9.94 0.5-10.23 0.58l0.5-4.68c2.81-0.36 4-1.37 4-3.6s-1.44-19.95-1.51-24.85h-0.65c-2.6 7.2-7 19.73-11.24 33.05l-4.89 0.65c-4.31-13.95-8.56-26.3-11.18-33.68z"/>
  <path d="m197.66 49.79-0.58-0.22c-2.88 3-6.12 5.48-7.92 5.48-5.61 0-9.86-4.47-9.86-10.44a5.94 5.94 0 0 1 4.18-6l13.89-3.24 0.08-1.73c0-4.1-2.31-6.55-6.2-6.55-2.66 0-6 1.51-8.42 3.38l-0.65-0.29-1.22-4.32c4.17-2.37 10.72-5.47 13.17-5.47 8.36 0 12 4.25 12 9.79 0 2.45-1.44 11.6-1.44 14.84 0 1.8 1 2.95 2.59 2.95a6.83 6.83 0 0 0 3.45-1.22l1.01 1.55c-1.44 2.59-4.32 6.33-6.91 7-4.22 0-6.74-1.91-7.17-5.51zm-0.65-3.67 0.22-6.84-7.71 2.16a2.11 2.11 0 0 0-1.72 2.37 4.08 4.08 0 0 0 4 4.4 9.78 9.78 0 0 0 5.21-2.09z"/>
  <path d="m237.12 24.95-0.29 0.43a9.92 9.92 0 0 1 2.88 7.13c0 7.34-6.55 12.82-15.48 12.82a19.35 19.35 0 0 1-4.68-0.58c-1.23 0.94-1.73 1.66-1.73 2.45 0 5.18 24.26 0.07 24.26 11.3 0 6.84-9.28 13.4-19.08 13.4-7.63 0-12.67-4-12.67-10.16a38.79 38.79 0 0 1 7.2-5.25v-0.51c-4.54-0.79-7.2-3.45-7.42-7.34a32.73 32.73 0 0 1 5.91-4.83v-0.43a10.77 10.77 0 0 1-5.47-9.72c0-7.63 6.33-13.32 14.9-13.32 3 0 5.19 0.72 7.42 0.72a63.56 63.56 0 0 0 10.08-2.38l0.43 0.29-0.93 5.55c-1.81 0.21-3.89 0.36-5.33 0.43zm-17.86 37.15c0 2.81 2.37 4.47 6.48 4.47 4.75 0 8.35-2.31 8.35-5.33 0-2.31-1.87-2.95-12.1-4.32a7.17 7.17 0 0 0-2.73 5.18zm11.66-28.51c0-5-2.37-7.92-6.19-7.92-3.45 0-5.33 2.52-5.33 7 0 4.9 2.31 7.85 6.12 7.85 3.46 0.05 5.4-2.39 5.4-6.93z"/>
  <path d="m238.84 38.77c0-10.44 7.28-18.36 17-18.36 8 0 12.09 4.11 12.09 12.24a18.24 18.24 0 0 1-0.5 4l-0.86 0.87h-18.65c0.14 7.06 3.52 10.8 9.21 10.8a21.67 21.67 0 0 0 8.57-2.16l0.5 0.29 1.16 3.53c-3 2.3-8.43 5.32-12.24 5.32-10.09 0-16.28-6.3-16.28-16.53zm18.9-5.76c1.15-0.07 1.37-0.36 1.37-1.65 0-3.53-1.59-5.33-4.54-5.33-3.74 0-6.19 2.59-6.69 7.56z"/>
  <g fill="#ee3625">
   <path d="m25.56 53.17 0.36-4.25c4.68-0.43 5.54-0.79 5.54-2.59a12.81 12.81 0 0 0-0.36-2.52l-1.51-5.54c-1.87-0.08-4.9-0.15-6.63-0.15-2.3 0-5.18 0.36-6.91 0.51l-1.8 5.54a10.11 10.11 0 0 0-0.43 2.23c0 1.73 0.86 2.31 3.38 2.31h3.1l0.36 0.5-0.5 4.39s-5.91-0.43-10.52-0.43c-3.88 0-8.64 0.22-8.64 0.22l0.51-4.68c2.23-0.36 3.53-1.66 4.75-4.9l10.25-29.47 7.64-13.34 8.43 12.86s4.79 17.47 8.75 29.86c1 3.45 2.37 4.68 5.69 5l0.28 0.5-0.5 4.18s-5.69-0.22-8.79-0.22c-6.12 0-12.09 0.58-12.09 0.58zm-7.78-20.59h5.18c1.52 0 3.82-0.15 5.33-0.22l-4.63-17.49"/>
   <path d="m48.81 44.1v-14.33c0-3.24-0.72-4.25-3.09-4.25-0.58 0-1.37 0.07-1.37 0.07l-0.36-0.5 0.43-3.6c6.12-1 13-2.45 13-2.45l0.65 0.65a53 53 0 0 0-0.72 6.77l0.43 0.28c3-4.53 6.84-7.12 10.08-7.12a14.63 14.63 0 0 1 2.52 0.21l0.29 0.58s-1.15 7.2-1.44 13l-4.61 0.29c0-4.54-0.36-5.69-2-5.69s-3.39 1.22-4.9 3.24c0 0-0.65 12.6-0.65 13.9 0 2.52 0.65 3.31 2.81 3.31 1.3 0 3.6-0.22 3.6-0.22l0.22 0.44-0.8 4.75s-5.9-0.29-9.28-0.29c-4.4 0-9 0.29-9 0.29l0.58-4.39c2.82-0.19 3.61-1.2 3.61-4.94z"/>
   <path d="m68.42 37.47c0-10.73 7.27-18.36 17.49-18.36a27.94 27.94 0 0 1 9.15 1.44l0.29 0.65a71.53 71.53 0 0 0-1.59 11.09l-4.61 0.29v-2.38c0-3.31-1.65-5.11-4.53-5.11-4.47 0-6.91 3.38-6.91 9.58 0 7.92 2.88 12.24 8 12.24a17.67 17.67 0 0 0 7.7-2.09l0.51 0.21 1.15 3.68s-6.48 5.32-10.8 5.32c-9.85-0.03-15.85-6.33-15.85-16.56z"/>
   <path d="m92.88 37.54c0-10.94 7-18.43 17.35-18.43 9.36 0 15.12 6.34 15.12 16.42 0 10.94-7 18.5-17.28 18.5-9.22-0.03-15.19-6.55-15.19-16.49zm23 1.3c0-9.14-2.67-13.68-7.28-13.68-4.1 0-6.33 3.31-6.33 9.79 0 9.15 2.66 13.68 7.27 13.68 4.07 0 6.31-3.31 6.31-9.79z"/>
   <path d="m137.42 20.62h-0.57c-0.07 2.6-1.66 24-1.66 25.71 0 1.58 0.72 2.3 2.31 2.3l2.44-0.07 0.44 0.36-0.8 4.54c-1.51-0.07-6.33-0.29-8.42-0.29a57.34 57.34 0 0 0-7.13 0.58l0.43-4.68c2.81-0.29 3.82-1.52 4.4-5.19 0.36-3.17 2.88-27.36 2.88-29 0-2.59-1.16-3.31-5.48-3.67l-0.36-0.43 0.65-4.18c2.38 0.15 7.06 0.36 9 0.36 2.31 0 6.12-0.21 7.64-0.29 4.1 14.48 8.28 27.08 9.21 30.18h0.58c0.86-3 5.18-15.63 9.65-30 1.44 0 4 0.14 6.26 0.14 0.79 0 1.59-0.07 2.23-0.07 2.31 0 6.7-0.36 7.35-0.43l0.29 0.29-0.44 4.32c-4.1 0.36-5.32 1.22-5.32 3.82 0 3.09 1 18.5 1.72 27.07 0.58 5.26 1.23 6.62 3.53 6.62 0.79 0 1.8-0.14 2-0.14l0.29 0.36-0.65 4.54c-0.87 0-4.75-0.22-7.27-0.22-3.17 0-9.94 0.5-10.23 0.58l0.5-4.68c2.81-0.36 4-1.37 4-3.6s-1.44-19.95-1.51-24.85h-0.65c-2.6 7.2-7 19.73-11.24 33.05l-4.89 0.65c-4.31-13.95-8.56-26.3-11.18-33.68z"/>
   <path d="m196.34 48.49-0.58-0.22c-2.88 3-6.12 5.48-7.92 5.48-5.61 0-9.86-4.47-9.86-10.44a5.94 5.94 0 0 1 4.18-6l13.89-3.24 0.08-1.73c0-4.1-2.31-6.55-6.2-6.55-2.66 0-6 1.51-8.42 3.38l-0.65-0.29-1.22-4.32c4.17-2.37 10.72-5.47 13.17-5.47 8.36 0 12 4.25 12 9.79 0 2.45-1.44 11.6-1.44 14.84 0 1.8 1 2.95 2.59 2.95a6.83 6.83 0 0 0 3.45-1.22l1.01 1.55c-1.44 2.59-4.32 6.33-6.91 7-4.22 0-6.74-1.91-7.17-5.51zm-0.65-3.67 0.22-6.84-7.71 2.16a2.11 2.11 0 0 0-1.72 2.37 4.08 4.08 0 0 0 4 4.4 9.78 9.78 0 0 0 5.21-2.09z"/>
   <path d="m235.8 23.65-0.29 0.43a9.92 9.92 0 0 1 2.88 7.13c0 7.34-6.55 12.82-15.48 12.82a19.35 19.35 0 0 1-4.68-0.58c-1.23 0.94-1.73 1.66-1.73 2.45 0 5.18 24.26 0.07 24.26 11.3 0 6.84-9.28 13.4-19.08 13.4-7.63 0-12.67-4-12.67-10.16a38.79 38.79 0 0 1 7.2-5.25v-0.51c-4.54-0.79-7.2-3.45-7.42-7.34a32.73 32.73 0 0 1 5.91-4.83v-0.43a10.77 10.77 0 0 1-5.47-9.72c0-7.63 6.33-13.32 14.9-13.32 3 0 5.19 0.72 7.42 0.72a63.56 63.56 0 0 0 10.08-2.38l0.43 0.29-0.93 5.55c-1.81 0.21-3.89 0.36-5.33 0.43zm-17.86 37.15c0 2.81 2.37 4.47 6.48 4.47 4.75 0 8.35-2.31 8.35-5.33 0-2.31-1.87-2.95-12.1-4.32a7.17 7.17 0 0 0-2.73 5.18zm11.66-28.51c0-5-2.37-7.92-6.19-7.92-3.45 0-5.33 2.52-5.33 7 0 4.9 2.31 7.85 6.12 7.85 3.46 0.05 5.4-2.39 5.4-6.93z"/>
   <path d="m237.52 37.47c0-10.44 7.28-18.36 17-18.36 8 0 12.09 4.11 12.09 12.24a18.24 18.24 0 0 1-0.5 4l-0.86 0.87h-18.65c0.14 7.06 3.52 10.8 9.21 10.8a21.67 21.67 0 0 0 8.57-2.16l0.5 0.29 1.16 3.53c-3 2.3-8.43 5.32-12.24 5.32-10.09 0-16.28-6.3-16.28-16.53zm18.9-5.76c1.15-0.07 1.37-0.36 1.37-1.65 0-3.53-1.59-5.33-4.54-5.33-3.74 0-6.19 2.59-6.69 7.56z"/>
  </g>
  <g fill="#1273eb">
   <path d="m148.94 90.765v-32.855h7.4074v12.648h11.338v-12.648h7.4578v32.855h-7.4578v-13.706h-11.338v13.706z"/>
   <path d="m180.91 90.765v-32.855h9.2718q3.7793 0 6.8027 0.95742t5.1902 2.973q2.1668 1.9652 3.3258 5.039t1.159 7.3066-1.159 7.357-3.2754 5.1902q-2.1164 2.0156-5.0894 3.0234-2.9226 1.0078-6.5508 1.0078zm7.4074-5.9965h1.4109q2.1164 0 3.8297-0.55429t2.9226-1.7637q1.2094-1.2598 1.8644-3.2754 0.70546-2.0156 0.70546-4.9886 0-2.9226-0.70546-4.8879-0.65508-2.0156-1.8644-3.1746-1.2094-1.2094-2.9226-1.7133t-3.8297-0.5039h-1.4109z"/>
  </g>
 </g>
 <g transform="translate(-42.643 1.4297)" aria-label="ArcoMage">
  <path d="m111.65 160.55q0.41275 0 0.72919 0.22013 0.31645 0.21326 0.46779 0.5297 0.15822 0.31644 0.1651 0.6604 0 0.3302-0.0825 0.66728-0.0757 0.33708-0.17198 0.57097-0.0963 0.22701-0.18574 0.4953-0.0825 0.26141-0.0894 0.46778-7e-3 0.0482-7e-3 0.0963 0 0.19262 0.11695 0.39212 0.12382 0.19949 0.28892 0.2958 0.14447 0.0825 0.26829 0.0482 0.13071-0.0344 0.19262-0.0963 0.0688-0.0619 0.1651-0.15135 0.0963-0.0894 0.18574-0.11006 0.13758-0.0413 0.14446 0.0757 0.0138 0.11694-0.0757 0.19261-0.0688 0.0619-0.18574 0.17886-0.11695 0.11695-0.1651 0.15822-0.0481 0.0413-0.1307 0.0963-0.0826 0.0482-0.1651 0.0757-0.25453 0.0688-0.44715-0.0206-0.18574-0.0894-0.28893-0.29581-0.0963-0.20637-0.14446-0.44027-0.0482-0.23389-0.0482-0.48154 7e-3 -0.3302 0.17886-1.025 0.17885-0.70168 0.14446-1.0869-0.0482-0.53658-0.35772-0.89429-0.30268-0.3646-0.70167-0.3646-0.35084 0-0.63977 0.13758-0.28204 0.13071-0.48154 0.37148-0.19262 0.24077-0.32332 0.53657-0.1307 0.29581-0.21325 0.6604-0.0963 0.54346-0.0619 0.81862 0.0344 0.27517 0.0825 0.72232 0.0482 0.44714 7e-3 0.83238-7e-3 0.11694-0.0825 0.25453-0.0688 0.1307-0.1651 0.19261-0.11694 0.0757-0.32332 0.11007-0.19949 0.0344-0.35771 7e-3 -0.15823-0.0275-0.15135-0.11695 0.0138-0.0894 0.0825-0.12382 0.0757-0.0344 0.1651-0.0275 0.0894 7e-3 0.17198-0.0275 0.0894-0.0413 0.11695-0.1307 0.0825-0.24077 0.055-0.73607-0.0206-0.50218-0.0482-0.90117-0.0275-0.40587 0.10319-0.87366 0.27516-0.81862 0.78422-1.3139t1.2039-0.626q0.13758-0.0206 0.27516-0.0206zm-1.1763 1.8505q0.0688-0.18574 0.26141-0.32332 0.19262-0.13759 0.39212-0.15135 0.2614-0.0206 0.52281 0.10319 0.26141 0.12383 0.26141 0.31644 0 0.0894-0.0963 0.11695-0.0894 0.0275-0.15822-7e-3 -0.0275-0.0138-0.27517-0.1651-0.24077-0.15134-0.37147-0.13758-0.14446 0.0137-0.23389 0.15822-0.0825 0.13758-0.0757 0.30956 0.0138 0.17198 0.11694 0.27517 0.0757 0.0757 0.22702 0.22013 0.15822 0.13758 0.22701 0.21325 0.0688 0.0688 0.15822 0.19262 0.0963 0.12383 0.13758 0.26141 0.0413 0.1307 0.0482 0.30268 0 0.27517-0.1995 0.48842-0.19262 0.20638-0.46778 0.22702-0.055 0-0.11695 0-0.27517 0-0.54345-0.0757-0.0757-0.0344-0.0757-0.11695 0-0.0619 0.0481-0.10319 0.0482-0.0344 0.31644 0.0275 0.27517 0.055 0.35084 0 0.0825-0.0619 0.13758-0.17198 0.055-0.11695 0.055-0.22013 0-0.0757-0.0206-0.15135-0.0206-0.15134-0.13758-0.28204-0.11695-0.13758-0.26829-0.27517-0.15134-0.14446-0.22014-0.26829-0.0894-0.18573-0.0894-0.38523t0.0894-0.37835z"/>
  <path d="m114 162.13q-0.13758-0.0206-0.1651-0.0619-0.0275-0.0482 0.0413-0.24077 0.0757-0.19262 0.14446-0.21326 0.0344-7e-3 0.0413 0.0413 7e-3 0.0482 0 0.11006-7e-3 0.0619 7e-3 0.11695 0.0206 0.055 0.0757 0.055 0.11695 0 0.48155 7e-3 0.36459 0 0.48842 0 0.11006 0 0.11694 0.14446 0 0.0344-0.17886 0.26829-0.17885 0.22701-0.36459 0.44027l-0.17886 0.20637h0.68104q0.0757 0 0.0757 0.0963 7e-3 0.0963-0.0344 0.15822-0.0275 0.0619-0.15134 0.30957-0.12382 0.24077-0.17886 0.37147-0.055 0.12383-0.11694 0.32332-0.0619 0.1995-0.0619 0.35772 0 0.0138 0 0.0275 0 0.1307 0.0757 0.28204 0.0826 0.14446 0.1995 0.22013 0.18574 0.11695 0.41275 0.11695 0.17198 0 0.32332-0.0688 0.29581-0.15134 0.57785-0.91493 0.0894-0.29581 0.1651-0.72231 0.0825-0.42651 0.10319-0.7292 7e-3 -0.0757 7e-3 -0.15134 0-0.3302-0.0619-0.65352h-0.11695q-0.0275 0-0.055-0.0344-0.0206-0.0413-0.0138-0.0757 0.0138-0.0344 0.0688-0.0344h0.59161q0.0619 0 0.0688 0.0344 0.0138 0.0344-0.0138 0.0757-0.0275 0.0344-0.055 0.0344h-0.11007q0.0619 0.42651 0.0619 0.85302 0 0.0413 0 0.0757-7e-3 0.37147-0.13759 0.86677-0.12382 0.48843-0.28892 0.81175-0.11007 0.19949-0.33708 0.41275-0.22702 0.20637-0.43339 0.30268-0.24765 0.10319-0.50906 0.10319-0.17886 0-0.34396-0.0482-0.23389-0.055-0.40587-0.2614-0.1651-0.21326-0.1651-0.45403 0-0.0206 7e-3 -0.0413 0-0.22702 0.12383-0.58473 0.1307-0.3646 0.25452-0.61225l0.12383-0.24765h-0.74295q-0.055 0-0.0757-0.055-0.0206-0.055 7e-3 -0.12383 0.0138-0.0344 0.19949-0.26141 0.19262-0.22701 0.37836-0.42651l0.17886-0.20637z"/>
  <path d="m118.44 161.11q0.19261 0 0.23389 0.14446 0.0481 0.14447-0.11695 0.3646-0.0825 0.0963-0.33708 0.37148-0.25453 0.26828-0.43338 0.47466-0.17886 0.20637-0.17198 0.26141 0 0.0688 0.37835 0.42651 0.37836 0.35083 0.38523 0.41962 0 0.0757-0.34395 0.34396-0.34396 0.26141-0.35084 0.31644-0.0206 0.0688 0.17886 0.30957 0.19949 0.24077 0.39899 0.45402l0.20637 0.20638t7e-3 -7e-3 0.0275-0.0206q0.0275-0.0206 0.0482-0.0344 0.0206-0.0138 0.0482-0.0275 0.0275-0.0206 0.0482-0.0275 0.0206-7e-3 0.0413-7e-3 0.0206-7e-3 0.0344 7e-3 0.0688 0.0757-0.24077 0.35084-0.30956 0.26829-0.37835 0.24077-0.0482-0.0344-0.0344-0.0825 0.0206-0.0481 0.0688-0.0963l0.0482-0.0481q-0.0413-0.0344-0.11007-0.0894-0.0619-0.0619-0.23389-0.22013-0.1651-0.15823-0.30268-0.28893-0.13071-0.13758-0.24078-0.27517-0.11006-0.13758-0.11006-0.19949-0.0138-0.0963 0.15134-0.24765 0.17198-0.15822 0.34396-0.29581 0.17198-0.13758 0.17198-0.18573 7e-3 -0.055-0.17198-0.21326-0.17198-0.15822-0.34396-0.3302-0.17198-0.17886-0.17198-0.26829 7e-3 -0.0963 0.28893-0.40587 0.28892-0.30956 0.57785-0.60536 0.2958-0.29581 0.30268-0.35084 7e-3 -0.0413-0.0206-0.13759-0.0275-0.10318-0.0138-0.15822 0.0206-0.0619 0.13071-0.0619z"/>
  <path d="m119.59 161.78q0.0619 0 0.1651 0 0.18573 0 0.24765 7e-3 0.0688 7e-3 0.0688 0.0481 7e-3 0.055-0.055 0.0757-0.0619 0.0137-0.13071 0.0206-0.0688 0-0.0757 0.0275l-0.055 0.57785 1.4377-0.1651q0.0413-0.55033 0.15822-0.61225 0.0688-0.0344 0.13759-0.0344 0.0757 0 0.14446 0.0344 0.0894 0.0344 0.0275 0.42651-0.13759 1.1488-0.39212 2.2701-0.0275 0.0894-0.28204 0.11694-0.96996 0.0894-1.2658 0.26141-0.18574 0.10319-0.43339 0.35084-0.24077 0.24077-0.19261 0.35772 0.0344 0.0825 0.12382 0.11006 0.0894 0.0275 0.1651 0.0138 0.0825-0.0138 0.12383-0.0482 0.0619-0.0413-7e-3 -0.15822-0.0619-0.11007 7e-3 -0.18574 0.0344-0.0413 0.21325-7e-3 0.17886 0.0275 0.20638 0.11007 0.0482 0.12382-0.13759 0.26141-0.18573 0.14446-0.37147 0.19949-0.10319 0.0413-0.21326 0.0413-0.1651 0-0.2958-0.0894-0.0688-0.0413-0.11695-0.12383-0.0413-0.0826-0.0413-0.15822 0-0.11007 0.0619-0.19949 0.0963-0.18574 0.37836-0.35772 0.28204-0.17886 0.5916-0.29581 0.20638-0.0688 0.50218-0.1307 0.30269-0.0688 0.44715-0.11695 0.14446-0.055 0.1651-0.14446 0.11695-0.44027 0.17198-0.89429l0.10319-0.79798q-0.90805 0.11694-1.4102 0.17198-0.0413 0.65352-0.11007 0.74295-0.0688 0.0963-0.19262 0.0688-0.11694-0.0344-0.11694-0.13759 0.0275-0.64664 0.0481-1.0181 0.0275-0.37836 0.0275-0.42651-7e-3 -0.0413-0.0688-0.0206-0.0619 0.0138-0.13759 0-0.0757-0.0138-0.0757-0.0963 0-0.0757 0.45403-0.0757zm2.3596 1.9399h-7e-3q0.0619 7e-3 0.0344 0.26141-0.0206 0.1651-0.11695 0.19261-0.0963 0.0275-0.1651-0.11694-0.0138-0.0344-0.0138-0.0757 0-0.11007 0.0757-0.18574 0.0757-0.0757 0.18573-0.0757 0 0 7e-3 0z"/>
  <path d="m123.19 160.55q0.25453 0 0.35772 0.0344 0.10319 0.0275 0.1995 0.17885 0.0963 0.15135 0.17198 0.30269 0.0825 0.14446 0.17198 0.3302 0.0894 0.18574 0.15822 0.31644 0.0688 0.0619 0.1651 0.0619 0.10318 0 0.17198-0.0757 0.85301-1.1076 1.0594-1.1488 0.23389-0.0206 0.46778-0.0206 0.24077 0 0.47466 0.0206 0.055 7e-3 0.11007 7e-3 0.0619 0 0.0757 7e-3 0.0206 0 0.0275 0.0206 0.0138 0.0138 0.0138 0.055 0 0.13758-0.10319 0.17886-0.10319 0.0413-0.22013 0.0206-0.11007-0.0206-0.17886 0 0 3.1438-0.0826 3.6184-0.0482 0.24765-0.53658 0.24077-0.055-7e-3 -0.15134 0-0.0963 7e-3 -0.1651 7e-3 -0.0619 0-0.1307-7e-3 -0.0619-7e-3 -0.0963-0.0344-0.0344-0.0344-0.0275-0.0894 7e-3 -0.0619 0.0825-0.0894 0.0757-0.0275 0.1651-0.0344 0.0963-7e-3 0.17886-0.0619 0.0825-0.055 0.10319-0.17198 0.0482-0.31644 0.0688-0.79799 0.0275-0.48154 0.0413-1.1351 0.0138-0.6604 0.0275-0.91493v-0.54345q-0.11695 0.055-0.25453 0.1651-0.13758 0.11006-0.21325 0.21325-0.13071 0.1651-0.53658 0.6948-0.39899 0.52281-0.53657 0.68103-0.0413 0.055-0.11007 0.055-0.0688 0-0.11007-0.055l-0.85301-1.651q-0.0138 2.0982-0.0413 4.0725 0 0.1995 0.17198 0.23389 0.19262 0.0413 0.30956-0.17197 0.0344-0.055 0.055-0.12383 0.0413-0.1307 0.0413-0.26141 7e-3 -0.1307-0.0413-0.17198-0.13759-0.0825-0.13759-0.23389 0-0.28205 0.24765-0.28205 0.17198 0 0.22014 0.15823 0.0482 0.15134 0.0413 0.53657-7e-3 0.54346-0.63288 0.92181-0.15134 0.11007-0.34396 0.11007-0.17886 0-0.3302-0.10319-0.0825-0.0482-0.12383-0.17886-0.0344-0.1307-0.0344-0.28205 7e-3 -0.15134 7e-3 -0.32332 0.0138-0.36459 0.0344-1.3552t0.0275-1.8024l0.0138-0.81174q-7e-3 0-0.0206 0-0.0138 0-0.0481 7e-3 -0.0344 0-0.0757 0-0.0344 0-0.0825 0-0.0482 0-0.0894 0-0.0413-7e-3 -0.0825-0.0138-0.0413-7e-3 -0.0757-0.0206-0.0275-0.0138-0.0482-0.0344-0.0138-0.0275-0.0138-0.055 0-0.055 0.0206-0.0894t0.0619-0.055q0.0413-0.0275 0.10319-0.0344 0.0688-0.0138 0.15134-0.0138 0.0894-7e-3 0.1995 0 0.11006 0 0.24077 0 0.13758 0 0.28892 0z"/>
  <path d="m128.55 161.93q0.40588 7e-3 0.68792 0.30269 0.28893 0.28892 0.28893 0.69479 0 0.0138 0 0.0344 7e-3 0.30268-0.0894 0.60537-0.0963 0.30268-0.19262 0.55721-0.0963 0.25453-0.0963 0.43339-7e-3 0.0275-7e-3 0.0619 0 0.13758 0.0825 0.28892 0.0894 0.14447 0.21326 0.21326 0.11006 0.0619 0.19949 0.0413 0.0894-0.0275 0.13759-0.0757 0.0481-0.0481 0.11694-0.11006 0.0688-0.0619 0.13759-0.0825 0.10318-0.0275 0.11006 0.0619 7e-3 0.0826-0.055 0.13758-0.055 0.0482-0.14446 0.13071-0.0825 0.0825-0.11695 0.11694-0.0344 0.0275-0.0963 0.0688-0.055 0.0344-0.11694 0.055-0.18574 0.0482-0.32332-0.0138-0.13759-0.0688-0.21326-0.21326-0.0688-0.15134-0.10319-0.31644-0.0344-0.17198-0.0344-0.35083 7e-3 -0.25453 0.1307-0.75671 0.13071-0.50218 0.10319-0.77735-0.0344-0.39211-0.25453-0.65352t-0.51594-0.26141q-0.48842 0-0.78422 0.33708-0.28893 0.33708-0.41275 0.90117-0.0894 0.29581-0.0206 0.85302 0.0757 0.55033 0.0413 0.86677-7e-3 0.0825-0.0619 0.17198-0.0482 0.0894-0.11694 0.13759-0.0825 0.055-0.2339 0.0757-0.14446 0.0275-0.2614 7e-3 -0.11007-0.0206-0.11007-0.0825 7e-3 -0.0619 0.0619-0.0825 0.055-0.0275 0.11695-0.0275 0.0688 0 0.1307-0.0206 0.0619-0.0275 0.0894-0.0894 0.055-0.18573 0.0344-0.54345-0.0138-0.3646-0.0344-0.65352-0.0206-0.28893 0.0757-0.62601 0.19262-0.59161 0.56409-0.94932 0.37148-0.35772 0.87366-0.45403 0.0963-0.0138 0.19262-0.0138 7e-3 0 7e-3 0zm-0.85989 1.3414q0.055-0.1307 0.19262-0.23389 0.13758-0.10319 0.28204-0.11007 0.18574-0.0206 0.37148 0.0757 0.19261 0.0894 0.19261 0.22702 0 0.0619-0.0688 0.0825-0.0619 0.0206-0.11694-7e-3 -0.0138-7e-3 -0.19262-0.11695-0.17886-0.11006-0.27517-0.0963-0.15822 0.0138-0.21325 0.22014-0.0482 0.19949 0.0688 0.31644 0.055 0.0481 0.17198 0.15822 0.11694 0.10319 0.1651 0.15822 0.055 0.0481 0.12382 0.13758 0.0688 0.0894 0.0963 0.19262 0.0275 0.0963 0.0344 0.22013 0 0.1995-0.14446 0.35084-0.14447 0.15134-0.34396 0.1651-0.0344 0-0.0757 0-0.1995 0-0.399-0.0619-0.055-0.0206-0.055-0.0825 0-0.0413 0.0344-0.0688t0.22701 0.0138q0.1995 0.0413 0.26141 7e-3 0.055-0.0482 0.0963-0.13071 0.0413-0.0825 0.0413-0.15822 0-0.055-0.0138-0.10319-0.0275-0.14446-0.22013-0.3302-0.19262-0.18574-0.24077-0.27516-0.0619-0.13071-0.0619-0.27517t0.0619-0.27517z"/>
  <path d="m133.92 162.73q0 0.0275-0.0138 0.0688-7e-3 0.0344-0.0206 0.0688-0.0138 0.0344-0.0413 0.0825t-0.0482 0.0825q-0.0206 0.0275-0.0688 0.0894-0.0413 0.055-0.0619 0.0825t-0.0688 0.0894-0.0688 0.0894q-0.1995 0.26829-0.50218 0.52969-0.30269 0.25453-0.54346 0.40587-0.23389 0.15135-0.626 0.39212-0.39212 0.23389-0.55722 0.33708-0.11006 0.0757-0.32332 0.22013-0.21325 0.14446-0.30268 0.1995-0.0825 0.055-0.20637 0.11006-0.12383 0.055-0.22014 0.0619-0.0619 0-0.11007-0.0482-0.0413-0.0413-0.0413-0.10319v-7e-3q0.0275-0.0825 0.0757-0.15822 7e-3 -0.0206 0.0138-0.0825 0.0138-0.0619 0.0344-0.10318 0.0206-0.0482 0.0619-0.0619 0.0275-7e-3 0.10318 0.0138 0.0826 0.0138 0.12383-7e-3 0.0344-7e-3 0.30268-0.0894 0.27517-0.0894 0.40587-0.14446 0.35084-0.15822 0.81863-0.44027 0.46778-0.28204 0.77734-0.52281 0.14446-0.13071 0.31644-0.33708 0.17198-0.21326 0.26829-0.38524 0.0963-0.17197 0.0963-0.37835 0-7e-3 0-0.0138 0.0138-0.0757-0.0413-0.19949-0.0481-0.13071-0.11694-0.15823-0.12383-0.0344-0.24765-0.0344-0.18574 0-0.35772 0.0757-0.0825 0.0481-0.17886 0.15134-0.0963 0.0963-0.0963 0.15822 7e-3 0.0413 0.0344 0.0757 0.0344 0.0344 0.0757 0.0344 0.0619 0 0.10319-0.0963 0.0413-0.10319 0.1307-0.10319 0 0 7e-3 0 0.055 0 0.0963 0.0413 0.0482 0.0413 0.0482 0.10319 0 0.10318-0.14447 0.21325-0.14446 0.10319-0.22701 0.10319-0.0894 0-0.15822-0.0413-0.0619-0.0413-0.0963-0.0894-0.0344-0.055-0.11694-0.0963-0.0757-0.0482-0.1995-0.0482-0.22013 7e-3 -0.44027 0.0688-0.0275 7e-3 -0.0482 0.0206-0.0206 0.0138-0.0344 0.0206-7e-3 7e-3 -0.0138 0.0206-7e-3 0.0137-7e-3 0.0206 0 0 0 0.0138t0 0.0138q0 7e-3 0.0482 0.0825 0.0482 0.0757 0.0482 0.10319 0 0.0963-0.0963 0.13758-0.0894 0.0344-0.17885 0.0344-0.17886 0-0.17886-0.11007 0-0.0275 0.0413-0.11007 0.0413-0.0894 0.0413-0.11694 0-0.055-0.11007-0.24077-0.10319-0.18574-0.17198-0.18574-0.0894 0-0.20637 0.1651-0.11007 0.15822-0.12383 0.22701-7e-3 0.0344-7e-3 0.0619 7e-3 0.0275 0 0.0688t-0.0344 0.0825q-0.0963 0.0825-0.22014 0.0825-0.25453 0-0.25453-0.17198 0-0.055 0.0206-0.0757 0.0206-0.0206 0.0825-0.0413 0.0619-0.0275 0.0963-0.0481 0.17198-0.15822 0.26141-0.37148 0.0344-0.055 0.0757-0.14446 0.0413-0.0894 0.0619-0.12383 0.0275-0.0344 0.0688-0.0619 0.0482-0.0344 0.11695-0.0344 0.0757 0 0.1307 0.0275 0.0619 0.0275 0.0825 0.055 0.0275 0.0206 0.0894 0.0963 0.0619 0.0688 0.0825 0.0963 0.12383 0.13759 0.30957 0.15134 0.18573 0.0138 0.61224-0.0413 0.12383-0.0138 0.1995-0.0894 0.0757-0.0825 0.17198-0.19262 0.10318-0.11006 0.26141-0.1651 0.11694-0.0619 0.24765-0.0688 0.0275 0 0.0481 0 0.13758 0 0.31644 0.055 0.18574 0.0482 0.30268 0.11695 0.0894 0.0619 0.15135 0.17886 0.0688 0.11006 0.0688 0.22013 0 0.0206 0 0.0413z"/>
  <path d="m137 161.93v7e-3q0.055-0.0206 0.0894 0.055 0.0413 0.0757-0.0206 0.11006-0.46778 0.26829-1.1144 0.68792-0.64664 0.41275-1.0869 0.72919 0.14446 0 0.40587 7e-3t0.47466 7e-3q0.21326 0 0.40587-0.0138 0.11695-7e-3 0.18574 0.0688 0.0757 0.0757 0 0.1651-0.19949 0.20638-0.55721 0.57097-0.35772 0.35772-0.46778 0.47467-0.15823 0.15822-0.11007 0.17886 7e-3 7e-3 0.0275 7e-3 0.26828 7e-3 2.0431 0.0757 0.0894 7e-3 0.11007 0.10318 0.0206 0.0894-0.0275 0.17886-0.0413 0.0894-0.10319 0.0894-2.0156-0.0481-2.4765-0.0481-0.22013-7e-3 -0.21325-0.055 0-0.0138 0.0138-0.0344 0.1651-0.1995 0.35084-0.39899 0.19262-0.20638 0.44027-0.46091 0.25453-0.26141 0.37835-0.39211 0.13759-0.15134 0.0894-0.17198-0.0138-7e-3 -0.0344-7e-3h-1.1213q-0.0138 0-0.0619 0-0.0482 0-0.0825 0-0.0275 0-0.0688 0.0138-0.0344 7e-3 -0.055 0.0275-7e-3 0-0.0206 0.0137-0.0482 0.0482-0.0757 0.0688-0.0206 0.0206-0.055 0.0688-0.0344 0.0481-0.0482 0.0825t-0.0206 0.0825q0 0.0481 0.0275 0.0963 0.0138 0.0275 0.0619 0.0619 0.0482 0.0275 0.0963 0.0413t0.0825 0.0413q0.0413 0.0275 0.0413 0.055t-0.0413 0.0757q-0.0757 0.0757-0.20638 0.13071-0.12382 0.055-0.22701 0.055-0.0275 0-0.0481 0-0.17198-0.0481-0.20638-0.22701-0.0344-0.17886 0.055-0.34396 0.0825-0.15134 0.18573-0.28893 0.10319-0.13758 0.26829-0.28204 0.17198-0.15134 0.24765-0.21326 0.0826-0.0619 0.30268-0.22701 0.28205-0.22013 0.70856-0.48842t0.74983-0.42651q0.33708-0.19949 0.70855-0.35084zm-2.4971 0.55722q7e-3 0 0.0206 0 0.0688 0 0.13758 0.0413 0.0688 0.0413 0.10319 0.10319 0.0688 0.12382-0.0757 0.25453-0.14446 0.12382-0.32332 0.11007-0.1651-0.0138-0.0825-0.24765 0.0894-0.21326 0.22013-0.26141zm2.7517 1.1351q0.0894-0.0344 0.15134 0.14446 0.0275 0.13759-0.0757 0.29581-0.11006 0.15822-0.21325 0.0275-0.0482-0.0757-0.0482-0.17198 0-0.0825 0.055-0.17198 0.055-0.0894 0.1307-0.12382z"/>
 </g>
</svg>
