<?xml version="1.0" encoding="UTF-8"?>
<svg width="24" height="24" version="1.1" viewBox="0 0 24 24" xmlns="http://www.w3.org/2000/svg">
<path fill="#fff" d="m0.35579 8.7757v-7.824h1.764v6.336h3.096v1.488z"/>
<path fill="#fff" d="m7.3323 4.8159-0.192 0.72h1.668l-0.18-0.72q-0.168-0.58802-0.324-1.248t-0.312-1.272h-0.048q-0.144 0.624-0.3 1.284-0.144 0.648-0.312 1.236zm-2.832 3.9602 2.448-7.824h2.124l2.448 7.824h-1.872l-0.48-1.86h-2.388l-0.48 1.86z"/>
<path fill="#fff" d="m11.364 8.7757v-7.824h1.812l2.04 3.888 0.768 1.728h0.048q-0.06-0.624-0.144-1.392-0.072-0.768-0.072-1.464v-2.76h1.68v7.824h-1.812l-2.04-3.9001-0.768-1.704h-0.048q0.06 0.648 0.132 1.392 0.084 0.744 0.084 1.44v2.772z"/>
<path fill="#fff" d="m21.228 8.9197q-0.80398 0-1.512-0.252-0.696-0.264-1.212-0.768t-0.816-1.248q-0.288-0.75598-0.288-1.74 0-0.97202 0.3-1.728 0.3-0.768 0.816-1.296 0.528-0.528 1.224-0.80398t1.476-0.276q0.85198 0 1.464 0.312t0.99598 0.70798l-0.92402 1.128q-0.3-0.264-0.63602-0.44402t-0.84-0.18q-0.456 0-0.84 0.18-0.372 0.168-0.648 0.49202t-0.432 0.792q-0.144 0.46798-0.144 1.056 0 1.212 0.54002 1.884 0.552 0.65998 1.656 0.65998 0.24 0 0.46798-0.06t0.372-0.18v-1.344h-1.296v-1.44h2.856v3.6q-0.408 0.39602-1.08 0.672t-1.5 0.276z"/>
<path fill="#fff" d="m10.71 12.09h-2.82l1.095-0.615c-0.24-0.54002-0.705-1.335-1.11-1.95l-1.095 0.54002c0.40501 0.615 0.855 1.47 1.08 2.025h-2.715v1.11h5.565zm-0.52502 1.995h-4.4251v1.095h4.4251zm-4.4251 3.06h4.4251v-1.065h-4.4251zm3.315 2.07v2.145h-2.13v-2.145zm1.215-1.125h-4.5449v5.0699h1.2v-0.67498h3.345zm6.3602 1.02v2.43h-4.035v-2.43zm-5.325 4.2452h1.29v-0.6h4.035v0.54002h1.35v-5.4002h-6.675zm4.9051-9.5252v1.995h-2.46c0.12-0.585 0.255-1.275 0.39001-1.995zm1.29 1.995v-3.135h-3.135c0.06-0.44999 0.15-0.91499 0.225-1.335h3.9148v-1.17h-7.6199v1.17h2.325c-0.06 0.41998-0.135 0.88502-0.225 1.335h-1.74v1.14h1.545c-0.135 0.72-0.27 1.41-0.40501 1.995h-1.89v1.155h8.3399v-1.155z"/>
</svg>
