<?xml version="1.0" encoding="UTF-8"?>
<svg width="24" height="24" version="1.1" viewBox="0 0 24 24" xmlns="http://www.w3.org/2000/svg">
<path fill="#fff" d="m12.609 3.606a0.80007 0.80007 0 0 0-0.02447 2.832e-4 0.80007 0.80007 0 0 0-0.50306 0.195l-5.2638 4.5525h-4.8975a0.80007 0.80007 0 0 0-0.8 0.8v6.11a0.80007 0.80007 0 0 0 0.8 0.80007h4.8187l5.3425 4.6212a0.80007 0.80007 0 0 0 1.3231-0.60497v-15.674a0.80007 0.80007 0 0 0-0.79553-0.80027z"/>
<path fill="#fff" d="m19.704 3.68a0.8 0.8 0 0 0-0.4925 0.17625 0.8 0.8 0 0 0-0.12313 1.125c3.4165 4.2529 3.4165 10.297 0 14.55a0.8 0.8 0 0 0 0.12313 1.1244 0.8 0.8 0 0 0 1.1244-0.1225c3.8811-4.8311 3.8811-11.723 0-16.555a0.8 0.8 0 0 0-0.63187-0.29875zm-2.0894 2.08a0.8 0.8 0 0 0-0.45687 0.15625 0.8 0.8 0 0 0-0.16937 1.1181c2.2905 3.1074 2.2905 7.336 0 10.443a0.8 0.8 0 0 0 0.16937 1.1187 0.8 0.8 0 0 0 1.1187-0.16937c2.7026-3.6665 2.7026-8.6747 0-12.341a0.8 0.8 0 0 0-0.66187-0.32563zm-2.2706 2.2719a0.8 0.8 0 0 0-0.4225 0.13125 0.8 0.8 0 0 0-0.23 1.1081c1.1907 1.8141 1.1907 4.1559 0 5.97a0.8 0.8 0 0 0 0.23 1.1075 0.8 0.8 0 0 0 1.1075-0.23c1.5381-2.3435 1.5381-5.3821 0-7.7253a0.8 0.8 0 0 0-0.685-0.36125z"/>
</svg>
