<?xml version="1.0" encoding="UTF-8"?>
<svg width="194.11mm" height="235.27mm" version="1.1" viewBox="0 0 194.11 235.27" xmlns="http://www.w3.org/2000/svg" xmlns:cc="http://creativecommons.org/ns#" xmlns:dc="http://purl.org/dc/elements/1.1/" xmlns:rdf="http://www.w3.org/1999/02/22-rdf-syntax-ns#">
 <defs>
  <filter id="filter1396-1" x="-.029126" y="-.085074" width="1.0583" height="1.1701" color-interpolation-filters="sRGB">
   <feGaussianBlur stdDeviation="0.61158604"/>
  </filter>
  <filter id="filter1795-8-5" x="-.13746" y="-.40149" width="1.2749" height="1.803" color-interpolation-filters="sRGB">
   <feGaussianBlur stdDeviation="2.8863077"/>
  </filter>
  <filter id="filter1668" x="-.034974" y="-.095504" width="1.0699" height="1.191" color-interpolation-filters="sRGB">
   <feGaussianBlur stdDeviation="0.61128085"/>
  </filter>
  <filter id="filter1755" x="-.09901" y="-.27037" width="1.198" height="1.5407" color-interpolation-filters="sRGB">
   <feGaussianBlur stdDeviation="1.7304993"/>
  </filter>
 </defs>
 <g transform="matrix(.44895 0 0 .44895 36.685 .55105)">
  <path d="m150.27 92.065v-32.855h7.4074v12.648h11.338v-12.648h7.4578v32.855h-7.4578v-13.706h-11.338v13.706z"/>
  <path d="m182.23 92.065v-32.855h9.2718q3.7793 0 6.8027 0.95742t5.1902 2.973q2.1668 1.9652 3.3258 5.039t1.159 7.3066-1.159 7.357-3.2754 5.1902q-2.1164 2.0156-5.0894 3.0234-2.9226 1.0078-6.5508 1.0078zm7.4074-5.9965h1.4109q2.1164 0 3.8297-0.55429t2.9226-1.7637q1.2094-1.2598 1.8644-3.2754 0.70546-2.0156 0.70546-4.9886 0-2.9226-0.70546-4.8879-0.65508-2.0156-1.8644-3.1746-1.2094-1.2094-2.9226-1.7133t-3.8297-0.5039h-1.4109z"/>
  <path d="m26.88 54.47 0.36-4.25c4.68-0.43 5.54-0.79 5.54-2.59a12.81 12.81 0 0 0-0.36-2.52l-1.51-5.54c-1.87-0.08-4.9-0.15-6.63-0.15-2.3 0-5.18 0.36-6.91 0.51l-1.8 5.54a10.11 10.11 0 0 0-0.43 2.23c0 1.73 0.86 2.31 3.38 2.31h3.1l0.36 0.5-0.5 4.39s-5.91-0.43-10.52-0.43c-3.88 0-8.64 0.22-8.64 0.22l0.51-4.68c2.23-0.36 3.53-1.66 4.75-4.9l10.25-29.47 7.64-13.34 8.43 12.86s4.79 17.47 8.75 29.86c1 3.45 2.37 4.68 5.69 5l0.28 0.5-0.5 4.18s-5.69-0.22-8.79-0.22c-6.12 0-12.09 0.58-12.09 0.58zm-7.78-20.59h5.18c1.52 0 3.82-0.15 5.33-0.22l-4.63-17.49"/>
  <path d="m50.13 45.4v-14.33c0-3.24-0.72-4.25-3.09-4.25-0.58 0-1.37 0.07-1.37 0.07l-0.36-0.5 0.43-3.6c6.12-1 13-2.45 13-2.45l0.65 0.65a53 53 0 0 0-0.72 6.77l0.43 0.28c3-4.53 6.84-7.12 10.08-7.12a14.63 14.63 0 0 1 2.52 0.21l0.29 0.58s-1.15 7.2-1.44 13l-4.61 0.29c0-4.54-0.36-5.69-2-5.69s-3.39 1.22-4.9 3.24c0 0-0.65 12.6-0.65 13.9 0 2.52 0.65 3.31 2.81 3.31 1.3 0 3.6-0.22 3.6-0.22l0.22 0.44-0.8 4.75s-5.9-0.29-9.28-0.29c-4.4 0-9 0.29-9 0.29l0.58-4.39c2.82-0.19 3.61-1.2 3.61-4.94z"/>
  <path d="m69.74 38.77c0-10.73 7.27-18.36 17.49-18.36a27.94 27.94 0 0 1 9.15 1.44l0.29 0.65a71.53 71.53 0 0 0-1.59 11.09l-4.61 0.29v-2.38c0-3.31-1.65-5.11-4.53-5.11-4.47 0-6.91 3.38-6.91 9.58 0 7.92 2.88 12.24 8 12.24a17.67 17.67 0 0 0 7.7-2.09l0.51 0.21 1.15 3.68s-6.48 5.32-10.8 5.32c-9.85-0.03-15.85-6.33-15.85-16.56z"/>
  <path d="m94.2 38.84c0-10.94 7-18.43 17.35-18.43 9.36 0 15.12 6.34 15.12 16.42 0 10.94-7 18.5-17.28 18.5-9.22-0.03-15.19-6.55-15.19-16.49zm23 1.3c0-9.14-2.67-13.68-7.28-13.68-4.1 0-6.33 3.31-6.33 9.79 0 9.15 2.66 13.68 7.27 13.68 4.07 0 6.31-3.31 6.31-9.79z"/>
  <path d="m138.74 21.92h-0.57c-0.07 2.6-1.66 24-1.66 25.71 0 1.58 0.72 2.3 2.31 2.3l2.44-0.07 0.44 0.36-0.8 4.54c-1.51-0.07-6.33-0.29-8.42-0.29a57.34 57.34 0 0 0-7.13 0.58l0.43-4.68c2.81-0.29 3.82-1.52 4.4-5.19 0.36-3.17 2.88-27.36 2.88-29 0-2.59-1.16-3.31-5.48-3.67l-0.36-0.43 0.65-4.18c2.38 0.15 7.06 0.36 9 0.36 2.31 0 6.12-0.21 7.64-0.29 4.1 14.48 8.28 27.08 9.21 30.18h0.58c0.86-3 5.18-15.63 9.65-30 1.44 0 4 0.14 6.26 0.14 0.79 0 1.59-0.07 2.23-0.07 2.31 0 6.7-0.36 7.35-0.43l0.29 0.29-0.44 4.32c-4.1 0.36-5.32 1.22-5.32 3.82 0 3.09 1 18.5 1.72 27.07 0.58 5.26 1.23 6.62 3.53 6.62 0.79 0 1.8-0.14 2-0.14l0.29 0.36-0.65 4.54c-0.87 0-4.75-0.22-7.27-0.22-3.17 0-9.94 0.5-10.23 0.58l0.5-4.68c2.81-0.36 4-1.37 4-3.6s-1.44-19.95-1.51-24.85h-0.65c-2.6 7.2-7 19.73-11.24 33.05l-4.89 0.65c-4.31-13.95-8.56-26.3-11.18-33.68z"/>
  <path d="m197.66 49.79-0.58-0.22c-2.88 3-6.12 5.48-7.92 5.48-5.61 0-9.86-4.47-9.86-10.44a5.94 5.94 0 0 1 4.18-6l13.89-3.24 0.08-1.73c0-4.1-2.31-6.55-6.2-6.55-2.66 0-6 1.51-8.42 3.38l-0.65-0.29-1.22-4.32c4.17-2.37 10.72-5.47 13.17-5.47 8.36 0 12 4.25 12 9.79 0 2.45-1.44 11.6-1.44 14.84 0 1.8 1 2.95 2.59 2.95a6.83 6.83 0 0 0 3.45-1.22l1.01 1.55c-1.44 2.59-4.32 6.33-6.91 7-4.22 0-6.74-1.91-7.17-5.51zm-0.65-3.67 0.22-6.84-7.71 2.16a2.11 2.11 0 0 0-1.72 2.37 4.08 4.08 0 0 0 4 4.4 9.78 9.78 0 0 0 5.21-2.09z"/>
  <path d="m237.12 24.95-0.29 0.43a9.92 9.92 0 0 1 2.88 7.13c0 7.34-6.55 12.82-15.48 12.82a19.35 19.35 0 0 1-4.68-0.58c-1.23 0.94-1.73 1.66-1.73 2.45 0 5.18 24.26 0.07 24.26 11.3 0 6.84-9.28 13.4-19.08 13.4-7.63 0-12.67-4-12.67-10.16a38.79 38.79 0 0 1 7.2-5.25v-0.51c-4.54-0.79-7.2-3.45-7.42-7.34a32.73 32.73 0 0 1 5.91-4.83v-0.43a10.77 10.77 0 0 1-5.47-9.72c0-7.63 6.33-13.32 14.9-13.32 3 0 5.19 0.72 7.42 0.72a63.56 63.56 0 0 0 10.08-2.38l0.43 0.29-0.93 5.55c-1.81 0.21-3.89 0.36-5.33 0.43zm-17.86 37.15c0 2.81 2.37 4.47 6.48 4.47 4.75 0 8.35-2.31 8.35-5.33 0-2.31-1.87-2.95-12.1-4.32a7.17 7.17 0 0 0-2.73 5.18zm11.66-28.51c0-5-2.37-7.92-6.19-7.92-3.45 0-5.33 2.52-5.33 7 0 4.9 2.31 7.85 6.12 7.85 3.46 0.05 5.4-2.39 5.4-6.93z"/>
  <path d="m238.84 38.77c0-10.44 7.28-18.36 17-18.36 8 0 12.09 4.11 12.09 12.24a18.24 18.24 0 0 1-0.5 4l-0.86 0.87h-18.65c0.14 7.06 3.52 10.8 9.21 10.8a21.67 21.67 0 0 0 8.57-2.16l0.5 0.29 1.16 3.53c-3 2.3-8.43 5.32-12.24 5.32-10.09 0-16.28-6.3-16.28-16.53zm18.9-5.76c1.15-0.07 1.37-0.36 1.37-1.65 0-3.53-1.59-5.33-4.54-5.33-3.74 0-6.19 2.59-6.69 7.56z"/>
  <g fill="#ee3625">
   <path d="m25.56 53.17 0.36-4.25c4.68-0.43 5.54-0.79 5.54-2.59a12.81 12.81 0 0 0-0.36-2.52l-1.51-5.54c-1.87-0.08-4.9-0.15-6.63-0.15-2.3 0-5.18 0.36-6.91 0.51l-1.8 5.54a10.11 10.11 0 0 0-0.43 2.23c0 1.73 0.86 2.31 3.38 2.31h3.1l0.36 0.5-0.5 4.39s-5.91-0.43-10.52-0.43c-3.88 0-8.64 0.22-8.64 0.22l0.51-4.68c2.23-0.36 3.53-1.66 4.75-4.9l10.25-29.47 7.64-13.34 8.43 12.86s4.79 17.47 8.75 29.86c1 3.45 2.37 4.68 5.69 5l0.28 0.5-0.5 4.18s-5.69-0.22-8.79-0.22c-6.12 0-12.09 0.58-12.09 0.58zm-7.78-20.59h5.18c1.52 0 3.82-0.15 5.33-0.22l-4.63-17.49"/>
   <path d="m48.81 44.1v-14.33c0-3.24-0.72-4.25-3.09-4.25-0.58 0-1.37 0.07-1.37 0.07l-0.36-0.5 0.43-3.6c6.12-1 13-2.45 13-2.45l0.65 0.65a53 53 0 0 0-0.72 6.77l0.43 0.28c3-4.53 6.84-7.12 10.08-7.12a14.63 14.63 0 0 1 2.52 0.21l0.29 0.58s-1.15 7.2-1.44 13l-4.61 0.29c0-4.54-0.36-5.69-2-5.69s-3.39 1.22-4.9 3.24c0 0-0.65 12.6-0.65 13.9 0 2.52 0.65 3.31 2.81 3.31 1.3 0 3.6-0.22 3.6-0.22l0.22 0.44-0.8 4.75s-5.9-0.29-9.28-0.29c-4.4 0-9 0.29-9 0.29l0.58-4.39c2.82-0.19 3.61-1.2 3.61-4.94z"/>
   <path d="m68.42 37.47c0-10.73 7.27-18.36 17.49-18.36a27.94 27.94 0 0 1 9.15 1.44l0.29 0.65a71.53 71.53 0 0 0-1.59 11.09l-4.61 0.29v-2.38c0-3.31-1.65-5.11-4.53-5.11-4.47 0-6.91 3.38-6.91 9.58 0 7.92 2.88 12.24 8 12.24a17.67 17.67 0 0 0 7.7-2.09l0.51 0.21 1.15 3.68s-6.48 5.32-10.8 5.32c-9.85-0.03-15.85-6.33-15.85-16.56z"/>
   <path d="m92.88 37.54c0-10.94 7-18.43 17.35-18.43 9.36 0 15.12 6.34 15.12 16.42 0 10.94-7 18.5-17.28 18.5-9.22-0.03-15.19-6.55-15.19-16.49zm23 1.3c0-9.14-2.67-13.68-7.28-13.68-4.1 0-6.33 3.31-6.33 9.79 0 9.15 2.66 13.68 7.27 13.68 4.07 0 6.31-3.31 6.31-9.79z"/>
   <path d="m137.42 20.62h-0.57c-0.07 2.6-1.66 24-1.66 25.71 0 1.58 0.72 2.3 2.31 2.3l2.44-0.07 0.44 0.36-0.8 4.54c-1.51-0.07-6.33-0.29-8.42-0.29a57.34 57.34 0 0 0-7.13 0.58l0.43-4.68c2.81-0.29 3.82-1.52 4.4-5.19 0.36-3.17 2.88-27.36 2.88-29 0-2.59-1.16-3.31-5.48-3.67l-0.36-0.43 0.65-4.18c2.38 0.15 7.06 0.36 9 0.36 2.31 0 6.12-0.21 7.64-0.29 4.1 14.48 8.28 27.08 9.21 30.18h0.58c0.86-3 5.18-15.63 9.65-30 1.44 0 4 0.14 6.26 0.14 0.79 0 1.59-0.07 2.23-0.07 2.31 0 6.7-0.36 7.35-0.43l0.29 0.29-0.44 4.32c-4.1 0.36-5.32 1.22-5.32 3.82 0 3.09 1 18.5 1.72 27.07 0.58 5.26 1.23 6.62 3.53 6.62 0.79 0 1.8-0.14 2-0.14l0.29 0.36-0.65 4.54c-0.87 0-4.75-0.22-7.27-0.22-3.17 0-9.94 0.5-10.23 0.58l0.5-4.68c2.81-0.36 4-1.37 4-3.6s-1.44-19.95-1.51-24.85h-0.65c-2.6 7.2-7 19.73-11.24 33.05l-4.89 0.65c-4.31-13.95-8.56-26.3-11.18-33.68z"/>
   <path d="m196.34 48.49-0.58-0.22c-2.88 3-6.12 5.48-7.92 5.48-5.61 0-9.86-4.47-9.86-10.44a5.94 5.94 0 0 1 4.18-6l13.89-3.24 0.08-1.73c0-4.1-2.31-6.55-6.2-6.55-2.66 0-6 1.51-8.42 3.38l-0.65-0.29-1.22-4.32c4.17-2.37 10.72-5.47 13.17-5.47 8.36 0 12 4.25 12 9.79 0 2.45-1.44 11.6-1.44 14.84 0 1.8 1 2.95 2.59 2.95a6.83 6.83 0 0 0 3.45-1.22l1.01 1.55c-1.44 2.59-4.32 6.33-6.91 7-4.22 0-6.74-1.91-7.17-5.51zm-0.65-3.67 0.22-6.84-7.71 2.16a2.11 2.11 0 0 0-1.72 2.37 4.08 4.08 0 0 0 4 4.4 9.78 9.78 0 0 0 5.21-2.09z"/>
   <path d="m235.8 23.65-0.29 0.43a9.92 9.92 0 0 1 2.88 7.13c0 7.34-6.55 12.82-15.48 12.82a19.35 19.35 0 0 1-4.68-0.58c-1.23 0.94-1.73 1.66-1.73 2.45 0 5.18 24.26 0.07 24.26 11.3 0 6.84-9.28 13.4-19.08 13.4-7.63 0-12.67-4-12.67-10.16a38.79 38.79 0 0 1 7.2-5.25v-0.51c-4.54-0.79-7.2-3.45-7.42-7.34a32.73 32.73 0 0 1 5.91-4.83v-0.43a10.77 10.77 0 0 1-5.47-9.72c0-7.63 6.33-13.32 14.9-13.32 3 0 5.19 0.72 7.42 0.72a63.56 63.56 0 0 0 10.08-2.38l0.43 0.29-0.93 5.55c-1.81 0.21-3.89 0.36-5.33 0.43zm-17.86 37.15c0 2.81 2.37 4.47 6.48 4.47 4.75 0 8.35-2.31 8.35-5.33 0-2.31-1.87-2.95-12.1-4.32a7.17 7.17 0 0 0-2.73 5.18zm11.66-28.51c0-5-2.37-7.92-6.19-7.92-3.45 0-5.33 2.52-5.33 7 0 4.9 2.31 7.85 6.12 7.85 3.46 0.05 5.4-2.39 5.4-6.93z"/>
   <path d="m237.52 37.47c0-10.44 7.28-18.36 17-18.36 8 0 12.09 4.11 12.09 12.24a18.24 18.24 0 0 1-0.5 4l-0.86 0.87h-18.65c0.14 7.06 3.52 10.8 9.21 10.8a21.67 21.67 0 0 0 8.57-2.16l0.5 0.29 1.16 3.53c-3 2.3-8.43 5.32-12.24 5.32-10.09 0-16.28-6.3-16.28-16.53zm18.9-5.76c1.15-0.07 1.37-0.36 1.37-1.65 0-3.53-1.59-5.33-4.54-5.33-3.74 0-6.19 2.59-6.69 7.56z"/>
  </g>
  <g fill="#1273eb">
   <path d="m148.94 90.765v-32.855h7.4074v12.648h11.338v-12.648h7.4578v32.855h-7.4578v-13.706h-11.338v13.706z"/>
   <path d="m180.91 90.765v-32.855h9.2718q3.7793 0 6.8027 0.95742t5.1902 2.973q2.1668 1.9652 3.3258 5.039t1.159 7.3066-1.159 7.357-3.2754 5.1902q-2.1164 2.0156-5.0894 3.0234-2.9226 1.0078-6.5508 1.0078zm7.4074-5.9965h1.4109q2.1164 0 3.8297-0.55429t2.9226-1.7637q1.2094-1.2598 1.8644-3.2754 0.70546-2.0156 0.70546-4.9886 0-2.9226-0.70546-4.8879-0.65508-2.0156-1.8644-3.1746-1.2094-1.2094-2.9226-1.7133t-3.8297-0.5039h-1.4109z"/>
  </g>
 </g>
 <g transform="matrix(.34346 0 0 .34346 9.128 49.481)">
  <path d="m460.14 300.14h-231.74v-300.14h231.74c6.827 0 11.071 7.418 7.608 13.303l-80.449 136.77 80.45 136.77c3.462 5.884-0.78 13.303-7.608 13.303z" fill="#e6e6e6"/>
  <path d="m299.02 344.28h-194.21c-4.875 0-8.828-3.953-8.828-8.828v-282.48c0-4.875 3.953-8.828 8.828-8.828h203.03v291.31c0 4.875-3.952 8.828-8.827 8.828z" fill="#f9f9f9"/>
  <polygon points="228.4 44.138 228.4 0 307.85 44.138" fill="#ccc"/>
  <path d="m69.504 26.483h-8.828c-4.875 0-8.828 3.953-8.828 8.828v467.86c0 4.875 3.953 8.828 8.828 8.828h8.828c4.875 0 8.828-3.953 8.828-8.828v-467.86c-1e-3 -4.875-3.953-8.827-8.828-8.827z" fill="#d2aa82"/>
  <g fill="#784421">
   <path d="m51.848 79.448h44.138v-17.655h-44.138c-4.875 0-8.828 3.953-8.828 8.828 1e-3 4.875 3.952 8.827 8.828 8.827z"/>
   <path d="m51.848 326.62h44.138v-17.655h-44.138c-4.875 0-8.828 3.953-8.828 8.828 1e-3 4.874 3.952 8.827 8.828 8.827z"/>
  </g>
  <path d="m78.331 44.138h-26.483v-8.828c0-4.875 3.953-8.828 8.828-8.828h8.828c4.875 0 8.828 3.953 8.828 8.828v8.828z" fill="#be876b"/>
 </g>
 <g transform="translate(54.693 -22.048)">
  <path d="m86.28 139.88c-0.11024-9e-3 -0.22279 9e-3 -0.33745 0.0527-0.15875 0.0882-0.34385 0.22972-0.55552 0.42375-0.19403 0.17638-0.39708 0.3702-0.60875 0.58187-0.21167 0.19404-0.58188 0.45862-1.111 0.79375-0.52917 0.3175-1.1645 0.65284-1.9053 1.0056-0.12347 0.0353-0.20295 0.10552-0.23823 0.21135s-0.03528 0.19403 0 0.26458c0.03528 0.0705 0.07938 0.10594 0.13229 0.10594 0.38806-0.0176 0.7675-0.0884 1.1379-0.21187l-0.31729 4.7625c0.52916-0.44098 1.1286-0.74966 1.7989-0.92604 0.72319-0.12348 1.0406 0.13239 0.9524 0.76739-0.10583 0.75848-0.44938 1.3938-1.0315 1.9053-0.56445 0.51152-1.2085 0.68791-1.9317 0.52916l-0.39688 4.8416-1.6934 0.29094c-0.2293 0.0706-0.35288 0.25618-0.37052 0.55604-0.01764 0.21166 0.07056 0.29985 0.26458 0.26459l5.7945-0.95292-0.10594 0.23823c-0.0529 0.17639-0.0704 0.34407-0.0527 0.50281 0.0176 0.1764 0.0971 0.26458 0.23823 0.26458 0.0706 0 0.1408-0.0174 0.21136-0.0527 0.0706-0.0353 0.15003-0.0973 0.23822-0.18552 0.0882-0.0705 0.15897-0.1408 0.21188-0.21135 0.0705-0.0706 0.15003-0.16798 0.23823-0.29146 0.10583-0.1411 0.18479-0.24673 0.2377-0.31729 0.0529-0.0705 0.1324-0.19413 0.23823-0.37052 0.10583-0.1764 0.1766-0.28203 0.21188-0.31729 0.10582-0.17639 0.13197-0.32663 0.0791-0.45011-0.0353-0.12347-0.1409-0.185-0.31729-0.185-0.42333 0.10584-0.79354 0.32632-1.111 0.66146l-2.8314 0.3173 0.29094-3.1218 0.60875-0.68781c0.42333-0.47625 0.8643-1.1116 1.3229-1.9053 0.45861-0.79375 0.73191-1.508 0.82011-2.143 0.0529-0.4057-0.14091-0.66157-0.58188-0.7674-0.44097-0.12347-1.0409-0.0707-1.7994 0.15865l0.26454-3.8628 0.4501-0.37052c0.29986-0.24693 0.64341-0.53767 1.0315-0.87281 0.4057-0.33514 0.69695-0.59101 0.87334-0.7674 0.15874-0.19402 0.15003-0.33503-0.0264-0.42322-0.10584-0.0617-0.21377-0.0971-0.32401-0.10594zm12.401 1.2702c-0.17639 0-0.35278 0.0441-0.52917 0.13229-0.29986 0.15875-0.5024 0.94379-0.60823 2.3549l-5.5299 0.63459 0.21135-2.2221c0.0176-0.0705 0.11507-0.10593 0.29146-0.10593 0.17639-0.0177 0.34354-0.0443 0.50229-0.0796 0.15875-0.0529 0.22952-0.14983 0.21188-0.29094 0-0.10587-0.0882-0.1674-0.26459-0.185-0.15875-0.0177-0.47614-0.0269-0.95239-0.0269h-0.63511c-1.1642 0-1.7461 0.0974-1.7461 0.29146 0 0.21167 0.0969 0.33473 0.29094 0.37 0.19402 0.0353 0.37041 0.0353 0.52916 0 0.15875-0.0529 0.24695-0.0263 0.26459 0.0796 0 0.12347-0.0354 0.67007-0.10594 1.6402-0.0529 0.9525-0.11445 2.258-0.185 3.916 0 0.26458 0.14972 0.44097 0.44958 0.52916 0.3175 0.0705 0.56465-0.0177 0.74104-0.26458 0.17639-0.22931 0.3174-1.182 0.42323-2.8577 1.2876-0.14111 3.0956-0.3616 5.424-0.66146l-0.39687 3.0696c-0.14112 1.1642-0.3616 2.3107-0.66146 3.4396-0.0529 0.2293-0.26469 0.41441-0.63511 0.55552-0.37041 0.12347-0.94368 0.2732-1.7198 0.44958-0.75847 0.15875-1.402 0.32642-1.9312 0.50282-0.79375 0.29985-1.5526 0.67931-2.2758 1.1379-0.72319 0.44098-1.2083 0.89938-1.4552 1.3756-0.15875 0.22931-0.23772 0.48517-0.23772 0.7674 0 0.19402 0.0528 0.39656 0.15865 0.60823 0.12347 0.21166 0.2732 0.37062 0.44959 0.47645 0.33513 0.2293 0.71458 0.34417 1.1379 0.34417 0.28222 0 0.55552-0.0533 0.82011-0.15917 0.47625-0.1411 0.9526-0.39646 1.4288-0.76687 0.47625-0.35278 0.65264-0.68813 0.52917-1.0056-0.0706-0.21166-0.33514-0.35268-0.79375-0.42323-0.45862-0.0882-0.73192-0.0795-0.82011 0.0264-0.17639 0.19403-0.18562 0.43194-0.0269 0.71417 0.17639 0.29986 0.18562 0.50291 0.0269 0.60875-0.10583 0.0882-0.26479 0.14973-0.47646 0.185-0.19403 0.0353-0.4058 0.0178-0.6351-0.0527-0.22931-0.0705-0.38775-0.21157-0.47594-0.42323-0.12347-0.29986 0.12316-0.75879 0.74052-1.3762 0.635-0.635 1.1908-1.0847 1.6671-1.3493 0.75847-0.44097 2.3814-0.7758 4.8684-1.0051 0.65264-0.0706 1.0141-0.22081 1.0847-0.45011 0.65264-2.8751 1.1551-5.7856 1.5079-8.7312 0.15875-1.0054 0.12336-1.552-0.10594-1.6402-0.17639-0.0882-0.36149-0.13229-0.55552-0.13229zm17.433 0.19481c-0.0419-2e-3 -0.0741 3e-3 -0.0961 0.0165-0.0882 0.0353-0.16767 0.13271-0.23823 0.29146-0.0706 0.14111-0.16746 0.21136-0.29094 0.21136l-12.832 0.0527v5.2e-4c-0.0882 0-0.20254-9e-3 -0.34365-0.0269-0.12347-0.0353-0.23833-0.0702-0.34416-0.10542-0.0882-0.0353-0.18511-0.0619-0.29094-0.0796-0.10583-0.0353-0.19403-0.044-0.26458-0.0264-0.0529 0-0.10572 0.0174-0.15865 0.0527-0.0529 0.0353-0.0796 0.11475-0.0796 0.23823 0 0.10583 0.0266 0.24684 0.0796 0.42323 0.0529 0.17638 0.25545 0.30867 0.60823 0.39687 0.37041 0.0882 0.65295 0.13229 0.84698 0.13229h0.50229l-0.60823 4.9475c-0.17638-0.0706-0.36149-0.12338-0.55552-0.15865-0.0706 0-0.1239 0.0795-0.15916 0.23823-0.0353 0.14112-0.0173 0.22931 0.0532 0.26458 0.79375 0.47625 1.5788 0.9526 2.3549 1.4289 0.0705 0.0353 0.1408 0.0173 0.21135-0.0532 0.0705-0.0882 0.11463-0.18511 0.1323-0.29094 0.0353-0.10582 0.0353-0.18529 0-0.23823-0.0882-0.10583-0.22921-0.25556-0.42323-0.44958l0.10594-0.9524c0.0529-0.65263 0.1411-1.4551 0.26458-2.4076 0.12347-0.9525 0.25576-1.7288 0.39687-2.3286l6.7996-0.15864c-0.44097 1.658-0.97885 3.1748-1.6138 4.5506-0.61736 1.3582-1.2347 2.4606-1.8521 3.3073-0.59972 0.84666-1.2878 1.6404-2.064 2.3812-0.77611 0.74083-1.4283 1.288-1.9575 1.6407-0.51153 0.33515-1.1115 0.70536-1.7994 1.111-0.67027 0.42333-1.1025 0.71457-1.2966 0.87333 0.22931 0 0.58209-0.0795 1.0583-0.23823 0.47625-0.15875 1.0582-0.41461 1.7461-0.7674 0.70556-0.33514 1.4378-0.74944 2.1962-1.2433 0.77611-0.51152 1.5786-1.1556 2.4076-1.9317 0.84666-0.7761 1.6317-1.614 2.3549-2.5135 0.74084-0.91722 1.4377-2.0017 2.0903-3.2541 0.65265-1.27 1.1731-2.6022 1.5612-3.9956 0.70555 0 1.3229-0.11434 1.8521-0.34364 0.635-0.26458 0.73191-0.52045 0.29094-0.7674-0.30427-0.14553-0.51925-0.2218-0.64492-0.22841zm12.501 0.57258c-0.9525 0.38806-1.8611 0.83775-2.7254 1.3493-0.82903 0.4057-1.7899 0.9523-2.8835 1.6402s-2.0022 1.314-2.7254 1.8784c-0.56445 0.42333-0.9526 0.71458-1.1643 0.87333-0.19403 0.15876-0.51142 0.43205-0.9524 0.82011-0.42333 0.37041-0.7674 0.73191-1.032 1.0847-0.26458 0.35279-0.50251 0.72351-0.71417 1.1116-0.22931 0.42333-0.30007 0.86431-0.21187 1.3229 0.0882 0.45862 0.35277 0.74934 0.79375 0.87282h0.18551c0.26458 0 0.55532-0.0702 0.87282-0.21136 0.33514-0.14111 0.59972-0.30878 0.79375-0.50281 0.10583-0.12347 0.15865-0.22038 0.15865-0.29094 0-0.0705-0.0528-0.14132-0.15865-0.21187-0.0882-0.0706-0.19382-0.12338-0.3173-0.15865-0.12347-0.0353-0.24704-0.0881-0.37052-0.15865-0.12348-0.0882-0.20296-0.16767-0.23822-0.23822-0.0705-0.12348-0.10594-0.24706-0.10594-0.37052 0.0177-0.12348 0.0443-0.2291 0.0796-0.3173s0.0968-0.19434 0.185-0.31781c0.0882-0.12346 0.15894-0.21165 0.21187-0.26458 0.0705-0.0529 0.16747-0.14111 0.29094-0.26459 0.0353-0.0353 0.0619-0.0527 0.0796-0.0527 0.0529-0.0529 0.12317-0.0883 0.21136-0.10593 0.10583-0.0353 0.19403-0.0527 0.26458-0.0527h4.8684c0.0529 0 0.097 9e-3 0.13229 0.0264 0.12348 0.0529 9e-3 0.2734-0.34365 0.66145-0.3175 0.33514-0.80256 0.83816-1.4552 1.5084-0.635 0.65264-1.1996 1.2433-1.6934 1.7725-0.47625 0.51153-0.92594 1.0233-1.3493 1.5348-0.0353 0.0529-0.0532 0.097-0.0532 0.13229-0.0176 0.12345 0.25618 0.19369 0.82062 0.21136 1.1818 0 4.3563 0.062 9.5245 0.18552 0.15875 0 0.29104-0.11486 0.39688-0.34417 0.12349-0.2293 0.15887-0.4585 0.10593-0.68781-0.0529-0.24692-0.19392-0.37921-0.42323-0.39688-4.5508-0.17636-7.17-0.27327-7.8579-0.29093-0.0529 0-0.0883-9e-3 -0.10594-0.0269-0.12347-0.0529 0.0175-0.28212 0.42323-0.68782 0.28222-0.29986 0.88215-0.90851 1.7994-1.8257 0.91722-0.93485 1.6315-1.6666 2.143-2.1957 0.19403-0.2293 0.19403-0.44107 0-0.6351-0.17639-0.19405-0.4143-0.28225-0.71416-0.26458-0.49389 0.0353-1.0143 0.0527-1.5612 0.0527s-1.1554-9e-3 -1.8257-0.0264c-0.67028-0.0177-1.1907-0.0264-1.5611-0.0264 1.1289-0.81139 2.5226-1.7462 4.1806-2.8045 1.658-1.076 3.0866-1.9579 4.286-2.6458 0.15877-0.0882 0.18542-0.22972 0.0796-0.42375-0.0882-0.19404-0.20305-0.26428-0.34416-0.21135zm-9.6041 2.143c-0.33514 0.12348-0.61767 0.4583-0.84698 1.0051-0.21166 0.59973-0.10552 0.91713 0.31781 0.95239 0.45861 0.0353 0.87293-0.10573 1.2433-0.42323 0.37042-0.33514 0.46733-0.66124 0.29094-0.97874-0.0882-0.15876-0.22049-0.29105-0.39688-0.39688-0.17638-0.10583-0.35277-0.15865-0.52917-0.15865zm10.668 4.345c-0.0276 2e-3 -0.0556 0.01-0.0842 0.0207-0.19403 0.0882-0.3617 0.24663-0.50281 0.47593-0.14112 0.22931-0.21188 0.4498-0.21188 0.66146 0 0.24695 0.062 0.46744 0.18552 0.66146 0.26459 0.33514 0.53789 0.29977 0.82011-0.10594 0.26458-0.40569 0.36149-0.78462 0.29093-1.1374-0.1389-0.40129-0.30471-0.59356-0.49764-0.57619zm-29.25 0.41754c-0.28222 0-0.52014 0.0969-0.71418 0.29094-0.19403 0.19403-0.29094 0.43195-0.29094 0.71417 0 0.10583 0.0174 0.20274 0.0527 0.29094 0.17639 0.37042 0.38816 0.52065 0.6351 0.4501 0.24693-0.0706 0.39665-0.31771 0.44959-0.74104 0.0705-0.65261 0.0264-0.98744-0.13229-1.0051z" fill="#6da9f4" filter="url(#filter1396-1)" opacity=".78033" stroke="#6da9f4" stroke-linejoin="round" stroke-width="1.5875"/>
  <path d="m86.28 139.88c-0.11025-9e-3 -0.2228 9e-3 -0.33745 0.0527-0.15875 0.0882-0.34386 0.22973-0.55552 0.42375-0.19403 0.17639-0.39708 0.37021-0.60875 0.58188-0.21167 0.19403-0.58188 0.45862-1.111 0.79375-0.52917 0.3175-1.1645 0.65284-1.9053 1.0056-0.12346 0.0353-0.20294 0.10552-0.23822 0.21136-0.0353 0.10583-0.0353 0.19403 0 0.26458 0.0353 0.0705 0.0794 0.10594 0.13229 0.10594 0.38805-0.0176 0.7675-0.0884 1.1379-0.21188l-0.31729 4.7625c0.52916-0.44097 1.1286-0.74965 1.7989-0.92604 0.72319-0.12347 1.0406 0.1324 0.95239 0.7674-0.10583 0.75847-0.44938 1.3938-1.0315 1.9053-0.56444 0.51153-1.2085 0.68792-1.9317 0.52917l-0.39688 4.8416-1.6934 0.29094c-0.2293 0.0706-0.35288 0.25618-0.37052 0.55604-0.0176 0.21165 0.0706 0.29985 0.26458 0.26458l5.7945-0.95291-0.10594 0.23822c-0.0529 0.17639-0.0704 0.34407-0.0527 0.50282 0.0176 0.17639 0.0971 0.26458 0.23823 0.26458 0.0705 0 0.1408-0.0174 0.21135-0.0527 0.0706-0.0353 0.15004-0.0973 0.23823-0.18552 0.0882-0.0705 0.15896-0.1408 0.21188-0.21135 0.0705-0.0706 0.15003-0.16799 0.23822-0.29146 0.10584-0.14111 0.1848-0.24673 0.23771-0.3173 0.0529-0.0705 0.1324-0.19413 0.23823-0.37051 0.10583-0.1764 0.1766-0.28203 0.21188-0.3173 0.10582-0.17638 0.13197-0.32663 0.0791-0.4501-0.0353-0.12347-0.1409-0.185-0.31729-0.185-0.42333 0.10584-0.79354 0.32632-1.111 0.66146l-2.8314 0.31729 0.29094-3.1218 0.60875-0.68781c0.42333-0.47625 0.86431-1.1116 1.3229-1.9053 0.45861-0.79374 0.73191-1.508 0.8201-2.143 0.0529-0.40569-0.1409-0.66156-0.58187-0.76739-0.44098-0.12348-1.0409-0.0707-1.7994 0.15864l0.26455-3.8628 0.4501-0.37052c0.29986-0.24694 0.6434-0.53767 1.0315-0.87281 0.40569-0.33514 0.69694-0.59101 0.87333-0.7674 0.15875-0.19402 0.15003-0.33504-0.0264-0.42323-0.10583-0.0617-0.21377-0.0971-0.32401-0.10594zm12.401 1.2702c-0.17639 0-0.35278 0.0441-0.52917 0.1323-0.29986 0.15875-0.5024 0.94378-0.60823 2.3549l-5.5299 0.63458 0.21135-2.2221c0.0176-0.0705 0.11507-0.10594 0.29146-0.10594 0.17639-0.0177 0.34354-0.0443 0.50229-0.0796 0.15875-0.0529 0.22952-0.14982 0.21188-0.29093 0-0.10587-0.0882-0.1674-0.26459-0.185-0.15875-0.0177-0.47614-0.0269-0.95239-0.0269h-0.63511c-1.1642 0-1.7461 0.0974-1.7461 0.29145 0 0.21167 0.0969 0.33474 0.29094 0.37 0.19402 0.0353 0.37041 0.0353 0.52916 0 0.15875-0.0529 0.24695-0.0263 0.26459 0.0796 0 0.12348-0.0354 0.67008-0.10594 1.6402-0.0529 0.9525-0.11445 2.258-0.185 3.916 0 0.26459 0.14972 0.44098 0.44958 0.52917 0.3175 0.0705 0.56465-0.0177 0.74104-0.26458 0.17639-0.22931 0.3174-1.182 0.42323-2.8577 1.2876-0.14111 3.0956-0.3616 5.424-0.66146l-0.39687 3.0696c-0.14112 1.1642-0.3616 2.3107-0.66146 3.4396-0.0529 0.2293-0.26469 0.4144-0.63511 0.55552-0.37041 0.12347-0.94368 0.2732-1.7198 0.44958-0.75847 0.15875-1.402 0.32642-1.9312 0.50281-0.79375 0.29986-1.5526 0.67931-2.2758 1.1379-0.72319 0.44097-1.2083 0.89938-1.4552 1.3756-0.15875 0.2293-0.23772 0.48516-0.23772 0.76739 0 0.19403 0.0528 0.39656 0.15865 0.60823 0.12347 0.21166 0.2732 0.37062 0.44959 0.47646 0.33513 0.2293 0.71458 0.34416 1.1379 0.34416 0.28222 0 0.55552-0.0533 0.82011-0.15916 0.47625-0.14111 0.9526-0.39646 1.4288-0.76688 0.47625-0.35277 0.65264-0.68812 0.52917-1.0056-0.0706-0.21167-0.33514-0.35268-0.79375-0.42323-0.45862-0.0882-0.73192-0.0795-0.82011 0.0264-0.17639 0.19402-0.18562 0.43194-0.0269 0.71416 0.17639 0.29986 0.18562 0.50292 0.0269 0.60875-0.10583 0.0882-0.26479 0.14974-0.47646 0.185-0.19403 0.0353-0.4058 0.0178-0.6351-0.0527-0.22931-0.0706-0.38775-0.21156-0.47594-0.42323-0.12347-0.29986 0.12316-0.75878 0.74052-1.3761 0.635-0.635 1.1908-1.0847 1.6671-1.3493 0.75847-0.44098 2.3814-0.77581 4.8684-1.0051 0.65264-0.0706 1.0141-0.2208 1.0847-0.4501 0.65264-2.8751 1.1551-5.7856 1.5079-8.7312 0.15875-1.0054 0.12336-1.552-0.10594-1.6402-0.17639-0.0882-0.36149-0.13229-0.55552-0.13229zm17.433 0.19482c-0.0419-2e-3 -0.0741 3e-3 -0.0961 0.0165-0.0882 0.0353-0.16767 0.1327-0.23823 0.29146-0.0706 0.1411-0.16746 0.21135-0.29094 0.21135l-12.832 0.0527v5.2e-4c-0.0882 0-0.20254-9e-3 -0.34365-0.0269-0.12347-0.0353-0.23833-0.0701-0.34416-0.10541-0.0882-0.0353-0.18511-0.0619-0.29094-0.0796-0.10583-0.0353-0.19403-0.044-0.26458-0.0264-0.0529 0-0.10572 0.0174-0.15865 0.0527-0.0529 0.0353-0.0796 0.11475-0.0796 0.23823 0 0.10583 0.0266 0.24684 0.0796 0.42322 0.0529 0.17639 0.25545 0.30868 0.60823 0.39688 0.37041 0.0882 0.65295 0.13229 0.84698 0.13229h0.50229l-0.60823 4.9475c-0.17638-0.0706-0.36149-0.12338-0.55552-0.15865-0.0706 0-0.1239 0.0795-0.15916 0.23823-0.0353 0.14113-0.0173 0.22932 0.0532 0.26459 0.79375 0.47624 1.5788 0.9526 2.3549 1.4288 0.0705 0.0353 0.1408 0.0173 0.21135-0.0532 0.0705-0.0882 0.11463-0.1851 0.1323-0.29094 0.0353-0.10582 0.0353-0.18529 0-0.23822-0.0882-0.10584-0.22921-0.25556-0.42323-0.44959l0.10594-0.95239c0.0529-0.65264 0.1411-1.4551 0.26458-2.4076 0.12347-0.9525 0.25576-1.7288 0.39687-2.3285l6.7996-0.15865c-0.44097 1.6581-0.97885 3.1748-1.6138 4.5506-0.61736 1.3582-1.2347 2.4606-1.8521 3.3073-0.59972 0.84667-1.2878 1.6404-2.064 2.3812s-1.4283 1.288-1.9575 1.6407c-0.51153 0.33514-1.1115 0.70535-1.7994 1.111-0.67027 0.42334-1.1025 0.71458-1.2966 0.87333 0.22931 0 0.58209-0.0795 1.0583-0.23822 0.47625-0.15875 1.0582-0.41462 1.7461-0.7674 0.70556-0.33514 1.4378-0.74945 2.1962-1.2433 0.77611-0.51153 1.5786-1.1556 2.4076-1.9317 0.84666-0.7761 1.6317-1.614 2.3549-2.5135 0.74084-0.91723 1.4377-2.0017 2.0903-3.2541 0.65265-1.27 1.1731-2.6022 1.5612-3.9956 0.70555 0 1.3229-0.11434 1.8521-0.34364 0.635-0.26459 0.73191-0.52045 0.29094-0.7674-0.30427-0.14553-0.51925-0.2218-0.64492-0.22841zm12.501 0.57258c-0.9525 0.38805-1.8611 0.83774-2.7254 1.3493-0.82903 0.4057-1.7899 0.9523-2.8835 1.6402s-2.0022 1.314-2.7254 1.8784c-0.56445 0.42333-0.9526 0.71458-1.1643 0.87333-0.19403 0.15875-0.51142 0.43205-0.9524 0.8201-0.42333 0.37041-0.7674 0.73191-1.032 1.0847-0.26458 0.35278-0.50251 0.72351-0.71417 1.1116-0.22931 0.42334-0.30007 0.86431-0.21187 1.3229s0.35277 0.74934 0.79375 0.87281h0.18551c0.26458 0 0.55532-0.0702 0.87282-0.21135 0.33514-0.14112 0.59972-0.30879 0.79375-0.50281 0.10583-0.12347 0.15865-0.22038 0.15865-0.29094 0-0.0705-0.0528-0.14132-0.15865-0.21188-0.0882-0.0706-0.19382-0.12338-0.3173-0.15864-0.12347-0.0353-0.24704-0.0881-0.37052-0.15865-0.12348-0.0882-0.20296-0.16768-0.23822-0.23823-0.0705-0.12347-0.10594-0.24705-0.10594-0.37052 0.0177-0.12347 0.0443-0.2291 0.0796-0.31729 0.0353-0.0882 0.0968-0.19434 0.185-0.31781 0.0882-0.12346 0.15894-0.21165 0.21187-0.26459 0.0705-0.0529 0.16747-0.1411 0.29094-0.26458 0.0353-0.0353 0.0619-0.0527 0.0796-0.0527 0.0529-0.0529 0.12317-0.0883 0.21136-0.10594 0.10583-0.0353 0.19403-0.0527 0.26458-0.0527h4.8684c0.0529 0 0.097 9e-3 0.13229 0.0263 0.12348 0.0529 9e-3 0.27341-0.34365 0.66146-0.3175 0.33514-0.80256 0.83816-1.4552 1.5084-0.635 0.65264-1.1996 1.2433-1.6934 1.7725-0.47625 0.51152-0.92594 1.0233-1.3493 1.5348-0.0353 0.0529-0.0532 0.097-0.0532 0.13229-0.0176 0.12344 0.25618 0.19369 0.82062 0.21136 1.1818 0 4.3563 0.062 9.5245 0.18551 0.15875 0 0.29104-0.11486 0.39688-0.34416 0.12349-0.22931 0.15887-0.45851 0.10593-0.68782-0.0529-0.24691-0.19392-0.3792-0.42323-0.39687-4.5508-0.17636-7.17-0.27327-7.8579-0.29094-0.0529 0-0.0883-9e-3 -0.10594-0.0269-0.12347-0.0529 0.0175-0.28212 0.42323-0.68781 0.28222-0.29986 0.88215-0.90851 1.7994-1.8257 0.91722-0.93486 1.6315-1.6666 2.143-2.1957 0.19403-0.22931 0.19403-0.44108 0-0.6351-0.17639-0.19406-0.4143-0.28226-0.71416-0.26459-0.49389 0.0353-1.0143 0.0527-1.5612 0.0527s-1.1554-9e-3 -1.8257-0.0263c-0.67028-0.0177-1.1907-0.0264-1.5611-0.0264 1.1289-0.81138 2.5226-1.7461 4.1806-2.8045 1.658-1.076 3.0866-1.9579 4.286-2.6458 0.15877-0.0882 0.18542-0.22972 0.0796-0.42375-0.0882-0.19404-0.20305-0.26429-0.34416-0.21135zm-9.6041 2.143c-0.33514 0.12347-0.61767 0.4583-0.84698 1.0051-0.21166 0.59974-0.10552 0.91713 0.31781 0.9524 0.45861 0.0353 0.87293-0.10573 1.2433-0.42323 0.37042-0.33514 0.46733-0.66125 0.29094-0.97875-0.0882-0.15875-0.22049-0.29104-0.39688-0.39687-0.17638-0.10584-0.35277-0.15865-0.52917-0.15865zm10.668 4.345c-0.0276 2e-3 -0.0556 0.01-0.0842 0.0207-0.19403 0.0882-0.3617 0.24663-0.50281 0.47594-0.14112 0.22931-0.21188 0.44979-0.21188 0.66146 0 0.24695 0.062 0.46743 0.18552 0.66146 0.26459 0.33514 0.53789 0.29976 0.82011-0.10594 0.26458-0.40569 0.36149-0.78462 0.29093-1.1374-0.1389-0.40128-0.30471-0.59355-0.49764-0.57619zm-29.25 0.41755c-0.28222 0-0.52014 0.0969-0.71417 0.29094-0.19403 0.19402-0.29094 0.43195-0.29094 0.71417 0 0.10583 0.0174 0.20274 0.0527 0.29093 0.17639 0.37042 0.38816 0.52066 0.6351 0.45011 0.24693-0.0706 0.39665-0.31771 0.44959-0.74104 0.0705-0.65261 0.0264-0.98744-0.13229-1.0051z" fill="#1273eb" filter="url(#filter1795-8-5)" opacity=".93443" stroke="#1273eb" stroke-linejoin="round" stroke-width="3.9688"/>
  <path d="m86.281 139.88c-0.11024-9e-3 -0.2228 9e-3 -0.33745 0.0527-0.15875 0.0882-0.34386 0.22973-0.55552 0.42375-0.19403 0.17639-0.39708 0.37021-0.60875 0.58188-0.21167 0.19403-0.58188 0.45862-1.111 0.79375-0.52917 0.3175-1.1645 0.65284-1.9053 1.0056-0.12347 0.0353-0.20295 0.10552-0.23823 0.21136-0.03528 0.10583-0.03528 0.19403 0 0.26458 0.03528 0.0705 0.07938 0.10594 0.13229 0.10594 0.38806-0.0177 0.7675-0.0884 1.1379-0.21188l-0.31729 4.7625c0.52916-0.44097 1.1286-0.74965 1.7989-0.92603 0.72319-0.12348 1.0406 0.13239 0.9524 0.76739-0.10583 0.75847-0.44938 1.3938-1.0315 1.9053-0.56445 0.51153-1.2085 0.68792-1.9317 0.52917l-0.39688 4.8416-1.6934 0.29094c-0.2293 0.0706-0.35288 0.25618-0.37052 0.55604-0.01764 0.21165 0.07056 0.29985 0.26458 0.26458l5.7945-0.95291-0.10594 0.23822c-0.05292 0.17639-0.07035 0.34407-0.05271 0.50282 0.01764 0.17639 0.09712 0.26458 0.23823 0.26458 0.07055 0 0.1408-0.0174 0.21135-0.0527 0.07056-0.0353 0.15004-0.0973 0.23823-0.18552 0.0882-0.0705 0.15896-0.14081 0.21188-0.21136 0.07055-0.0706 0.15003-0.16798 0.23823-0.29145 0.10584-0.14111 0.1848-0.24674 0.23771-0.3173 0.05292-0.0705 0.1324-0.19413 0.23823-0.37052s0.17659-0.28202 0.21188-0.31729c0.10582-0.17639 0.13198-0.32663 0.07906-0.4501-0.03528-0.12348-0.1409-0.185-0.31729-0.185-0.42333 0.10583-0.79354 0.32631-1.111 0.66145l-2.8314 0.3173 0.29094-3.1218 0.60875-0.68782c0.42333-0.47624 0.8643-1.1116 1.3229-1.9053 0.45861-0.79374 0.73191-1.508 0.8201-2.143 0.05292-0.40569-0.1409-0.66156-0.58187-0.7674-0.44097-0.12347-1.0409-0.0707-1.7994 0.15865l0.26458-3.8628 0.4501-0.37052c0.29986-0.24694 0.6434-0.53768 1.0315-0.87281 0.4057-0.33515 0.69694-0.59102 0.87333-0.7674 0.15875-0.19403 0.15003-0.33504-0.02636-0.42323-0.10583-0.0617-0.21377-0.0971-0.32401-0.10594zm12.401 1.2702c-0.17639 0-0.35278 0.0441-0.52917 0.1323-0.29986 0.15875-0.5024 0.94378-0.60823 2.3549l-5.5299 0.63459 0.21136-2.2221c0.01764-0.0706 0.11506-0.10594 0.29146-0.10594 0.17639-0.0177 0.34354-0.0443 0.50229-0.0796 0.15875-0.0529 0.22951-0.14982 0.21187-0.29093 0-0.10587-0.0882-0.1674-0.26458-0.185-0.15875-0.0177-0.47615-0.0269-0.9524-0.0269h-0.6351c-1.1642 0-1.7461 0.0974-1.7461 0.29146 0 0.21167 0.09691 0.33473 0.29094 0.36999 0.19403 0.0353 0.37042 0.0353 0.52917 0 0.15875-0.0529 0.24694-0.0263 0.26458 0.0796 0 0.12348-0.03538 0.67008-0.10594 1.6402-0.05292 0.9525-0.11445 2.258-0.185 3.916 0 0.26459 0.14972 0.44098 0.44958 0.52917 0.3175 0.0705 0.56465-0.0177 0.74104-0.26458 0.17639-0.22931 0.3174-1.182 0.42323-2.8577 1.2876-0.14111 3.0956-0.3616 5.424-0.66146l-0.39688 3.0696c-0.14111 1.1642-0.3616 2.3107-0.66146 3.4396-0.05292 0.2293-0.26469 0.4144-0.6351 0.55552-0.37042 0.12347-0.94368 0.2732-1.7198 0.44958-0.75847 0.15875-1.402 0.32642-1.9311 0.50281-0.79375 0.29986-1.5526 0.67931-2.2758 1.1379-0.72319 0.44097-1.2083 0.89938-1.4552 1.3756-0.15875 0.2293-0.23771 0.48516-0.23771 0.76739 0 0.19403 0.05281 0.39656 0.15865 0.60823 0.12347 0.21167 0.2732 0.37063 0.44958 0.47646 0.33514 0.2293 0.71458 0.34416 1.1379 0.34416 0.28222 0 0.55552-0.0533 0.8201-0.15916 0.47625-0.14111 0.9526-0.39646 1.4289-0.76688 0.47625-0.35277 0.65264-0.68812 0.52917-1.0056-0.07056-0.21167-0.33514-0.35268-0.79375-0.42323-0.45861-0.0882-0.73191-0.0795-0.82011 0.0263-0.17639 0.19402-0.18562 0.43194-0.02687 0.71416 0.17639 0.29986 0.18562 0.50292 0.02687 0.60875-0.10583 0.0882-0.26479 0.14974-0.47646 0.185-0.19403 0.0353-0.4058 0.0178-0.6351-0.0527-0.22931-0.0706-0.38775-0.21156-0.47594-0.42323-0.12347-0.29986 0.12316-0.75878 0.74052-1.3761 0.635-0.635 1.1908-1.0847 1.6671-1.3493 0.75847-0.44097 2.3814-0.7758 4.8684-1.0051 0.65264-0.0706 1.0141-0.2208 1.0847-0.4501 0.65264-2.8751 1.1551-5.7856 1.5079-8.7312 0.15875-1.0054 0.12337-1.552-0.10594-1.6402-0.17639-0.0882-0.3615-0.13229-0.55552-0.13229zm17.433 0.19482c-0.0419-2e-3 -0.0741 3e-3 -0.0961 0.0165-0.0882 0.0353-0.16767 0.1327-0.23823 0.29146-0.0706 0.1411-0.16747 0.21135-0.29094 0.21135l-12.832 0.0527v5.3e-4c-0.0882 0-0.20255-9e-3 -0.34365-0.0269-0.12347-0.0353-0.23833-0.0701-0.34417-0.10541-0.0882-0.0353-0.1851-0.0619-0.29093-0.0796-0.10584-0.0353-0.19404-0.044-0.26459-0.0263-0.0529 0-0.10571 0.0174-0.15864 0.0527-0.0529 0.0353-0.0796 0.11475-0.0796 0.23823 0 0.10583 0.0267 0.24684 0.0796 0.42322 0.0529 0.17639 0.25545 0.30868 0.60823 0.39688 0.37041 0.0882 0.65295 0.13229 0.84697 0.13229h0.5023l-0.60823 4.9475c-0.17639-0.0706-0.36149-0.12338-0.55552-0.15864-0.0706 0-0.1239 0.0795-0.15917 0.23822-0.0353 0.14113-0.0173 0.22932 0.0532 0.26459 0.79376 0.47624 1.5788 0.9526 2.3549 1.4288 0.0705 0.0353 0.14079 0.0173 0.21135-0.0532 0.0705-0.0882 0.11463-0.1851 0.13229-0.29094 0.0353-0.10582 0.0353-0.18529 0-0.23822-0.0882-0.10584-0.2292-0.25556-0.42323-0.44959l0.10594-0.95239c0.0529-0.65264 0.14111-1.4551 0.26459-2.4076 0.12347-0.9525 0.25576-1.7288 0.39687-2.3285l6.7996-0.15865c-0.44097 1.6581-0.97885 3.1748-1.6138 4.5506-0.61736 1.3582-1.2347 2.4606-1.8521 3.3073-0.59972 0.84667-1.2878 1.6404-2.064 2.3812s-1.4283 1.288-1.9575 1.6407c-0.51153 0.33514-1.1115 0.70535-1.7994 1.111-0.67028 0.42334-1.1025 0.71458-1.2966 0.87333 0.22931 0 0.58209-0.0795 1.0583-0.23822 0.47626-0.15875 1.0582-0.41462 1.7462-0.7674 0.70555-0.33514 1.4378-0.74945 2.1962-1.2433 0.77611-0.51153 1.5786-1.1556 2.4076-1.9317 0.84667-0.77611 1.6317-1.614 2.3549-2.5135 0.74084-0.91723 1.4377-2.0017 2.0903-3.2541 0.65264-1.27 1.1731-2.6022 1.5612-3.9956 0.70555 0 1.3229-0.11434 1.8521-0.34365 0.635-0.26458 0.73191-0.52044 0.29094-0.76739-0.30427-0.14553-0.51925-0.2218-0.64492-0.22841zm12.501 0.57258c-0.9525 0.38806-1.8611 0.83774-2.7254 1.3493-0.82903 0.4057-1.7899 0.9523-2.8836 1.6402-1.0936 0.68791-2.0022 1.314-2.7254 1.8784-0.56445 0.42333-0.9526 0.71458-1.1643 0.87333-0.19403 0.15875-0.51143 0.43205-0.9524 0.8201-0.42333 0.37042-0.7674 0.73191-1.032 1.0847s-0.5025 0.72351-0.71416 1.1116c-0.22931 0.42334-0.30007 0.86431-0.21188 1.3229 0.0882 0.45861 0.35278 0.74934 0.79375 0.87281h0.18552c0.26458 0 0.55532-0.0702 0.87282-0.21135 0.33514-0.14112 0.59972-0.30879 0.79375-0.50281 0.10583-0.12347 0.15864-0.22038 0.15864-0.29094 0-0.0705-0.0528-0.14132-0.15864-0.21188-0.0882-0.0706-0.19383-0.12337-0.3173-0.15864-0.12347-0.0353-0.24705-0.0881-0.37052-0.15865-0.12348-0.0882-0.20296-0.16767-0.23823-0.23823-0.0705-0.12347-0.10593-0.24705-0.10593-0.37052 0.0177-0.12347 0.0443-0.2291 0.0796-0.31729 0.0353-0.0882 0.0968-0.19434 0.185-0.31781 0.0882-0.12346 0.15894-0.21165 0.21187-0.26458 0.0706-0.0529 0.16747-0.14111 0.29094-0.26459 0.0353-0.0353 0.0619-0.0527 0.0796-0.0527 0.0529-0.0529 0.12317-0.0883 0.21136-0.10594 0.10583-0.0353 0.19403-0.0527 0.26458-0.0527h4.8684c0.0529 0 0.097 9e-3 0.13229 0.0264 0.12347 0.0529 9e-3 0.27341-0.34365 0.66146-0.3175 0.33514-0.80256 0.83816-1.4552 1.5084-0.635 0.65264-1.1996 1.2433-1.6934 1.7725-0.47625 0.51153-0.92594 1.0233-1.3493 1.5348-0.0353 0.0529-0.0532 0.097-0.0532 0.13229-0.0176 0.12345 0.25618 0.19369 0.82063 0.21136 1.1818 0 4.3563 0.062 9.5245 0.18552 0.15875 0 0.29104-0.11486 0.39687-0.34417 0.1235-0.22931 0.15887-0.45851 0.10594-0.68781-0.0529-0.24692-0.19392-0.37921-0.42323-0.39688-4.5508-0.17636-7.17-0.27327-7.8579-0.29094-0.053 0-0.0883-9e-3 -0.10593-0.0269-0.12348-0.0529 0.0175-0.28212 0.42323-0.68781 0.28222-0.29986 0.88215-0.9085 1.7994-1.8257 0.91722-0.93485 1.6315-1.6666 2.143-2.1957 0.19403-0.2293 0.19403-0.44107 0-0.6351-0.17639-0.19405-0.41431-0.28225-0.71417-0.26458-0.49389 0.0353-1.0143 0.0527-1.5611 0.0527-0.54681 0-1.1555-9e-3 -1.8257-0.0264-0.67028-0.0177-1.1907-0.0263-1.5612-0.0263 1.1289-0.81139 2.5226-1.7462 4.1806-2.8045 1.658-1.076 3.0866-1.9579 4.286-2.6458 0.15877-0.0882 0.18542-0.22972 0.0796-0.42375-0.0882-0.19404-0.20305-0.26428-0.34417-0.21135zm-9.6041 2.143c-0.33514 0.12347-0.61767 0.4583-0.84698 1.0051-0.21166 0.59973-0.10552 0.91713 0.31781 0.95239 0.45861 0.0353 0.87292-0.10573 1.2433-0.42323 0.37042-0.33514 0.46733-0.66125 0.29094-0.97875-0.0882-0.15875-0.22049-0.29104-0.39688-0.39687-0.17639-0.10584-0.35277-0.15865-0.52917-0.15865zm10.668 4.345c-0.0276 2e-3 -0.0556 0.01-0.0842 0.0207-0.19402 0.0882-0.36169 0.24663-0.50281 0.47593-0.14111 0.22931-0.21187 0.4498-0.21187 0.66146 0 0.24695 0.062 0.46744 0.18552 0.66146 0.26459 0.33514 0.53788 0.29977 0.8201-0.10594 0.26458-0.40569 0.36149-0.78462 0.29094-1.1374-0.1389-0.40129-0.30472-0.59356-0.49764-0.5762zm-29.25 0.41754c-0.28222 0-0.52013 0.0969-0.71416 0.29094-0.19403 0.19402-0.29094 0.43195-0.29094 0.71417 0 0.10583 0.01744 0.20274 0.05271 0.29093 0.17639 0.37043 0.38816 0.52066 0.6351 0.45011 0.24693-0.0706 0.39665-0.31771 0.44959-0.74104 0.0705-0.65261 0.0264-0.98744-0.1323-1.0051z" fill="#fff" stroke-width="0"/>
 </g>
 <path d="m35.491 119.52c-0.16955 0-0.33894 0.0423-0.50849 0.12712-0.28824 0.15259-0.48325 0.90701-0.58498 2.2634l-5.3154 0.6103 0.20361-2.1363c0.017-0.0678 0.11001-0.1018 0.27957-0.1018 0.16955-0.0169 0.33058-0.0426 0.48317-0.0765 0.15257-0.0509 0.22054-0.14393 0.20361-0.27957 0-0.10175-0.0847-0.16083-0.25425-0.17777-0.15259-0.0169-0.45792-0.0258-0.91571-0.0258h-0.6103c-1.119 0-1.6784 0.0936-1.6784 0.28008 0 0.20344 0.0931 0.32212 0.27957 0.35605 0.18651 0.0339 0.3559 0.0339 0.5085 0 0.15262-0.0509 0.23783-0.0252 0.25476 0.0765 0 0.11869-0.034 0.64412-0.1018 1.5766-0.0509 0.91558-0.11046 2.1703-0.17828 3.7641 0 0.25433 0.14429 0.42373 0.43253 0.5085 0.30519 0.0678 0.54255-0.0169 0.7121-0.25425 0.16955-0.22041 0.30496-1.1359 0.4067-2.7466 1.2377-0.13564 2.9761-0.3479 5.2142-0.63614l-0.38189 2.9502c-0.13564 1.119-0.34739 2.2211-0.63562 3.3063-0.0509 0.22041-0.25424 0.39868-0.6103 0.53433-0.35606 0.11868-0.90711 0.26246-1.6531 0.43202-0.72907 0.1526-1.3481 0.31362-1.8567 0.48317-0.76299 0.28824-1.4918 0.65316-2.187 1.094-0.69516 0.42388-1.1615 0.86461-1.3989 1.3224-0.1526 0.22042-0.22893 0.46614-0.22893 0.73742 0 0.18651 0.0507 0.38152 0.15245 0.58498 0.11868 0.20346 0.26297 0.35612 0.43253 0.45785 0.32215 0.22042 0.68655 0.33073 1.0935 0.33073 0.27128 0 0.53425-0.0507 0.78858-0.15244 0.45779-0.13564 0.91526-0.38188 1.373-0.73794 0.45778-0.33911 0.6277-0.66116 0.50901-0.96635-0.0678-0.20347-0.32243-0.33888-0.76326-0.40669-0.44084-0.0848-0.70381-0.0764-0.78858 0.0253-0.16954 0.1865-0.17792 0.4155-0.0253 0.68678 0.16952 0.28823 0.17791 0.48324 0.0253 0.58497-0.10174 0.0848-0.25388 0.14384-0.45734 0.17777-0.18651 0.0339-0.3904 0.0172-0.61082-0.0506s-0.37256-0.20375-0.45733-0.40721c-0.11869-0.28824 0.11867-0.72897 0.7121-1.3224 0.61039-0.61039 1.1442-1.0428 1.602-1.2971 0.72907-0.42387 2.2891-0.74593 4.6798-0.96635 0.62734-0.0678 0.97501-0.21211 1.0428-0.43253 0.62734-2.7637 1.1104-5.5613 1.4495-8.3928 0.1526-0.96644 0.11862-1.4919-0.1018-1.5766-0.16955-0.0848-0.34783-0.12712-0.53434-0.12712zm-25.358 0.55604c-0.12716 6e-3 -0.25421 0.0413-0.38137 0.1049-0.15259 0.0848-0.22893 0.2207-0.22893 0.40721v0.0253c0 0.0848 0.03398 0.16947 0.1018 0.25425 0.06782 0.0678 0.14415 0.1018 0.22893 0.1018 0.10174 0.017 0.47502 0.0337 1.1193 0.0506 0.66126 0.0169 1.102 0.0426 1.3224 0.0765 0.62735 0.0678 0.91541 0.43222 0.86455 1.0935-0.01693 0.27128-0.01693 0.55987 0 0.86506 0.01695 0.30519 0.1189 0.70358 0.30541 1.1953 0.18651 0.49169 0.45785 0.8561 0.81391 1.0935 0.30519 0.18651 0.68632 0.3559 1.1441 0.5085 0.47474 0.13564 0.89874 0.2036 1.2718 0.2036 0.15259 0 0.31362-8e-3 0.48317-0.0253 0.64429 0 1.2717-0.21226 1.8821-0.63614 0.61039-0.44083 1.0344-0.95789 1.2718-1.5513 0.22041-0.69516 0.40706-1.4072 0.55965-2.1363 0.08478-0.27128 0.19458-0.44067 0.33021-0.50849 0.13564-0.0848 0.31392-0.11874 0.53433-0.10181 0.03391 0 0.12697 8e-3 0.27957 0.0253 0.15259 0 0.25454 8e-3 0.30541 0.0253 0.0509 0.017 0.10995 0.0682 0.17776 0.15296 0.0678 0.0678 0.10181 0.17761 0.10181 0.33021 0 0.0339-0.0847 0.28852-0.25425 0.76326-0.15259 0.47474-0.33036 1.0091-0.53382 1.6025-0.20346 0.57647-0.33102 0.95761-0.38189 1.1441-0.62734 1.8142-1.3818 3.5693-2.2634 5.2648-0.42387 0.69516-0.93257 1.3225-1.526 1.8821-0.3391 0.27128-0.72024 0.40669-1.1441 0.40669h-0.07648c-0.15259 0-0.27964-0.0507-0.38137-0.15245-0.10173-0.11868-0.15296-0.2546-0.15296-0.40721v-0.076c0-0.0509 0.0089-0.16118 0.02584-0.33073 0.03394-0.16953 0.05064-0.27147 0.05064-0.30541-0.03391-0.28824-0.14422-0.47436-0.33073-0.55914-0.16955-0.10173-0.39855-0.15296-0.68678-0.15296-0.22042 0-0.41542 0.0847-0.58498 0.25425-0.15259 0.16955-0.22841 0.36456-0.22841 0.58498v0.0765c0 0.28823 0.25409 0.61029 0.76274 0.96635 0.50865 0.35603 0.98337 0.55104 1.4242 0.58498 0.8308 0.0509 1.5261-0.13578 2.0857-0.55966 0.57648-0.42387 1.1615-1.0596 1.7549-1.9074 0.67821-1.119 1.4154-2.5092 2.2123-4.1708s1.4243-3.103 1.8821-4.3238c0.0848-0.25433 0.20345-0.44934 0.35605-0.58498 0.16955-0.13564 0.30548-0.24543 0.40721-0.33021 0.11868-0.10173 0.17777-0.25439 0.17777-0.45785v-0.10181c0.0169-0.0678 0.0169-0.11851 0-0.15244 0-0.0339-0.0251-0.0763-0.076-0.12712-0.0339-0.0678-0.0851-0.11903-0.15297-0.15297-0.42388-0.0339-0.84788-0.0506-1.2718-0.0506-0.42387 0-0.83899 0.0167-1.2459 0.0506-0.37302 0.0169-0.72906 0.0253-1.0682 0.0253-0.32215-0.017-0.65308-8e-3 -0.99219 0.0258-0.32215 0.0339-0.55062 0.093-0.68626 0.17777-0.18651 0.11869-0.30518 0.21175-0.35605 0.27957-0.03394 0.0678-0.05116 0.1865-0.05116 0.35605 0.03393 0.18651 0.05116 0.36478 0.05116 0.53433 0 0.32215-0.0596 0.69493-0.17828 1.1188-0.11868 0.40693-0.2541 0.74623-0.40669 1.0175-0.15259 0.25432-0.27127 0.44097-0.35605 0.55965-0.06782 0.10174-0.19538 0.23715-0.38189 0.4067-0.16955 0.16955-0.36456 0.2966-0.58498 0.38137-0.22041 0.0678-0.48287 0.1018-0.78807 0.1018-0.44083-0.017-0.90718-0.2287-1.3989-0.63562-0.47474-0.42388-0.7121-0.86461-0.7121-1.3224s0.1354-0.87343 0.40669-1.2464c0.27128-0.38998 0.40721-0.70367 0.40721-0.94103 0-0.13565-0.02562-0.25432-0.07648-0.35605-0.03391-0.10174-0.11024-0.17806-0.22893-0.22893-0.10173-0.0678-0.1948-0.11851-0.27957-0.15244-0.06782-0.0509-0.1865-0.0765-0.35605-0.0765-0.16955-0.0169-0.28823-0.0253-0.35605-0.0253-0.05087-0.0169-0.17791-0.0253-0.38137-0.0253h-1.2718c-0.50868-0.0169-0.77165-0.0253-0.78858-0.0253v-0.0253c-0.05086 0-0.28822-0.0256-0.7121-0.0765-0.4069-0.0509-0.62701-0.0765-0.66094-0.0765-0.04239-4e-3 -0.08525-5e-3 -0.12764-3e-3zm30.285 0.0413c-0.19498-8e-3 -0.4028 0.0216-0.62322 0.0894-0.15259 0.0509-0.30526 0.1183-0.45785 0.20309-0.13565 0.0848-0.25432 0.16947-0.35605 0.25424-0.0848 0.0678-0.22856 0.21212-0.43202 0.43253-0.20345 0.20347-0.37285 0.36449-0.50849 0.48318-0.15258 0.11869-0.22054 0.28808-0.20361 0.5085 0.0169 0.20346 0.15237 0.27142 0.4067 0.2036 0.15259-0.0339 0.31362-0.12698 0.48317-0.27957 0.16956-0.16955 0.31385-0.30548 0.43253-0.40721 0.11869-0.11868 0.28809-0.20338 0.5085-0.25425 0.23737-0.0678 0.49198-0.0338 0.76326 0.10181 0.28824 0.16955 0.53396 0.44089 0.73742 0.8139 0.22042 0.35606 0.33073 0.70372 0.33073 1.0428v0.25425c0 0.42388-0.12704 0.94931-0.38137 1.5766-0.23737 0.62734-0.47473 1.3143-0.7121 2.0603-0.22039 0.74602-0.32234 1.4921-0.30541 2.2381v0.12713c0 0.9834 0.34767 1.8392 1.0428 2.5683 0.69516 0.71214 1.5426 1.0771 2.543 1.094 0.23737 0 0.47473-0.0256 0.7121-0.0765 1.2377-0.23737 2.3064-0.78841 3.205-1.6531 0.91558-0.88166 1.6188-2.0428 2.1105-3.484 0.23737-0.8308 0.33095-1.6025 0.28008-2.3146-0.0339-0.71211-0.0763-1.5089-0.12712-2.3906-0.0509-0.89863-1.5e-4 -1.5684 0.15244-2.0092 0.0509-0.16955 0.15282-0.27986 0.30541-0.33073 0.1526-0.0678 0.30475-0.0934 0.45734-0.0765 0.16955 0 0.32221-0.0251 0.45785-0.076 0.13566-0.0678 0.212-0.18649 0.22893-0.35604 0.017-0.1526-0.11845-0.25454-0.40669-0.30541-0.28824-0.0509-0.6103-0.0425-0.96635 0.0253-0.35606 0.0678-0.63577 0.1614-0.83923 0.28009-0.16955 0.11868-0.32221 0.28807-0.45785 0.50849-0.11871 0.22041-0.18667 0.43216-0.20361 0.63562-0.0848 0.77994-0.0424 1.8486 0.12713 3.205 0.16952 1.3564 0.1523 2.4073-0.0512 3.1533-0.3052 1.3734-0.82226 2.4755-1.5513 3.3063-0.71211 0.8308-1.6699 1.2464-2.8737 1.2464-0.72907 0-1.3648-0.32205-1.9074-0.96635-0.52561-0.64429-0.8393-1.4416-0.94103-2.3911-0.0678-0.67821 0.0592-1.636 0.38137-2.8737 0.32215-1.2377 0.48318-2.1616 0.48318-2.7719 0-0.44084-0.0423-0.86483-0.12713-1.2718-0.0848-0.42388-0.22019-0.8139-0.40669-1.17-0.16955-0.37301-0.42416-0.64435-0.76326-0.8139-0.16956-0.0848-0.35175-0.13156-0.54674-0.14004zm5.1501 1.742c-0.47474 0.0339-0.88986 0.2378-1.2459 0.61081-0.35605 0.37302-0.53433 0.80539-0.53433 1.2971 0.0169 0.3052 0.0593 0.5849 0.12712 0.83923 0.0678 0.23737 0.1865 0.46636 0.35606 0.68678 0.16955 0.22041 0.31384 0.39818 0.43253 0.53382 0.11868 0.11868 0.32206 0.30532 0.6103 0.55965 0.30519 0.25433 0.52582 0.44045 0.66145 0.55914 0.28824 0.28824 0.36458 0.68714 0.22893 1.1958-0.11868 0.4917-0.38165 0.76252-0.78858 0.81339-0.22041 0.017-0.55084-0.11008-0.99167-0.38137-0.44083-0.2713-0.68707-0.41508-0.73794-0.43202-0.11869-0.0678-0.26246-0.0767-0.43202-0.0258-0.15259 0.0509-0.22892 0.15281-0.22892 0.30541 0 0.35606 0.22899 0.64413 0.68678 0.86455 0.45778 0.22042 0.92361 0.30563 1.3984 0.25477 0.3391-0.017 0.6784-0.14453 1.0175-0.38189 0.3391-0.25433 0.57646-0.5424 0.7121-0.86455 0.1526-0.32215 0.22893-0.66146 0.22893-1.0175 0-0.35606-0.0763-0.70373-0.22893-1.0428-0.11869-0.20347-0.41513-0.53388-0.88987-0.99167-0.45779-0.45779-0.72076-0.86454-0.78858-1.2206-0.0339-0.11869-0.0512-0.24625-0.0512-0.38189 0-0.1865 0.0512-0.381 0.15296-0.58446 0.10174-0.20346 0.22041-0.365 0.35605-0.48369 0.13564-0.0848 0.44045-0.0759 0.91519 0.0258 0.4917 0.10176 0.78029 0.11847 0.86507 0.0506 0.0848-0.0678 0.12712-0.15252 0.12712-0.25425 0-0.1526-0.0596-0.2629-0.17828-0.33072-0.4917-0.13565-0.98315-0.20361-1.4748-0.20361zm-8.3984 5.0359c-0.27128 0-0.50027 0.0936-0.68678 0.28008-0.18651 0.18651-0.28009 0.41499-0.28009 0.68627 0 0.10172 0.0172 0.1953 0.0512 0.28008 0.16956 0.35606 0.37294 0.49984 0.6103 0.43202 0.23738-0.0678 0.38167-0.30518 0.43253-0.7121 0.0678-0.62736 0.0255-0.94942-0.12712-0.96635z" fill="#1273eb" filter="url(#filter1755)" stroke="#1273eb" stroke-linejoin="round" stroke-width="3.8365"/>
 <path d="m35.491 119.52c-0.16955 0-0.33894 0.0423-0.50849 0.12712-0.28824 0.15259-0.48325 0.90701-0.58498 2.2634l-5.3154 0.6103 0.20361-2.1363c0.017-0.0678 0.11001-0.1018 0.27957-0.1018 0.16955-0.0169 0.33058-0.0426 0.48317-0.0765 0.15257-0.0509 0.22054-0.14393 0.20361-0.27957 0-0.10175-0.0847-0.16083-0.25425-0.17777-0.15259-0.0169-0.45792-0.0258-0.91571-0.0258h-0.6103c-1.119 0-1.6784 0.0936-1.6784 0.28008 0 0.20344 0.0931 0.32212 0.27957 0.35605 0.18651 0.0339 0.3559 0.0339 0.5085 0 0.15262-0.0509 0.23783-0.0252 0.25476 0.0765 0 0.11869-0.034 0.64412-0.1018 1.5766-0.0509 0.91558-0.11046 2.1703-0.17828 3.7641 0 0.25433 0.14429 0.42373 0.43253 0.5085 0.30519 0.0678 0.54255-0.0169 0.7121-0.25425 0.16955-0.22041 0.30496-1.1359 0.4067-2.7466 1.2377-0.13564 2.9761-0.3479 5.2142-0.63614l-0.38189 2.9502c-0.13564 1.119-0.34739 2.2211-0.63562 3.3063-0.0509 0.22041-0.25424 0.39868-0.6103 0.53433-0.35606 0.11868-0.90711 0.26246-1.6531 0.43202-0.72907 0.1526-1.3481 0.31362-1.8567 0.48317-0.76299 0.28824-1.4918 0.65316-2.187 1.094-0.69516 0.42388-1.1615 0.86461-1.3989 1.3224-0.1526 0.22042-0.22893 0.46614-0.22893 0.73742 0 0.18651 0.0507 0.38152 0.15245 0.58498 0.11868 0.20346 0.26297 0.35612 0.43253 0.45785 0.32215 0.22042 0.68655 0.33073 1.0935 0.33073 0.27128 0 0.53425-0.0507 0.78858-0.15244 0.45779-0.13564 0.91526-0.38188 1.373-0.73794 0.45778-0.33911 0.6277-0.66116 0.50901-0.96635-0.0678-0.20347-0.32243-0.33888-0.76326-0.40669-0.44084-0.0848-0.70381-0.0764-0.78858 0.0253-0.16954 0.1865-0.17792 0.4155-0.0253 0.68678 0.16952 0.28823 0.17791 0.48324 0.0253 0.58497-0.10174 0.0848-0.25388 0.14384-0.45734 0.17777-0.18651 0.0339-0.3904 0.0172-0.61082-0.0506s-0.37256-0.20375-0.45733-0.40721c-0.11869-0.28824 0.11867-0.72897 0.7121-1.3224 0.61039-0.61039 1.1442-1.0428 1.602-1.2971 0.72907-0.42387 2.2891-0.74593 4.6798-0.96635 0.62734-0.0678 0.97501-0.21211 1.0428-0.43253 0.62734-2.7637 1.1104-5.5613 1.4495-8.3928 0.1526-0.96644 0.11862-1.4919-0.1018-1.5766-0.16955-0.0848-0.34783-0.12712-0.53434-0.12712zm-25.358 0.55604c-0.12716 6e-3 -0.25421 0.0413-0.38137 0.1049-0.15259 0.0848-0.22893 0.2207-0.22893 0.40721v0.0253c0 0.0848 0.03398 0.16947 0.1018 0.25425 0.06782 0.0678 0.14415 0.1018 0.22893 0.1018 0.10174 0.017 0.47502 0.0337 1.1193 0.0506 0.66126 0.0169 1.102 0.0426 1.3224 0.0765 0.62735 0.0678 0.91541 0.43222 0.86455 1.0935-0.01693 0.27128-0.01693 0.55987 0 0.86506 0.01695 0.30519 0.1189 0.70358 0.30541 1.1953 0.18651 0.49169 0.45785 0.8561 0.81391 1.0935 0.30519 0.18651 0.68632 0.3559 1.1441 0.5085 0.47474 0.13564 0.89874 0.2036 1.2718 0.2036 0.1526 0 0.31362-8e-3 0.48318-0.0253 0.64429 0 1.2717-0.21226 1.882-0.63614 0.61039-0.44083 1.0344-0.95789 1.2718-1.5513 0.22041-0.69516 0.40706-1.4072 0.55965-2.1363 0.0848-0.27128 0.19458-0.44067 0.33022-0.50849 0.13564-0.0848 0.31391-0.11874 0.53433-0.10181 0.0339 0 0.12697 8e-3 0.27957 0.0253 0.15259 0 0.25454 8e-3 0.30541 0.0253 0.0509 0.017 0.10995 0.0682 0.17776 0.15296 0.0678 0.0678 0.10181 0.17761 0.10181 0.33021 0 0.0339-0.0847 0.28852-0.25425 0.76326-0.15259 0.47474-0.33036 1.0091-0.53382 1.6025-0.20346 0.57647-0.33102 0.95761-0.38188 1.1441-0.62734 1.8142-1.3818 3.5693-2.2634 5.2648-0.42387 0.69516-0.93257 1.3225-1.526 1.8821-0.3391 0.27128-0.72023 0.40669-1.1441 0.40669h-0.07648c-0.15259 0-0.27964-0.0507-0.38137-0.15245-0.10173-0.11868-0.15296-0.2546-0.15296-0.40721v-0.076c0-0.0509 0.0089-0.16118 0.02584-0.33073 0.03394-0.16953 0.05064-0.27148 0.05064-0.30541-0.03391-0.28824-0.14422-0.47437-0.33073-0.55914-0.16955-0.10173-0.39855-0.15296-0.68678-0.15296-0.22042 0-0.41542 0.0847-0.58498 0.25425-0.15259 0.16955-0.22841 0.36456-0.22841 0.58498v0.0765c0 0.28823 0.25409 0.61028 0.76274 0.96635 0.50865 0.35603 0.98337 0.55104 1.4242 0.58498 0.8308 0.0509 1.5261-0.13578 2.0857-0.55967 0.57648-0.42387 1.1615-1.0596 1.7549-1.9074 0.67821-1.119 1.4154-2.5092 2.2123-4.1708s1.4243-3.103 1.8821-4.3238c0.0848-0.25433 0.20345-0.44934 0.35605-0.58498 0.16955-0.13564 0.30548-0.24543 0.40721-0.33021 0.11868-0.10173 0.17777-0.25439 0.17777-0.45785v-0.10181c0.0169-0.0678 0.0169-0.11851 0-0.15244 0-0.0339-0.0251-0.0763-0.076-0.12712-0.0339-0.0678-0.0851-0.11903-0.15297-0.15297-0.42388-0.0339-0.84788-0.0506-1.2718-0.0506-0.42387 0-0.83899 0.0167-1.2459 0.0506-0.37302 0.0169-0.72905 0.0253-1.0682 0.0253-0.32215-0.017-0.65309-8e-3 -0.99219 0.0258-0.32215 0.0339-0.55063 0.093-0.68626 0.17777-0.18651 0.11869-0.30519 0.21175-0.35605 0.27957-0.0339 0.0678-0.0512 0.1865-0.0512 0.35605 0.0339 0.18651 0.0512 0.36478 0.0512 0.53433 0 0.32215-0.0596 0.69493-0.17829 1.1188-0.11868 0.40693-0.25409 0.74623-0.40669 1.0175-0.15259 0.25432-0.27127 0.44097-0.35605 0.55965-0.0678 0.10174-0.19539 0.23715-0.38189 0.4067-0.16955 0.16955-0.36456 0.2966-0.58498 0.38137-0.22041 0.0678-0.48287 0.1018-0.78806 0.1018-0.44083-0.017-0.90718-0.2287-1.3989-0.63562-0.47474-0.42388-0.7121-0.86461-0.7121-1.3224s0.1354-0.87343 0.40669-1.2464c0.27128-0.38998 0.40721-0.70367 0.40721-0.94103 0-0.13565-0.02562-0.25432-0.07648-0.35605-0.03391-0.10174-0.11024-0.17806-0.22893-0.22893-0.10173-0.0678-0.1948-0.11851-0.27957-0.15244-0.06782-0.0509-0.1865-0.0765-0.35605-0.0765-0.16955-0.0169-0.28823-0.0253-0.35605-0.0253-0.05087-0.0169-0.17791-0.0253-0.38137-0.0253h-1.2718c-0.50868-0.0169-0.77165-0.0253-0.78858-0.0253v-0.0253c-0.05086 0-0.28822-0.0256-0.7121-0.0765-0.4069-0.0509-0.62701-0.0765-0.66094-0.0765-0.04239-4e-3 -0.08525-5e-3 -0.12764-3e-3zm30.285 0.0413c-0.19498-8e-3 -0.4028 0.0216-0.62322 0.0894-0.15259 0.0509-0.30526 0.1183-0.45785 0.20309-0.13565 0.0848-0.25432 0.16947-0.35605 0.25424-0.0848 0.0678-0.22856 0.21212-0.43202 0.43253-0.20345 0.20347-0.37285 0.36449-0.50849 0.48318-0.15258 0.11869-0.22054 0.28808-0.20361 0.5085 0.0169 0.20346 0.15237 0.27142 0.4067 0.2036 0.15259-0.0339 0.31362-0.12698 0.48317-0.27957 0.16956-0.16955 0.31385-0.30548 0.43253-0.40721 0.11869-0.11868 0.28809-0.20338 0.5085-0.25425 0.23737-0.0678 0.49198-0.0338 0.76326 0.10181 0.28824 0.16955 0.53396 0.44089 0.73742 0.8139 0.22042 0.35606 0.33073 0.70372 0.33073 1.0428v0.25425c0 0.42388-0.12704 0.94931-0.38137 1.5766-0.23737 0.62734-0.47473 1.3143-0.7121 2.0603-0.22039 0.74602-0.32234 1.4921-0.30541 2.2381v0.12713c0 0.9834 0.34767 1.8392 1.0428 2.5683 0.69516 0.71214 1.5426 1.0771 2.543 1.094 0.23737 0 0.47473-0.0256 0.7121-0.0765 1.2377-0.23737 2.3064-0.78841 3.205-1.6531 0.91558-0.88166 1.6188-2.0428 2.1105-3.484 0.23737-0.8308 0.33095-1.6025 0.28008-2.3146-0.0339-0.71211-0.0763-1.5089-0.12712-2.3906-0.0509-0.89863-1.5e-4 -1.5684 0.15244-2.0092 0.0509-0.16955 0.15282-0.27986 0.30541-0.33073 0.1526-0.0678 0.30475-0.0934 0.45734-0.0765 0.16955 0 0.32221-0.0251 0.45785-0.076 0.13566-0.0678 0.212-0.18649 0.22893-0.35604 0.017-0.1526-0.11845-0.25454-0.40669-0.30541-0.28824-0.0509-0.6103-0.0425-0.96635 0.0253-0.35606 0.0678-0.63577 0.1614-0.83923 0.28009-0.16955 0.11868-0.32221 0.28807-0.45785 0.50849-0.11871 0.22041-0.18667 0.43216-0.20361 0.63562-0.0848 0.77994-0.0424 1.8486 0.12713 3.205 0.16952 1.3564 0.1523 2.4073-0.0512 3.1533-0.3052 1.3734-0.82226 2.4755-1.5513 3.3063-0.71211 0.8308-1.6699 1.2464-2.8737 1.2464-0.72907 0-1.3648-0.32205-1.9074-0.96635-0.52561-0.64429-0.8393-1.4416-0.94103-2.3911-0.0678-0.67821 0.0592-1.636 0.38137-2.8737 0.32215-1.2377 0.48318-2.1616 0.48318-2.7719 0-0.44084-0.0423-0.86483-0.12713-1.2718-0.0848-0.42388-0.22019-0.8139-0.40669-1.17-0.16955-0.37301-0.42416-0.64435-0.76326-0.8139-0.16956-0.0848-0.35175-0.13156-0.54674-0.14004zm5.1501 1.742c-0.47474 0.0339-0.88986 0.2378-1.2459 0.61081-0.35605 0.37302-0.53433 0.80539-0.53433 1.2971 0.0169 0.3052 0.0593 0.5849 0.12712 0.83923 0.0678 0.23737 0.1865 0.46636 0.35606 0.68678 0.16955 0.22041 0.31384 0.39818 0.43253 0.53382 0.11868 0.11868 0.32206 0.30532 0.6103 0.55965 0.30519 0.25433 0.52582 0.44045 0.66145 0.55914 0.28824 0.28824 0.36458 0.68714 0.22893 1.1958-0.11868 0.4917-0.38165 0.76252-0.78858 0.81339-0.22041 0.017-0.55084-0.11008-0.99167-0.38137-0.44083-0.2713-0.68707-0.41508-0.73794-0.43202-0.11869-0.0678-0.26246-0.0767-0.43202-0.0258-0.15259 0.0509-0.22892 0.15281-0.22892 0.30541 0 0.35606 0.22899 0.64413 0.68678 0.86455 0.45778 0.22042 0.92361 0.30564 1.3984 0.25478 0.3391-0.017 0.6784-0.14454 1.0175-0.3819 0.3391-0.25433 0.57646-0.5424 0.7121-0.86455 0.1526-0.32215 0.22893-0.66146 0.22893-1.0175 0-0.35606-0.0763-0.70373-0.22893-1.0428-0.11869-0.20347-0.41513-0.53388-0.88987-0.99167-0.45779-0.45779-0.72076-0.86454-0.78858-1.2206-0.0339-0.11869-0.0512-0.24625-0.0512-0.38189 0-0.1865 0.0512-0.381 0.15296-0.58446 0.10174-0.20346 0.22041-0.365 0.35605-0.48369 0.13564-0.0848 0.44045-0.0759 0.91519 0.0258 0.4917 0.10176 0.78029 0.11847 0.86507 0.0506 0.0848-0.0678 0.12712-0.15252 0.12712-0.25425 0-0.1526-0.0596-0.2629-0.17828-0.33072-0.4917-0.13565-0.98315-0.20361-1.4748-0.20361zm-8.3984 5.0359c-0.27128 0-0.50027 0.0936-0.68678 0.28008-0.18651 0.18651-0.28009 0.41499-0.28009 0.68627 0 0.10172 0.0172 0.1953 0.0512 0.28008 0.16956 0.35606 0.37294 0.49984 0.6103 0.43202 0.23738-0.0678 0.38167-0.30518 0.43253-0.7121 0.0678-0.62736 0.0255-0.94942-0.12712-0.96635z" fill="#6ba8f3" filter="url(#filter1668)" opacity=".39672" stroke="#8fbdf6" stroke-linejoin="round" stroke-width="1.5"/>
 <path d="m35.629 119.25c-0.19475 0-0.3774 0.0371-0.54781 0.11004-0.13388 0.073-0.2494 0.32851-0.34676 0.76669-0.0974 0.42601-0.15828 0.76059-0.18261 1.004-0.0243 0.23125-0.0426 0.42585-0.0547 0.58408l-5.5322 0.62097 0.23731-2.2091c0.0122-0.0487 0.0731-0.0851 0.18261-0.10946 0.10957-0.0243 0.22505-0.0368 0.34676-0.0368 0.12172 0 0.23156-0.0245 0.32892-0.0732 0.0974-0.0609 0.14005-0.1519 0.12789-0.27361 0-0.0852-0.0791-0.13416-0.23733-0.14632-0.15823-0.0243-0.46267-0.0363-0.91301-0.0363-0.29212 0-0.52313-6e-3 -0.69353-0.0184-1.1685 0-1.7472 0.10359-1.735 0.31049 0 0.17039 0.0553 0.2859 0.16475 0.34676 0.10958 0.0487 0.23132 0.0612 0.36522 0.0368 0.14605-0.0365 0.2735-0.049 0.38304-0.0368 0.10957 0 0.16417 0.0307 0.16417 0.0916-0.0122 0.1704-0.0486 0.72406-0.10946 1.6612-0.0487 0.93721-0.10958 2.2272-0.18261 3.8704-0.0122 0.1704 0.055 0.31038 0.20104 0.41992 0.14606 0.10957 0.31618 0.15223 0.51093 0.12788 0.20692-0.0243 0.3657-0.11537 0.47524-0.2736 0.17041-0.23126 0.31038-1.1809 0.41993-2.8485 1.2902-0.14605 3.0911-0.36514 5.4037-0.65725l-0.4015 3.0489c-0.13388 1.1685-0.35295 2.319-0.65724 3.451-0.0487 0.21909-0.2615 0.39548-0.63882 0.52937-0.37731 0.12171-0.94977 0.26796-1.7166 0.43836-0.75463 0.1704-1.3936 0.34679-1.917 0.52937-0.79114 0.29212-1.5519 0.66311-2.2822 1.1135-0.71812 0.45034-1.1927 0.91296-1.4239 1.3876-0.15823 0.23126-0.23732 0.48108-0.23732 0.74886 0 0.19473 0.06089 0.39501 0.18261 0.60192 0.12172 0.2191 0.26169 0.38355 0.41993 0.49309 0.3408 0.21908 0.71239 0.32892 1.114 0.32892 0.29211 0 0.57148-0.0552 0.83925-0.16475 0.46252-0.14606 0.93142-0.39529 1.4061-0.74825 0.48687-0.35298 0.67579-0.68757 0.56625-1.004-0.0852-0.21909-0.35322-0.36534-0.80357-0.43837-0.45034-0.0852-0.72404-0.0732-0.82141 0.0362-0.15823 0.19474-0.20091 0.36546-0.12788 0.51152 0.0852 0.1339 0.15802 0.28014 0.21889 0.43837 0.0731 0.15823 0.0429 0.28568-0.091 0.38304-0.0974 0.0852-0.2499 0.14609-0.45681 0.18261-0.20692 0.0365-0.41972 0.0183-0.63881-0.0547s-0.37101-0.21302-0.45621-0.41994c-0.10957-0.24342-7e-3 -0.56607 0.30989-0.96772 0.32863-0.40167 0.68769-0.75445 1.0772-1.0587 0.38949-0.31645 0.72467-0.55374 1.0046-0.71197 0.37731-0.20692 0.90649-0.38331 1.5882-0.52937 0.69378-0.15823 1.7771-0.31075 3.25-0.4568 0.65726-0.0609 1.01-0.21278 1.0587-0.45621 0.26777-1.1807 0.54772-2.6169 0.83985-4.3086 0.29211-1.7041 0.51119-3.1647 0.65724-4.3819 0.0122-0.0122 0.0247-0.0611 0.0368-0.14631 0.0122-0.0974 0.0178-0.1702 0.0178-0.21889 0.0122-0.0487 0.0248-0.12151 0.0368-0.21888 0.0122-0.0974 0.0178-0.1708 0.0178-0.21949v-0.21887c0.0122-0.0974 0.0122-0.1702 0-0.21889-0.0122-0.0609-0.0241-0.11548-0.0363-0.16417-0.0122-0.0609-0.0366-0.1098-0.0732-0.14631-0.0243-0.0365-0.0544-0.0666-0.091-0.091-0.17037-0.073-0.35303-0.11004-0.54778-0.11004zm-25.459 1.0326c-0.12552 2e-3 -0.24773 0.0354-0.3664 0.0993-0.14606 0.0852-0.21889 0.21952-0.21889 0.4021v0.0362c0 0.0852 0.03016 0.1643 0.09104 0.23733 0.06089 0.073 0.13428 0.11571 0.21948 0.12787 0.09737 0.0122 0.46837 0.0242 1.1135 0.0363 0.64509 0.0122 1.0832 0.0304 1.3144 0.0547 0.60858 0.0609 0.89481 0.41991 0.85829 1.0772-0.03649 0.0974-0.04282 0.2863-0.01842 0.56624 0.02429 0.27995 0.06077 0.57184 0.10946 0.87613s0.15853 0.62127 0.32892 0.9499c0.18257 0.31646 0.41359 0.56567 0.69354 0.74824 0.30429 0.18257 0.68155 0.34077 1.1319 0.47465 0.46252 0.13389 0.87052 0.20105 1.2235 0.20105 0.19474 0 0.38308-0.0125 0.56565-0.0368 0.63291 0 1.2537-0.20654 1.8623-0.62037 0.60858-0.426 1.0285-0.93131 1.2598-1.5155 0.21908-0.70595 0.40174-1.4178 0.54781-2.1359 0.09738-0.27994 0.21288-0.45634 0.34676-0.52936 0.14606-0.0731 0.32871-0.0975 0.54781-0.0732h0.21947c0.10958-1e-5 0.18864 6e-3 0.23732 0.0178 0.04869 0 0.109 0.0188 0.18201 0.0554 0.07297 0.0243 0.12198 0.0727 0.14633 0.14572 0.03649 0.0731 0.05467 0.17033 0.05467 0.29205 0 0.0243-0.07907 0.27983-0.23732 0.76669-0.15823 0.47468-0.34089 1.0045-0.54781 1.5887-0.19475 0.58423-0.32219 0.96776-0.38305 1.1503-0.2556 0.75463-0.60898 1.6428-1.0593 2.6652-0.43818 1.0224-0.83992 1.8867-1.2051 2.5928-0.426 0.69377-0.93071 1.3265-1.5149 1.8986-0.32862 0.2556-0.7059 0.38364-1.1319 0.38364h-0.0732c-0.14606 0-0.2741-0.0553-0.38364-0.16475-0.10958-0.10958-0.16417-0.23699-0.16417-0.38306v-0.0732c0-0.0487 0.01819-0.15793 0.05467-0.32833 0.03649-0.1704 0.05467-0.27396 0.05467-0.31049-0.06089-0.27994-0.17636-0.46261-0.34676-0.5478-0.17041-0.0974-0.40768-0.14632-0.71197-0.14632-0.21908 0-0.40802 0.0854-0.56625 0.25577-0.15823 0.15822-0.23732 0.34715-0.23732 0.56624v0.0725c0 0.29212 0.25609 0.62102 0.76729 0.98617 0.51121 0.35297 0.98576 0.54757 1.4239 0.58409 0.43818 0.0243 0.83992-0.0183 1.2051-0.12788 0.37732-0.10957 0.72383-0.2922 1.0403-0.5478 0.31646-0.25561 0.59075-0.51677 0.82201-0.78455 0.23126-0.26777 0.48675-0.60295 0.76669-1.0046 0.38949-0.53555 0.96761-1.5638 1.7344-3.0853s1.5396-3.3105 2.3186-5.3675c0.09737-0.24342 0.22541-0.43236 0.38364-0.56624 0.17041-0.13389 0.30412-0.2494 0.40149-0.34676 0.10958-0.0974 0.16416-0.24363 0.16416-0.43837v-0.0732c0.0122-0.0487 0.01842-0.0851 0.01842-0.10946 0-0.0365-0.0058-0.0792-0.01842-0.12787-0.0122-0.0487-0.0366-0.0851-0.0732-0.10946-0.03649-0.0365-0.08483-0.0666-0.14572-0.091-0.09738-0.0365-0.30451-0.0547-0.62096-0.0547-0.31647 0-0.68746 0.012-1.1135 0.0363-0.41383 0.0122-0.68185 0.0184-0.80357 0.0184h-0.96773c-0.4747 0-0.85196 0.0182-1.1319 0.0547-0.26777 0.0243-0.4743 0.0852-0.62037 0.18261-0.18257 0.10958-0.29867 0.20057-0.34736 0.2736-0.03649 0.073-0.05467 0.18854-0.05467 0.34677 0.02429 0.18257 0.03683 0.3715 0.03683 0.56625 0 0.31646-0.05525 0.68178-0.16475 1.0956-0.10958 0.40166-0.24326 0.73624-0.40149 1.004-0.14605 0.23126-0.23708 0.37125-0.2736 0.41993-0.02429 0.0487-0.11598 0.17046-0.2742 0.3652-0.14605 0.18258-0.2735 0.30435-0.38304 0.36521-0.10958 0.0487-0.26773 0.10957-0.47465 0.1826-0.20692 0.0609-0.43226 0.0847-0.67569 0.0726-0.43818-0.0122-0.9008-0.22499-1.3876-0.63882s-0.7304-0.85198-0.7304-1.3144c-0.0122-0.36514 0.04869-0.66958 0.1826-0.91301 0.1339-0.2556 0.26819-0.48094 0.40209-0.67569 0.14606-0.19474 0.21889-0.39501 0.21889-0.60193 0-0.14606-0.02452-0.26784-0.0732-0.3652-0.03649-0.10957-0.10934-0.19491-0.21888-0.25576-0.09737-0.0609-0.18901-0.10981-0.2742-0.14633-0.07297-0.0365-0.19481-0.0604-0.36521-0.0725-0.15823-0.0122-0.27373-0.0184-0.34676-0.0184-0.07309-0.0122-0.20047-0.0122-0.38304 0h-0.31048c-0.12172 0-0.44436-6e-3 -0.96774-0.0184-0.5112-0.0243-0.77297-0.0363-0.78513-0.0363l0.01842 0.0363c-0.04869 0-0.28029-0.0245-0.69412-0.0732-0.41383-0.0609-0.64485-0.091-0.69354-0.091-0.04259-6e-3 -0.08483-9e-3 -0.12669-8e-3zm40.385 0.0768c-0.16127 3e-3 -0.33371 0.023-0.51628 0.0595-0.35297 0.0609-0.63294 0.1519-0.83985 0.27362-0.1704 0.1217-0.32232 0.29811-0.45622 0.52937-0.12171 0.21908-0.18886 0.43248-0.20103 0.6394-0.073 0.6816-0.0668 1.4179 0.0184 2.2091s0.15802 1.4301 0.21889 1.917c0.0609 0.48687 6e-3 1.2112-0.16417 2.1728-0.14606 0.64509-0.33439 1.2289-0.56566 1.7523-0.23125 0.52337-0.52375 0.99794-0.87672 1.4239-0.34081 0.42601-0.76642 0.76118-1.2776 1.0046-0.49902 0.23126-1.059 0.34676-1.6796 0.34676-0.70594 0-1.333-0.31638-1.8807-0.9493-0.53554-0.64508-0.84566-1.4423-0.93085-2.3917-0.0609-0.68161 0.0609-1.637 0.3652-2.8663 0.31647-1.2415 0.48032-2.1548 0.49249-2.739-1e-5 -0.43818-0.0427-0.86379-0.12788-1.2776-0.0852-0.41382-0.21892-0.79737-0.40149-1.1503-0.1704-0.36514-0.4259-0.6269-0.7667-0.78513-0.32863-0.1704-0.71842-0.19487-1.1687-0.0732-0.14606 0.0487-0.29171 0.12211-0.43777 0.21947-0.14607 0.0852-0.26157 0.1643-0.34677 0.23733-0.0852 0.073-0.23145 0.21301-0.43837 0.41993-0.19473 0.20691-0.35919 0.36509-0.49307 0.47464-0.15823 0.13389-0.23107 0.30402-0.21889 0.51094 0.0243 0.2069 0.16431 0.27406 0.41992 0.20103 0.14606-0.0365 0.30424-0.13382 0.47465-0.29204 0.18257-0.15823 0.32882-0.29254 0.43836-0.40208 0.10957-0.10958 0.27341-0.19431 0.4925-0.25517 0.23126-0.0609 0.48107-0.0188 0.74884 0.12728 0.29211 0.17041 0.54134 0.43215 0.74825 0.78513 0.20692 0.35298 0.31049 0.7001 0.31049 1.0409 0 0.0852-7e-3 0.17056-0.0184 0.25576-0.0122 0.35298-0.0913 0.76665-0.23733 1.2414-0.14605 0.46253-0.30424 0.90067-0.47464 1.3144-0.1704 0.40166-0.32859 0.9007-0.47465 1.4971-0.13388 0.5964-0.20044 1.1864-0.20044 1.7707 0.0122 0.62075 0.15215 1.2114 0.41993 1.7713 0.26777 0.5599 0.68145 1.0344 1.2414 1.4239 0.55989 0.37731 1.2046 0.56624 1.9348 0.56624 0.24344 0 0.48699-0.0182 0.73042-0.0548 1.2293-0.24342 2.2945-0.79767 3.1953-1.6618 0.90069-0.87635 1.5944-2.0327 2.0812-3.4689 0.23126-0.82766 0.32289-1.5941 0.27421-2.3-0.0487-0.70595-0.0976-1.4974-0.14632-2.3738-0.0365-0.88851 0.0181-1.5514 0.16416-1.9896 0.0487-0.15823 0.14599-0.26805 0.29205-0.32892 0.15822-0.0609 0.31642-0.0853 0.47465-0.0732 0.15822 0 0.29821-0.0302 0.41992-0.0911 0.13389-0.0609 0.21298-0.17069 0.23732-0.32892 0.0122-0.14606-0.12153-0.24337-0.40148-0.29204-0.13997-0.0304-0.29018-0.0441-0.45145-0.0411zm-5.0075 1.7207c-0.48687 0.0365-0.90681 0.24364-1.2598 0.62096-0.3408 0.36515-0.51093 0.79076-0.51093 1.2776 0.0122 0.30429 0.0549 0.57858 0.12787 0.82201 0.073 0.23126 0.18854 0.45601 0.34678 0.67509 0.17039 0.21909 0.31664 0.39548 0.43835 0.52937 0.12172 0.12172 0.31632 0.31064 0.58409 0.56624 0.27995 0.24344 0.49276 0.43236 0.63882 0.56625 0.18257 0.18258 0.27988 0.42554 0.29204 0.72981 0.0122 0.30429-0.0607 0.58425-0.21888 0.83985-0.14607 0.24344-0.34693 0.37775-0.60253 0.40209-0.23126 0.0243-0.56584-0.0975-1.004-0.36521-0.42601-0.26777-0.66328-0.41402-0.71197-0.43836-0.12171-0.0609-0.26169-0.0671-0.41992-0.0184-0.15824 0.0487-0.2436 0.15226-0.25576 0.31049 0 0.3408 0.23101 0.62076 0.69352 0.83985 0.46253 0.21909 0.93141 0.31071 1.4061 0.2742 0.3408-0.0243 0.68165-0.15865 1.0224-0.40209 0.34082-0.24342 0.57182-0.52905 0.69354-0.85769 0.15823-0.31645 0.23733-0.65164 0.23733-1.0046s-0.0791-0.69383-0.23733-1.0224c-0.12172-0.21909-0.31632-0.45011-0.58409-0.69353-0.26778-0.25561-0.50505-0.49916-0.71197-0.73042-0.20692-0.24342-0.32868-0.49891-0.3652-0.76669-0.0365-0.13388-0.0547-0.26759-0.0547-0.40148 0-0.1704 0.0489-0.35933 0.14631-0.56624 0.0974-0.20692 0.21856-0.36511 0.36462-0.47465 0.13388-0.0974 0.43832-0.0911 0.91301 0.0184 0.48686 0.0974 0.77309 0.11559 0.85828 0.0548 0.0852-0.073 0.12789-0.16406 0.12789-0.27362 0-0.13388-0.0671-0.23745-0.20104-0.31048-0.47469-0.13388-0.95552-0.20103-1.4424-0.20103zm-8.2207 4.7833c-0.26778 0-0.49878 0.0973-0.69353 0.29205-0.19475 0.19474-0.29205 0.43203-0.29205 0.71196 0 0.10958 0.012 0.21312 0.0363 0.31049 0.18257 0.37732 0.39597 0.52984 0.63941 0.4568 0.24342-0.0852 0.39534-0.34128 0.45621-0.76729 0.0365-0.21908 0.0547-0.43816 0.0547-0.65724 0-0.21909-0.0609-0.3346-0.18261-0.34677z" fill="#fff" stroke-width=".12678"/>
</svg>
